<?xml version="1.0" standalone="no"?>
<!DOCTYPE svg PUBLIC "-//W3C//DTD SVG 1.1//EN" "http://www.w3.org/Graphics/SVG/1.1/DTD/svg11.dtd" >
<svg>
<metadata>
Created by FontForge 20110222 at Tue Apr  3 07:34:05 2012
 By Stefan Warting
Typeface (c) The Monotype Corporation plc. Data (c) The Monotype Corporation plc / Type Solutions Inc. 1990-91 All Rights Reserved.
</metadata>
<defs>
<font id="CenturySchoolbook-BoldItalic" horiz-adv-x="1460" >
  <font-face 
    font-family="Century Schoolbook"
    font-weight="700"
    font-style="italic"
    font-stretch="normal"
    units-per-em="2048"
    panose-1="2 4 8 4 6 5 5 9 3 4"
    ascent="1638"
    descent="-410"
    x-height="958"
    cap-height="1479"
    bbox="-394 -630 2802 2302"
    underline-thickness="102"
    underline-position="-154"
    slope="-15"
    unicode-range="U+0020-F108"
  />
<missing-glyph horiz-adv-x="1536" 
d="M256 0v1280h1024v-1280h-1024zM288 32h960v1216h-960v-1216z" />
    <glyph glyph-name=".notdef" horiz-adv-x="1536" 
d="M256 0v1280h1024v-1280h-1024zM288 32h960v1216h-960v-1216z" />
    <glyph glyph-name=".null" horiz-adv-x="0" 
 />
    <glyph glyph-name="nonmarkingreturn" horiz-adv-x="588" 
 />
    <glyph glyph-name="space" unicode=" " horiz-adv-x="588" 
 />
    <glyph glyph-name="exclam" unicode="!" horiz-adv-x="682" 
d="M317 432h-87l46 203q68 301 93 588q11 133 32.5 182.5t65.5 79t95 29.5q64 0 109.5 -43.5t45.5 -101.5q0 -37 -20 -95q-26 -76 -112 -243q-122 -237 -169 -342q-34 -73 -67 -168zM215 319q71 0 121 -50.5t50 -123.5q0 -72 -50 -123t-121 -51t-121.5 51t-50.5 123
q0 73 50.5 123.5t121.5 50.5z" />
    <glyph glyph-name="quotedbl" unicode="&#x22;" horiz-adv-x="819" 
d="M700 751h-49l6 418q1 118 62.5 186.5t148.5 68.5q49 0 81 -30t32 -71q0 -56 -69 -184zM293 751h-49l6 418q1 118 62.5 186.5t148.5 68.5q49 0 81 -30t32 -71q0 -56 -70 -184z" />
    <glyph glyph-name="numbersign" unicode="#" horiz-adv-x="1241" 
d="M118 1083h319l86 396h166l-85 -396h302l84 396h168l-85 -396h183v-169h-215l-69 -330h284v-168h-316l-86 -416h-165l84 416h-306l-89 -416h-167l89 416h-182v168h217l69 330h-286v169zM571 914l-69 -330h303l69 330h-303z" />
    <glyph glyph-name="dollar" unicode="$" horiz-adv-x="1176" 
d="M855 1513h97l-27 -100q126 -34 189.5 -104.5t63.5 -155.5q0 -77 -41.5 -125t-102.5 -48q-52 0 -86 33.5t-34 84.5q0 25 9.5 44t42.5 51q39 37 39 56q0 54 -105 73l-131 -460q174 -182 215 -261.5t41 -175.5q0 -166 -104 -290q-133 -158 -367 -158l-38 1l-70 -247h-99
l74 260q-124 32 -200.5 119.5t-76.5 182.5q0 86 49 142.5t116 56.5q58 0 95.5 -36t37.5 -87q0 -88 -92 -132q-48 -23 -48 -48q0 -27 37.5 -59.5t106.5 -48.5l158 554q-118 130 -146 182q-45 87 -45 196q0 171 115.5 287.5t298.5 122.5zM692 939l109 389q-87 -4 -142 -60.5
t-55 -137.5q0 -87 88 -191zM684 558l-142 -490q119 1 196 73t77 172q0 45 -19.5 86.5t-111.5 158.5z" />
    <glyph glyph-name="percent" unicode="%" horiz-adv-x="1820" 
d="M646 1424q96 0 154.5 -65t58.5 -179q0 -134 -54.5 -254t-136 -179.5t-168.5 -59.5q-94 0 -152 66t-58 184q0 131 56 251t136.5 178t163.5 58zM647 1366q-18 0 -34 -13q-27 -20 -46 -71.5t-76 -266.5q-37 -143 -37 -209q0 -30 13.5 -45.5t33.5 -15.5q32 0 57 36t83 249.5
t58 269.5q0 29 -15.5 47.5t-36.5 18.5zM1403 1395h93l-1014 -1395h-95zM1396 708q97 0 155 -65t58 -179q0 -134 -54.5 -254t-136 -179.5t-168.5 -59.5q-94 0 -152 66t-58 184q0 131 56 251t137 178t163 58zM1398 650q-19 0 -35 -13q-27 -20 -46 -71.5t-75 -266.5
q-38 -143 -38 -209q0 -30 13.5 -45.5t33.5 -15.5q32 0 57 36t83 249.5t58 269.5q0 29 -15.5 47.5t-35.5 18.5z" />
    <glyph glyph-name="ampersand" unicode="&#x26;" horiz-adv-x="1821" 
d="M935 860q77 -301 228 -543q127 120 174 197q36 58 36 106t-42 75t-157 29l25 93h550v-93h-30q-60 0 -106 -32t-141 -161q-88 -120 -135 -172.5t-121 -118.5q85 -115 196 -115q126 0 275 192l62 -53q-163 -293 -461 -293q-84 0 -152.5 25t-139.5 83q-125 -62 -218.5 -85
t-203.5 -23q-211 0 -330.5 108.5t-119.5 278.5q0 110 49 205t143.5 161t309.5 136q-21 110 -21 179q0 141 57.5 250t163.5 167t243 58q153 0 243.5 -79.5t90.5 -194.5q0 -81 -45 -155t-138 -128t-285 -97zM915 948q158 52 225 129t67 177q0 78 -41 124t-102 46
q-70 0 -123 -70t-53 -196q0 -82 27 -210zM644 767q-102 -58 -149.5 -138t-47.5 -183q0 -147 87 -243t215 -96q79 0 177 44q-82 106 -148.5 248t-133.5 368z" />
    <glyph glyph-name="quotesingle" unicode="'" horiz-adv-x="588" 
d="M381 751h-49l6 418q1 118 62.5 186.5t148.5 68.5q49 0 81 -30t32 -71q0 -56 -70 -184z" />
    <glyph glyph-name="parenleft" unicode="(" horiz-adv-x="834" 
d="M488 -391q-175 198 -248.5 383t-73.5 403q0 217 73.5 407.5t218.5 353t445 357.5h107q-281 -257 -425.5 -585.5t-144.5 -700.5q0 -173 27.5 -309.5t101.5 -308.5h-81z" />
    <glyph glyph-name="parenright" unicode=")" horiz-adv-x="834" 
d="M298 1514h81q154 -152 238.5 -357t84.5 -433q0 -328 -175.5 -606t-562.5 -511h-109q186 172 311 377t194 440.5t69 472.5q0 187 -31 331t-100 286z" />
    <glyph glyph-name="asterisk" unicode="*" horiz-adv-x="1024" 
d="M638 1053q47 19 78 41q24 16 75 71q58 63 92.5 82t72.5 19q60 0 98 -37t38 -96t-40.5 -96.5t-111.5 -37.5q-25 0 -105 10q-82 10 -110 10q-25 0 -70 -9q21 -26 42.5 -41.5t105.5 -59.5q77 -40 95 -55q26 -22 38.5 -49t12.5 -59q0 -59 -40.5 -98.5t-100.5 -39.5
q-36 0 -67.5 22.5t-48.5 62.5q-12 31 -39 177q-12 69 -40 113q-25 -46 -37 -121q-19 -121 -38 -163.5t-54.5 -66.5t-73.5 -24q-52 0 -90 40.5t-38 97.5q0 43 22 74.5t89 67.5q94 51 135 79q23 16 48 43q-41 11 -72 11q-39 0 -139 -15q-53 -7 -72 -7q-74 0 -116 36.5
t-42 95.5q0 60 37 98t94 38q40 0 80 -22q25 -15 88 -76q64 -63 89 -81t67 -35q0 46 -6.5 70t-38.5 87q-42 80 -53 113t-11 61q0 61 36.5 98.5t95.5 37.5q60 0 96 -35.5t36 -92.5q0 -32 -9.5 -64.5t-48.5 -113.5q-33 -70 -40.5 -96t-8.5 -65z" />
    <glyph glyph-name="plus" unicode="+" horiz-adv-x="1241" 
d="M157 774h466v467h187v-467h468v-187h-468v-464h-187v464h-466v187z" />
    <glyph glyph-name="comma" unicode="," horiz-adv-x="588" 
d="M-85 -334l-24 78q151 42 218.5 101t67.5 106q0 28 -36 39q-83 25 -110.5 59.5t-27.5 97.5q0 74 51 125.5t125 51.5q83 0 139 -62t56 -159q0 -131 -93 -239q-128 -149 -366 -198z" />
    <glyph glyph-name="hyphen" unicode="-" horiz-adv-x="682" 
d="M50 564h632l-53 -188h-634z" />
    <glyph glyph-name="hyphen" unicode="&#xad;" horiz-adv-x="682" 
d="M50 564h632l-53 -188h-634z" />
    <glyph glyph-name="period" unicode="." horiz-adv-x="588" 
d="M225 313q71 0 120.5 -50t49.5 -121t-49.5 -121t-120.5 -50t-120.5 50t-49.5 121t50 121t120 50z" />
    <glyph glyph-name="slash" unicode="/" horiz-adv-x="569" 
d="M876 1479l-886 -1479h-189l886 1479h189z" />
    <glyph glyph-name="zero" unicode="0" horiz-adv-x="1176" 
d="M815 1424q155 0 249.5 -114.5t94.5 -334.5q0 -258 -96.5 -494t-243 -373t-326.5 -137q-149 0 -241.5 113t-92.5 322q0 205 63 405t166.5 342t218.5 206.5t208 64.5zM813 1334q-48 0 -100 -46t-106 -188q-34 -87 -149 -461q-90 -296 -90 -419q0 -72 36.5 -114t91.5 -42
q47 0 86 26q54 35 88 105q61 128 134 373l95 320q49 181 49 279q0 79 -38 123t-97 44z" />
    <glyph glyph-name="one" unicode="1" horiz-adv-x="1176" 
d="M932 1419h80l-333 -1243q-3 -13 -3 -26q0 -27 20 -40q27 -17 86 -17h112l-25 -93h-703l25 93h130q83 0 108 93l250 936q3 11 3 21q0 26 -21.5 41t-75.5 15h-132l25 90q179 6 282 38.5t172 91.5z" />
    <glyph glyph-name="two" unicode="2" horiz-adv-x="1176" 
d="M330 239h459q93 0 156 173h91l-143 -412h-832l24 93q123 150 219.5 247t285.5 254q142 119 172 150q70 76 106.5 163.5t36.5 174.5q0 105 -56.5 165t-150.5 60t-154.5 -50t-60.5 -108q0 -20 12 -32t50 -23q65 -18 92.5 -51.5t27.5 -85.5q0 -61 -42 -101t-103 -40
q-81 0 -137 64.5t-56 171.5q0 148 126.5 260t320.5 112q196 0 309.5 -100t113.5 -249q0 -123 -89 -240q-72 -96 -286 -230q-257 -161 -343 -228t-149 -138z" />
    <glyph glyph-name="three" unicode="3" horiz-adv-x="1176" 
d="M763 715q145 -53 210.5 -136.5t65.5 -193.5q0 -164 -141 -289t-355 -125q-206 0 -308.5 104t-102.5 241q0 87 46 137.5t115 50.5q62 0 102 -39t40 -99q0 -86 -75 -129q-47 -28 -55 -36.5t-8 -20.5q0 -35 40 -63q55 -37 127 -37q115 0 193 104q101 136 101 323
q0 80 -37 120t-102 40q-27 0 -84 -3l-25 -1q-43 0 -62 15t-19 41t15.5 40t43.5 14l46 -4q42 -5 67 -5q142 0 231 100t89 275q0 95 -44 140.5t-131 45.5q-70 0 -108 -24t-38 -48q0 -17 27 -39q57 -47 57 -110q0 -55 -35.5 -90.5t-91.5 -35.5q-63 0 -103 42t-40 110
q0 101 90 187q112 107 287 107q178 0 288 -94t110 -234q0 -132 -95.5 -228.5t-330.5 -152.5z" />
    <glyph glyph-name="four" unicode="4" horiz-adv-x="1176" 
d="M1076 1420h100l-268 -962h168l-26 -96h-172l-54 -189q-3 -10 -3 -20q0 -28 21.5 -44t65.5 -16h84l-26 -93h-606l24 93h78q82 0 103 73l57 196h-503l31 115zM812 1022l-547 -564h383z" />
    <glyph glyph-name="five" unicode="5" horiz-adv-x="1176" 
d="M582 1154l-110 -305q113 48 207 48q163 0 264.5 -102.5t101.5 -270.5q0 -155 -70.5 -277t-207 -199t-286.5 -77q-153 0 -240.5 74.5t-87.5 191.5q0 97 53.5 158t125.5 61q60 0 101 -40t41 -95q0 -52 -32.5 -90.5t-99.5 -54.5q-47 -11 -47 -34q0 -27 33 -49
q45 -29 107 -29q88 0 166 70.5t124.5 225.5t46.5 263q0 75 -46.5 121.5t-122.5 46.5q-59 0 -116.5 -29.5t-76.5 -64.5q-33 -61 -70 -61q-21 0 -35 13t-14 31q0 43 53 84l220 623q13 37 33 37q11 0 41 -13q127 -54 279 -54q128 0 230 53q26 14 37 14q10 0 17.5 -8t7.5 -17
q0 -38 -59 -111t-156 -118.5t-207 -45.5q-83 0 -205 30z" />
    <glyph glyph-name="six" unicode="6" horiz-adv-x="1176" 
d="M563 802q93 52 185 52q130 0 218.5 -95.5t88.5 -249.5q0 -141 -69.5 -266t-187.5 -198.5t-242 -73.5q-164 0 -267 117t-103 329q0 248 124.5 499.5t301 379.5t341.5 128q126 0 203 -64.5t77 -155.5q0 -76 -48.5 -125.5t-118.5 -49.5q-61 0 -100.5 38t-39.5 96
q0 51 41 100q17 20 17 33q0 14 -12 22q-16 11 -40 11q-60 0 -128.5 -47.5t-131.5 -167t-109 -312.5zM675 740q-62 0 -105 -51q-60 -71 -104 -237.5t-44 -243.5q0 -65 31 -100.5t79 -35.5q44 0 86 40q51 51 104 211q64 192 64 300q0 57 -29.5 87t-81.5 30z" />
    <glyph glyph-name="seven" unicode="7" horiz-adv-x="1176" 
d="M480 1425h88q38 -30 88 -30h646l-15 -69q-215 -254 -320.5 -418t-163.5 -311.5t-85 -312.5q-28 -176 -43 -213q-21 -48 -61 -74t-100 -26q-68 0 -105 36t-37 97q0 64 35 160q48 130 173.5 315.5t442.5 574.5h-342q-102 0 -162.5 -47.5t-102.5 -167.5h-101z" />
    <glyph glyph-name="eight" unicode="8" horiz-adv-x="1176" 
d="M854 754q109 -114 147 -193t38 -164q0 -173 -141 -299.5t-352 -126.5q-187 0 -303.5 99.5t-116.5 236.5q0 121 86 220t307 184q-77 84 -107 154t-30 152q0 176 126 291.5t323 115.5q158 0 250 -83.5t92 -208.5q0 -119 -72.5 -212t-246.5 -166zM788 818q221 103 221 295
q0 97 -59 156t-154 59q-98 0 -161.5 -58.5t-63.5 -139.5q0 -52 34 -107q50 -80 183 -205zM587 644q-281 -115 -281 -343q0 -102 65 -165.5t175 -63.5q119 0 194.5 70.5t75.5 170.5q0 61 -38 123q-51 82 -191 208z" />
    <glyph glyph-name="nine" unicode="9" horiz-adv-x="1176" 
d="M812 610q-88 -64 -189 -64q-129 0 -218 94.5t-89 241.5q0 136 73 269t185 203t240 70q163 0 266.5 -116t103.5 -312q0 -236 -102.5 -479t-286.5 -394.5t-378 -151.5q-127 0 -202 65t-75 156q0 74 49.5 125.5t117.5 51.5q59 0 99.5 -39t40.5 -93q0 -50 -42 -105
q-17 -23 -17 -35t11.5 -21t34.5 -9q120 0 226.5 146t151.5 397zM845 1326q-52 0 -91 -38q-58 -56 -114 -219t-56 -284q0 -67 30 -99t85 -32q52 0 101.5 46.5t102 207.5t52.5 284q0 66 -29.5 100t-80.5 34z" />
    <glyph glyph-name="colon" unicode=":" horiz-adv-x="588" 
d="M403 970q71 0 122 -51t51 -123q0 -73 -51 -124t-123 -51q-71 0 -122 51t-51 122q0 72 52.5 124t121.5 52zM216 319q72 0 122.5 -51t50.5 -123t-50.5 -123t-122.5 -51q-71 0 -122 51t-51 123t50.5 123t122.5 51z" />
    <glyph glyph-name="semicolon" unicode=";" horiz-adv-x="588" 
d="M366 970q71 0 122 -51t51 -123t-50.5 -123t-122.5 -51q-71 0 -122 51t-51 123q0 71 51.5 122.5t121.5 51.5zM-86 -330l-24 78q150 41 218 100.5t68 106.5q0 28 -36 39q-83 25 -110.5 59t-27.5 97q0 75 51 126.5t124 51.5q83 0 139.5 -61.5t56.5 -159.5q0 -131 -93 -239
q-128 -149 -366 -198z" />
    <glyph glyph-name="semicolon" unicode="&#x37e;" horiz-adv-x="588" 
d="M366 970q71 0 122 -51t51 -123t-50.5 -123t-122.5 -51q-71 0 -122 51t-51 123q0 71 51.5 122.5t121.5 51.5zM-86 -330l-24 78q150 41 218 100.5t68 106.5q0 28 -36 39q-83 25 -110.5 59t-27.5 97q0 75 51 126.5t124 51.5q83 0 139.5 -61.5t56.5 -159.5q0 -131 -93 -239
q-128 -149 -366 -198z" />
    <glyph glyph-name="less" unicode="&#x3c;" horiz-adv-x="1241" 
d="M1276 128l-1118 468v169l1118 469v-203l-864 -350l864 -349v-204z" />
    <glyph glyph-name="equal" unicode="=" horiz-adv-x="1241" 
d="M158 1017h1118v-187h-1118v187zM158 536h1118v-187h-1118v187z" />
    <glyph glyph-name="greater" unicode="&#x3e;" horiz-adv-x="1241" 
d="M158 1234l1118 -468v-170l-1118 -468v203l864 350l-864 349v204z" />
    <glyph glyph-name="question" unicode="?" horiz-adv-x="985" 
d="M670 628l67 -48q-94 -177 -254 -177q-103 0 -171.5 68t-68.5 172q0 59 25 116.5t74 105t194 139.5q171 107 213 161q42 53 42 117q0 57 -45 96.5t-121 39.5q-105 0 -177.5 -79.5t-72.5 -205.5l-85 -11l-1 24q0 153 107.5 260.5t265.5 107.5q154 0 249.5 -89.5
t95.5 -226.5q0 -82 -31.5 -150.5t-95 -121t-212.5 -118.5q-160 -71 -210 -116q-51 -46 -51 -107q0 -40 25.5 -66t64.5 -26q93 0 173 135zM310 316q70 0 120.5 -50.5t50.5 -121.5q0 -72 -50.5 -122.5t-120.5 -50.5q-71 0 -121 50.5t-50 122.5q0 71 50 121.5t121 50.5z" />
    <glyph glyph-name="at" unicode="@" horiz-adv-x="1530" 
d="M1014 1028l208 8l-157 -537q-25 -88 -25 -128q0 -33 19.5 -52.5t51.5 -19.5q65 0 157 70.5t151 195.5t59 264q0 237 -151.5 388.5t-397.5 151.5q-213 0 -383.5 -99t-272 -285t-101.5 -406q0 -296 188.5 -484.5t481.5 -188.5q240 0 431 129t271 343h53
q-103 -252 -300 -385.5t-457 -133.5q-330 0 -544 212t-214 538q0 351 234 583t594 232q191 0 328.5 -73.5t212.5 -207t75 -309.5q0 -274 -175 -450q-147 -147 -336 -147q-86 0 -131 42t-45 116q0 43 20 111q-102 -169 -166 -219t-130 -50q-62 0 -102.5 49.5t-40.5 144.5
q0 149 77 310.5t179.5 240t186.5 78.5q50 0 80.5 -33.5t41.5 -100.5zM886 998q-32 0 -66 -35q-66 -69 -122.5 -220.5t-56.5 -264.5q0 -44 14.5 -64.5t35.5 -20.5q26 0 71 45q76 76 129.5 204t53.5 240q0 65 -16.5 90.5t-42.5 25.5z" />
    <glyph glyph-name="A" unicode="A" horiz-adv-x="1518" 
d="M985 1479h135l179 -1275q8 -58 38 -80q42 -31 112 -31h46l-25 -93h-680l23 93h50q79 0 107.5 19.5t28.5 59.5q0 14 -3 32l-37 266h-501l-99 -154q-41 -65 -41 -119q0 -49 32.5 -76.5t99.5 -27.5h41l-23 -93h-531l23 93q69 4 109 32q77 53 116 113zM871 1110l-342 -529
h415z" />
    <glyph glyph-name="B" unicode="B" horiz-adv-x="1554" 
d="M264 1479h858q203 0 311.5 -89t108.5 -229q0 -148 -111.5 -249t-369.5 -134q202 -17 307 -111.5t105 -240.5q0 -132 -81 -233q-59 -75 -202.5 -134t-308.5 -59h-953l23 93h101q88 0 111 86l301 1112q5 19 5 37q0 26 -22 41t-80 15h-125zM649 812h199q90 0 160 31
q94 42 149.5 130t55.5 200q0 123 -77 176q-54 37 -198 37q-84 0 -113 -17t-42 -65zM622 720l-143 -529q-6 -22 -6 -42q0 -28 23 -42t92 -14h169q119 0 200 44t133 140.5t52 203.5q0 111 -74.5 175t-217.5 64h-228z" />
    <glyph glyph-name="C" unicode="C" horiz-adv-x="1554" 
d="M1441 1340q59 35 87 112h90l-114 -558h-88q-1 218 -39 314.5t-120 149.5t-194 53q-124 0 -242.5 -96t-210.5 -325t-92 -475q0 -143 45 -233.5t135 -142t201 -51.5q142 0 266 94.5t201 283.5l84 -38q-86 -227 -251.5 -342t-394.5 -115q-284 0 -449 160.5t-165 430.5
q0 263 115.5 490t303 344.5t406.5 117.5q136 0 237 -41t189 -133z" />
    <glyph glyph-name="D" unicode="D" horiz-adv-x="1706" 
d="M325 1479h723q310 0 474 -157t164 -437q0 -182 -71.5 -358t-182 -285.5t-284 -175.5t-389.5 -66h-761l25 93h82q84 0 109 94l304 1115q4 12 4 25q0 27 -23 42t-88 15h-115zM734 93q120 0 228 56t189 161.5t142 303t61 377.5q0 194 -100 302q-87 93 -269 93
q-82 0 -111 -18t-42 -64l-307 -1125q-4 -14 -4 -26q0 -29 18 -42q24 -18 71 -18h124z" />
    <glyph glyph-name="E" unicode="E" horiz-adv-x="1518" 
d="M311 1479h1262l-109 -481h-90q16 88 16 133q0 114 -70 183.5t-178 69.5h-219q-75 0 -99 -89l-133 -487h75q127 0 203 56.5t131 199.5h88l-178 -670h-87q14 84 14 140q0 88 -51.5 135.5t-140.5 47.5h-78l-144 -528q-5 -18 -5 -35q0 -30 22.5 -45.5t79.5 -15.5h153
q205 0 345 100t227 317h91l-159 -510h-1278l27 93h76q80 0 100 74l308 1128q4 16 4 30q0 28 -19.5 43.5t-64.5 15.5h-144z" />
    <glyph glyph-name="F" unicode="F" horiz-adv-x="1442" 
d="M319 1479h1250l-85 -480h-91q8 58 8 100q0 139 -78 212t-216 73h-181q-73 0 -99 -96l-126 -474h113q255 0 318 258h93l-182 -679h-93q23 78 23 138q0 92 -50 141t-141 49h-107l-148 -547q-3 -12 -3 -24q0 -27 19 -40q24 -17 73 -17h158l-25 -93h-744l22 93h84
q80 0 102 81l305 1114q4 17 4 34q0 29 -19 43q-25 19 -70 19h-139z" />
    <glyph glyph-name="G" unicode="G" horiz-adv-x="1669" 
d="M1451 1357q39 38 67 99h88l-88 -525h-87q-8 263 -101 378t-245 115q-137 0 -263 -99.5t-230.5 -355t-104.5 -491.5q0 -203 86.5 -307.5t230.5 -104.5q120 0 194 62.5t127.5 226.5t53.5 205q0 24 -16.5 35.5t-61.5 11.5h-98l20 88h640l-24 -88h-47q-87 0 -106 -68
l-149 -539h-74l-43 186q-104 -112 -224.5 -163.5t-267.5 -51.5q-245 0 -412.5 155.5t-167.5 435.5q0 249 127 476t333.5 351.5t448.5 124.5q138 0 228 -36.5t166 -120.5z" />
    <glyph glyph-name="H" unicode="H" horiz-adv-x="1782" 
d="M324 1479h722l-24 -95h-90q-88 0 -107 -70l-132 -491h579l130 477q3 12 3 23q0 28 -23 44.5t-77 16.5h-104l23 95h718l-24 -95h-87q-55 0 -82.5 -23t-44.5 -89l-297 -1112q-2 -8 -2 -15q0 -24 17 -35q26 -17 68 -17h121l-25 -93h-710l25 93h103q72 0 95 82l142 527h-579
l-147 -527q-3 -12 -3 -23q0 -28 19.5 -43.5t60.5 -15.5h132l-23 -93h-705l23 93h72q43 0 72 19.5t37 47.5l315 1154q4 14 -2.5 32t-27 28t-54.5 10h-131z" />
    <glyph glyph-name="I" unicode="I" horiz-adv-x="909" 
d="M330 1479h727l-24 -95h-85q-59 0 -84.5 -17.5t-36.5 -58.5l-301 -1129q-4 -16 -4 -28q0 -28 19 -40q29 -18 86 -18h108l-24 -93h-710l25 93h80q86 0 105 74l300 1124q5 19 5 36q0 27 -20.5 42t-71.5 15h-116z" />
    <glyph glyph-name="J" unicode="J" horiz-adv-x="1366" 
d="M804 1479h710l-25 -95h-64q-49 0 -75 -22t-42 -81l-205 -756q-61 -228 -137.5 -333.5t-204 -163t-294.5 -57.5q-196 0 -308.5 98.5t-112.5 244.5q0 133 84 222t201 89q84 0 139.5 -51.5t55.5 -125.5q0 -72 -48 -118t-129 -46q-57 0 -113 39q-35 24 -47 24
q-16 0 -29 -16.5t-13 -46.5q0 -83 75 -146.5t189 -63.5q127 0 214.5 78.5t138.5 269.5l237 888q3 11 3 22q0 25 -20 38.5t-75 13.5h-130z" />
    <glyph glyph-name="K" unicode="K" horiz-adv-x="1593" 
d="M324 1479h695l-27 -95h-79q-52 0 -79 -22t-43 -79l-161 -588l600 518q65 57 65 99q0 32 -27 52t-83 20h-39l24 95h574l-25 -95q-91 -7 -155.5 -36t-157.5 -110l-396 -337l346 -719q16 -34 37.5 -51.5t63.5 -29.5q27 -8 100 -8l-24 -93h-696l25 93h90q51 0 73 16t22 42
q0 20 -9 38l-247 520l-201 -173l-100 -362q-3 -11 -3 -23q0 -27 23 -42.5t80 -15.5h106l-25 -93h-712l24 93h60q60 0 89.5 21t42.5 68l304 1112q5 16 5 31q0 28 -23 43.5t-79 15.5h-81z" />
    <glyph glyph-name="L" unicode="L" horiz-adv-x="1442" 
d="M350 1479h761l-23 -95h-134q-49 0 -74 -20.5t-39 -72.5l-299 -1112q-3 -13 -3 -27q0 -28 18 -41q26 -18 74 -18h197q125 0 255 103t219 307h91l-142 -503h-1251l25 93h96q86 0 104 69l308 1138q3 13 3 26q0 27 -22 41q-28 17 -95 17h-93z" />
    <glyph glyph-name="M" unicode="M" horiz-adv-x="1933" 
d="M299 1479h535l108 -1074l674 1074h486l-26 -95h-60q-112 0 -135 -91l-287 -1117q-3 -13 -3 -25q0 -27 18 -40q23 -18 62 -18h132l-26 -93h-722l22 93h90q100 0 122 83l283 1037l-757 -1213h-119l-125 1204l-234 -862q-13 -48 -13 -89q0 -152 194 -160l-24 -93h-545l25 93
q85 6 142 61q78 77 108 188l259 951q6 19 6 34q0 27 -20.5 42t-69.5 15h-125z" />
    <glyph glyph-name="N" unicode="N" horiz-adv-x="1745" 
d="M388 1479h442l475 -1031l197 726q12 45 12 73q0 63 -42.5 100.5t-113.5 37.5h-43l25 94h510l-26 -94q-80 -4 -122 -43q-59 -55 -84 -149l-320 -1193h-109l-538 1174l-221 -817q-15 -57 -15 -93q0 -76 52.5 -122.5t152.5 -48.5l-22 -93h-570l23 93q99 4 161 56.5t87 145.5
l257 953q10 35 10 51q0 40 -33.5 63t-118.5 23h-51z" />
    <glyph glyph-name="O" unicode="O" horiz-adv-x="1706" 
d="M1073 1514q282 0 452 -165.5t170 -430.5q0 -226 -101 -434q-115 -238 -341.5 -375.5t-493.5 -137.5q-311 0 -465 181.5t-154 427.5q0 193 101 411.5t327 370.5t505 152zM1076 1418q-168 0 -304 -130t-230 -435q-74 -240 -74 -433q0 -174 81 -265t221 -91
q163 0 297.5 128.5t218 406.5t83.5 458q0 177 -79.5 269t-213.5 92z" />
    <glyph glyph-name="P" unicode="P" horiz-adv-x="1518" 
d="M300 1479h772q262 0 383.5 -99t121.5 -274q0 -201 -165.5 -329t-517.5 -128q-93 0 -255 16l-130 -486q-4 -15 -4 -28q0 -29 20.5 -43.5t75.5 -14.5h116l-25 -93h-722l23 93h83q92 0 112 72l308 1132q6 20 6 33q0 26 -24 40t-98 14h-104zM664 753q84 -14 148 -14
q152 0 244 46.5t146 147t54 230.5q0 110 -68 165.5t-231 55.5q-76 0 -105 -19.5t-45 -76.5z" />
    <glyph glyph-name="Q" unicode="Q" horiz-adv-x="1706" 
d="M1176 68q21 -218 51.5 -271.5t77.5 -53.5q33 0 59.5 24.5t49.5 91.5l59 -13q-26 -115 -107 -177.5t-207 -62.5q-123 0 -188.5 68t-65.5 194q0 38 9 114q-59 -5 -102.5 -8t-71.5 -3q-267 0 -433.5 165.5t-166.5 432.5q0 256 126.5 476.5t341.5 344.5t471 124
q278 0 447 -168t169 -442q0 -171 -62.5 -334.5t-175 -288.5t-281.5 -213zM1136 277q111 178 172.5 393t61.5 399q0 165 -82.5 260t-215.5 95q-141 0 -260 -96q-141 -112 -237 -350q-106 -265 -106 -531q0 -100 19 -178q16 130 101 204.5t222 74.5q129 0 212 -69.5
t113 -201.5zM933 101q19 100 19 154q0 92 -46 144t-119 52q-83 0 -144.5 -62t-61.5 -150q0 -86 51 -146q54 -28 131 -28q44 0 86.5 9t83.5 27z" />
    <glyph glyph-name="R" unicode="R" horiz-adv-x="1630" 
d="M284 1479h799q153 0 237 -23q119 -34 188 -120t69 -205q0 -108 -62 -193t-182 -133.5t-350 -53.5q115 -24 177.5 -78.5t91.5 -141t36 -318.5q3 -91 54 -91q69 0 144 158l71 -19q-108 -273 -340 -273q-118 0 -183.5 68t-65.5 189q0 55 12 158q11 96 11 128q0 93 -49 141.5
t-137 48.5h-153l-150 -553q-3 -9 -3 -18q0 -26 20 -41.5t63 -15.5h144l-21 -93h-740l25 93h84q50 0 76 21.5t40 69.5l300 1095q7 24 7 46q0 29 -20.5 44t-69.5 15h-148zM677 813h148q225 0 320 88q111 102 111 271q0 108 -62.5 162t-213.5 54q-101 0 -129.5 -17.5
t-43.5 -72.5z" />
    <glyph glyph-name="S" unicode="S" horiz-adv-x="1403" 
d="M1209 1359l115 91h87l-114 -511h-88q-4 181 -48 279t-126 152t-186 54q-134 0 -216 -73t-82 -182q0 -84 51 -132t307 -143q170 -64 238 -116.5t104.5 -130t36.5 -175.5q0 -139 -70 -254t-202 -181t-307 -66q-137 0 -240.5 37t-206.5 125l-83 -92h-92l115 531h89
q1 -184 49.5 -287.5t143.5 -160t221 -56.5q150 0 244 82t94 197q0 95 -71 152q-39 32 -277 127q-185 73 -248 120.5t-96.5 119t-33.5 170.5q0 208 140 343t362 135q111 0 204 -36t186 -119z" />
    <glyph glyph-name="T" unicode="T" horiz-adv-x="1479" 
d="M381 1479h1254l-131 -540h-92q29 135 29 218q0 116 -51.5 171.5t-153.5 55.5q-61 0 -88 -20t-41 -72l-301 -1111q-3 -13 -3 -28q0 -28 22.5 -44t72.5 -16h137l-24 -93h-797l23 93h144q89 0 116 97l299 1102q5 15 5 30q0 31 -21.5 46.5t-72.5 15.5q-101 0 -191 -81
q-127 -115 -247 -364h-87z" />
    <glyph glyph-name="U" unicode="U" horiz-adv-x="1706" 
d="M309 1479h734l-25 -94h-108q-83 0 -103 -73l-208 -774q-28 -104 -28 -171q0 -133 85.5 -211.5t229.5 -78.5q157 0 269.5 97t159.5 284l177 703q10 37 10 73q0 55 -19.5 87t-56.5 48t-119 16l26 94h526l-22 -94q-93 -5 -146 -48t-74 -127l-188 -752
q-43 -171 -124.5 -273.5t-202.5 -158t-290 -55.5q-267 0 -408 112.5t-141 289.5q0 95 29 202l200 727q4 14 4 27q0 27 -20.5 41.5t-70.5 14.5h-121z" />
    <glyph glyph-name="V" unicode="V" horiz-adv-x="1518" 
d="M236 1479h640l-24 -94h-53q-61 0 -87.5 -20.5t-26.5 -58.5q0 -16 4 -41l123 -914l521 819q36 57 36 111q0 50 -34.5 76t-127.5 28l27 94h515l-24 -94q-73 -5 -128 -41t-100 -106l-801 -1270h-133l-181 1316q-14 101 -117 101h-55z" />
    <glyph glyph-name="W" unicode="W" horiz-adv-x="1933" 
d="M204 1479h566l-24 -94h-34q-52 0 -75.5 -21.5t-23.5 -63.5l2 -34l76 -808l420 801q-2 71 -32 98.5t-104 27.5h-54l23 94h642l-23 -94h-71q-60 0 -83 -17.5t-23 -55.5l1 -19l77 -825l409 781q15 30 15 60q0 28 -11.5 45t-34.5 25q-16 6 -77 6l23 94h413l-21 -94
q-67 -2 -103.5 -28t-87.5 -122l-664 -1267h-90l-103 1099l-574 -1099h-94l-133 1319q-5 52 -31 75t-74 23h-42z" />
    <glyph glyph-name="X" unicode="X" horiz-adv-x="1518" 
d="M299 1479h675l-22 -95h-46q-60 0 -84.5 -16.5t-24.5 -42.5q0 -22 9 -43l146 -343l261 275q46 49 46 94q0 36 -24 56t-74 20h-42l20 95h550l-24 -95q-77 -1 -128.5 -25t-111.5 -87l-430 -447l256 -611q21 -48 42 -69q30 -29 66 -43q25 -9 91 -9l-25 -93h-670l26 93h57
q65 0 94.5 19.5t29.5 47.5q0 11 -10 33l-171 413l-292 -314q-49 -53 -49 -104q0 -41 34.5 -67t118.5 -28l-24 -93h-599l24 93q157 12 271 132l472 491l-248 589q-17 41 -51 60t-100 19h-64z" />
    <glyph glyph-name="Y" unicode="Y" horiz-adv-x="1442" 
d="M282 1479h623l-23 -95h-85q-53 0 -72.5 -11.5t-19.5 -27.5q0 -14 10 -39l214 -528l319 426q38 51 38 95q0 37 -30 59t-114 26l26 95h483l-26 -95q-68 -8 -108.5 -32t-83.5 -81l-437 -589l-137 -505q-3 -13 -3 -25q0 -28 21 -43.5t67 -15.5h116l-24 -93h-736l29 93h107
q89 0 109 71l132 486l-268 656q-19 47 -41.5 62.5t-67.5 15.5h-39z" />
    <glyph glyph-name="Z" unicode="Z" horiz-adv-x="1442" 
d="M477 1479h1048v-84l-1085 -1302h302q115 0 204.5 40.5t164.5 124.5t162 269l81 -34l-151 -493h-1173v45l1122 1339h-229q-166 0 -285 -89t-246 -344l-84 33z" />
    <glyph glyph-name="bracketleft" unicode="[" horiz-adv-x="834" 
d="M513 1479h454l-23 -84h-94q-54 0 -83.5 -24.5t-45.5 -83.5l-386 -1449q-9 -33 -9 -47q0 -29 19.5 -43.5t75.5 -14.5h84l-24 -92h-460z" />
    <glyph glyph-name="backslash" unicode="\" horiz-adv-x="1241" 
d="M358 1479l790 -1479h-181l-790 1479h181z" />
    <glyph glyph-name="bracketright" unicode="]" horiz-adv-x="834" 
d="M359 1479h458l-489 -1838h-457l25 90h107q49 0 74 20t37 68l395 1476q6 22 6 38q0 28 -22 45t-71 17h-87z" />
    <glyph glyph-name="asciicircum" unicode="^" horiz-adv-x="1241" 
d="M475 761h-202l411 718h66l411 -718h-210l-239 418z" />
    <glyph glyph-name="underscore" unicode="_" horiz-adv-x="1024" 
d="M-12 -154h1048v-102h-1048v102z" />
    <glyph glyph-name="grave" unicode="`" horiz-adv-x="682" 
d="M710 1132l-33 -27l-301 139q-106 48 -106 120q0 41 37.5 74.5t88.5 33.5q79 0 170 -133z" />
    <glyph glyph-name="a" unicode="a" horiz-adv-x="1366" 
d="M894 795l54 144l256 19l-198 -714q-20 -73 -20 -93q0 -15 6.5 -23t19.5 -8q74 0 192 233l75 -41q-175 -341 -382 -341q-71 0 -110 43.5t-46 129.5q-76 -96 -147.5 -134.5t-151.5 -38.5q-137 0 -226 98.5t-89 269.5q0 164 79.5 314t204.5 233.5t256 83.5q90 0 145 -42
t82 -133zM725 849q-122 0 -219.5 -171t-97.5 -392q0 -103 31 -145.5t89 -42.5q61 0 131 61.5t124 206t54 307.5q0 97 -29.5 136.5t-82.5 39.5z" />
    <glyph glyph-name="b" unicode="b" horiz-adv-x="1251" 
d="M297 1479l427 16l-193 -669q88 94 158.5 128.5t155.5 34.5q135 0 220.5 -95t85.5 -259q0 -175 -89.5 -333t-235 -244.5t-316.5 -86.5q-114 0 -197.5 41.5t-129 118.5t-45.5 171q0 62 15 116l249 871q5 19 5 37q0 28 -21.5 43.5t-73.5 15.5h-44zM722 841q-61 0 -123 -55
q-86 -77 -148.5 -238t-62.5 -314q0 -89 37 -132.5t99 -43.5q68 0 130 54q84 73 142 222.5t58 315.5q0 100 -35.5 145.5t-96.5 45.5z" />
    <glyph glyph-name="c" unicode="c" horiz-adv-x="1100" 
d="M893 265l69 -54q-95 -117 -216 -178.5t-251 -61.5q-181 0 -289 107t-108 284q0 161 85.5 311t222.5 233t295 83q151 0 232.5 -69t81.5 -175q0 -79 -44 -126.5t-110 -47.5q-60 0 -98.5 35.5t-38.5 89.5q0 37 19 62t90 63q22 11 22 23q0 18 -27 34q-37 22 -91 22
q-131 0 -225 -134q-119 -170 -119 -430q0 -124 53.5 -185.5t140.5 -61.5q150 0 306 176z" />
    <glyph glyph-name="d" unicode="d" horiz-adv-x="1366" 
d="M904 1479l459 18l-372 -1301q-8 -29 -8 -47q0 -19 8.5 -28.5t23.5 -9.5q79 0 219 242l72 -39q-89 -179 -194 -261t-206 -82q-73 0 -115.5 43.5t-54.5 130.5q-87 -97 -162 -135.5t-157 -38.5q-145 0 -240.5 102t-95.5 267q0 162 84 326t202 243.5t253 79.5q97 0 166 -40.5
t118 -127.5l142 483q4 15 4 29q0 24 -25.5 39.5t-91.5 15.5h-58zM708 863q-71 0 -128 -50q-81 -70 -145 -225.5t-64 -296.5q0 -96 36.5 -142t96.5 -46q77 0 150 76q93 95 150 282q43 141 43 234q0 80 -38.5 124t-100.5 44z" />
    <glyph glyph-name="e" unicode="e" horiz-adv-x="1063" 
d="M372 369q-4 -38 -4 -63q0 -106 52 -163t139 -57q73 0 143.5 35t172.5 139l67 -52q-117 -129 -229.5 -183t-242.5 -54q-184 0 -289.5 105.5t-105.5 286.5q0 161 88 308.5t240.5 232.5t328.5 85q129 0 200 -62t71 -157q0 -79 -57 -158.5t-185 -138t-389 -104.5zM384 452
q171 33 249 106q107 101 107 227q0 52 -24.5 81.5t-61.5 29.5q-74 0 -138 -89q-94 -129 -132 -355z" />
    <glyph glyph-name="f" unicode="f" horiz-adv-x="797" 
d="M596 939h210l-29 -104h-208l-181 -753q-55 -232 -129 -414q-114 -16 -245 -50q-44 -12 -53 -12q-16 0 -16 16q0 10 10 30q65 128 105 243q76 216 107 344l144 596h-166l31 104h162q166 575 523 575q93 0 146 -45.5t53 -112.5q0 -56 -37.5 -95t-91.5 -39q-51 0 -80 29.5
t-36 100.5q-7 62 -35 62q-37 0 -67 -55q-47 -88 -117 -420z" />
    <glyph glyph-name="g" unicode="g" horiz-adv-x="1251" 
d="M903 958q115 108 233 108q64 0 99 -29.5t35 -77.5q0 -42 -27.5 -70t-66.5 -28q-44 0 -82 51q-17 23 -23 27q-8 5 -20 5q-33 0 -66 -31q63 -43 94 -100t31 -128q0 -154 -115 -252.5t-343 -98.5q-46 0 -132 7q-59 5 -90 5q-101 0 -155 -29q-33 -18 -33 -51q0 -36 48 -48
q32 -8 238 -17q206 -8 268 -20q110 -23 168.5 -83.5t58.5 -147.5q0 -92 -61.5 -172.5t-191.5 -126t-359 -45.5q-197 0 -298.5 27t-143.5 73.5t-42 98.5q0 65 59.5 114t227.5 81q-70 20 -108.5 68.5t-38.5 109.5q0 84 64 148t198 90q-127 84 -127 221q0 147 126 249.5
t351 102.5q58 0 114 -7.5t110 -23.5zM696 910q-94 0 -160.5 -85.5t-66.5 -231.5q0 -92 39.5 -135.5t113.5 -43.5q90 0 146 74q73 96 73 238q0 95 -37.5 139.5t-107.5 44.5zM497 -29q-177 0 -260 -48q-58 -35 -58 -103q0 -60 51 -91q72 -44 220 -44q173 0 255 51t82 117
q0 55 -57.5 86.5t-232.5 31.5z" />
    <glyph glyph-name="h" unicode="h" horiz-adv-x="1403" 
d="M331 1479l455 19l-227 -790q115 154 218 217.5t207 63.5q93 0 151.5 -59t58.5 -150q0 -80 -32 -180l-132 -408q-7 -23 -7 -43q0 -18 8.5 -27t22.5 -9q83 0 196 243l81 -27q-80 -185 -179.5 -267t-202.5 -82q-82 0 -129.5 46t-47.5 121q0 72 53 230q77 227 93 292.5
t16 100.5q0 36 -19.5 56.5t-52.5 20.5q-98 0 -228.5 -167t-199.5 -407l-77 -273l-267 -8l374 1306q5 15 5 30q0 26 -23 41.5t-80 15.5h-62z" />
    <glyph glyph-name="i" unicode="i" horiz-adv-x="797" 
d="M544 1480q68 0 116 -48t48 -116t-48 -116t-116 -48t-116 48t-48 116t48 116t116 48zM183 939l453 19l-215 -742q-14 -50 -14 -73q0 -18 7 -27.5t20 -9.5q29 0 74 43q75 71 147 201l73 -42q-187 -337 -411 -337q-76 0 -120 45t-44 123q0 54 14 102l149 518q5 14 5 29
q0 28 -23 44.5t-79 16.5h-64z" />
    <glyph glyph-name="j" unicode="j" horiz-adv-x="758" 
d="M535 1481q68 0 116 -48t48 -116q0 -69 -48 -117t-116 -48t-116.5 48t-48.5 117q0 68 48.5 116t116.5 48zM649 958l-193 -810q-48 -201 -122 -313t-177.5 -170.5t-217.5 -58.5q-99 0 -151 42t-52 110q0 55 36.5 91.5t91.5 36.5q49 0 75.5 -28.5t27.5 -90.5q1 -44 8 -55
t24 -11q39 0 71 55q51 86 127 402l148 609q3 14 3 26q0 24 -25.5 40.5t-89.5 16.5h-53l25 89z" />
    <glyph glyph-name="k" unicode="k" horiz-adv-x="1327" 
d="M334 1479l453 19l-231 -803q146 174 250 234t212 60q103 0 162.5 -54.5t59.5 -139.5q0 -67 -39 -130.5t-124.5 -115.5t-262.5 -101q59 -29 82 -51.5t34 -49.5q7 -18 28 -137q10 -53 18 -64.5t22 -11.5q24 0 57 33q51 49 104 151l78 -40q-81 -158 -175 -228.5t-186 -70.5
q-81 0 -122 44t-41 139q0 40 10 111q11 77 11 105q0 25 -6 33.5t-18 8.5l-27 -3l-25 -3q-32 0 -50 14.5t-18 34.5q0 22 16.5 36t46.5 14l39 -3q30 -3 47 -3q103 0 183 75q79 74 79 163q0 50 -25.5 77t-72.5 27q-62 0 -132 -47q-99 -68 -191.5 -217t-149.5 -332l-78 -253
l-262 -8l381 1315q3 10 3 21q0 24 -22 39q-29 21 -71 21h-78z" />
    <glyph glyph-name="l" unicode="l" horiz-adv-x="797" 
d="M333 1479l455 19l-366 -1269q-16 -56 -16 -80q0 -18 6.5 -27t18.5 -9q26 0 59 33q68 68 140 196l74 -39q-90 -176 -192 -254t-200 -78q-75 0 -117 43.5t-42 122.5q0 68 21 140l289 1007q8 29 8 51q0 28 -24 44t-90 16h-50z" />
    <glyph glyph-name="m" unicode="m" horiz-adv-x="1933" 
d="M1118 708q94 134 199.5 198t207.5 64t158.5 -54.5t56.5 -146.5q0 -70 -24 -146l-140 -431q-4 -15 -4 -29q0 -32 27 -32q65 0 195 216l70 -46q-181 -321 -390 -321q-76 0 -118.5 44t-42.5 128q0 40 14 84l119 366q33 101 33 148q0 37 -20.5 59.5t-51.5 22.5
q-48 0 -104 -39q-77 -54 -149 -175t-117 -271l-103 -347l-265 -7l184 630q17 61 17 117q0 45 -20 69.5t-52 24.5q-77 0 -185.5 -119t-171.5 -336l-108 -379l-267 -7l217 754q6 22 6 39q0 29 -23.5 45t-86.5 16h-45l26 92l428 19l-64 -244q116 147 208.5 201.5t186.5 54.5
q96 0 150.5 -52t54.5 -139q0 -25 -6 -71z" />
    <glyph glyph-name="n" unicode="n" horiz-adv-x="1403" 
d="M1248 355l81 -25q-74 -182 -173 -266.5t-202 -84.5q-86 0 -134 46.5t-48 125.5q0 70 52 224q76 230 89 283.5t13 86.5q0 37 -18.5 58t-46.5 21q-51 0 -108 -41q-95 -66 -180 -199t-127 -274l-90 -310l-266 -9l224 772q3 12 3 23q0 29 -23 44.5t-87 15.5h-58l28 93l437 19
l-73 -281q220 293 429 293q95 0 155.5 -61t60.5 -153q0 -74 -32 -176l-106 -337q-25 -79 -25 -100q0 -15 7.5 -22.5t21.5 -7.5q34 0 72 40q64 69 124 202z" />
    <glyph glyph-name="o" unicode="o" horiz-adv-x="1176" 
d="M667 989q193 0 314.5 -119t121.5 -302q0 -231 -164.5 -414t-432.5 -183q-196 0 -317 118.5t-121 303.5q0 158 81.5 300t215.5 219t302 77zM677 905q-78 0 -140 -67q-86 -92 -141 -283t-55 -307q0 -91 43.5 -139.5t114.5 -48.5q68 0 120 48q76 72 144 258.5t68 347.5
q0 90 -43.5 140.5t-110.5 50.5z" />
    <glyph glyph-name="p" unicode="p" horiz-adv-x="1327" 
d="M564 773q82 107 162.5 152t173.5 45q134 0 223 -95.5t89 -255.5q0 -229 -148 -422q-169 -219 -400 -219q-97 0 -166 45t-101 127l-95 -336q-8 -25 -8 -38q0 -32 21 -47.5t82 -15.5h62l-29 -94h-610l28 94h76q45 0 72 23.5t43 77.5l274 953q3 11 3 21q0 29 -21.5 45
t-69.5 16h-76l28 90l435 19zM785 835q-59 0 -118 -52q-82 -72 -146 -226t-64 -278q0 -84 39 -127.5t103 -43.5q124 0 223 184.5t99 360.5q0 90 -37.5 136t-98.5 46z" />
    <glyph glyph-name="q" unicode="q" horiz-adv-x="1290" 
d="M1005 830l141 157h88l-338 -1176q-8 -25 -8 -39q0 -31 25 -48.5t92 -17.5h48l-25 -87h-626l26 87h92q81 0 104 78l99 338q-94 -89 -162.5 -120t-150.5 -31q-140 0 -228 95.5t-88 256.5q0 173 87.5 330t234.5 246.5t306 89.5q99 0 169.5 -39.5t113.5 -119.5zM733 900
q-133 0 -238.5 -202.5t-105.5 -409.5q0 -94 36.5 -138t97.5 -44q68 0 127 54q84 75 151.5 244t67.5 322q0 86 -37 130t-99 44z" />
    <glyph glyph-name="r" unicode="r" horiz-adv-x="1063" 
d="M175 937l391 21l-96 -429q98 239 179 324q113 117 258 117q83 0 132.5 -46.5t49.5 -120.5q0 -71 -42.5 -118.5t-98.5 -47.5q-49 0 -83 32.5t-34 78.5q0 26 9 59q3 11 3 17q0 11 -9 19.5t-22 8.5q-39 0 -92 -41.5t-121 -179.5q-92 -189 -149 -383l-72 -248l-268 -11
l150 528q41 147 41 233q0 60 -28 81t-124 20z" />
    <glyph glyph-name="s" unicode="s" horiz-adv-x="985" 
d="M153 642q0 148 121.5 247.5t326.5 99.5q168 0 254 -63t86 -155q0 -60 -36 -97.5t-91 -37.5q-52 0 -86 33t-34 81q0 31 25 75q12 21 12 30q0 21 -27 37.5t-87 16.5q-98 0 -159.5 -51.5t-61.5 -118.5q0 -43 28.5 -67t191.5 -81q122 -42 167 -74t70 -82.5t25 -110.5
q0 -95 -53 -176.5t-155 -129t-247 -47.5q-200 0 -299.5 70t-99.5 179q0 66 41 109t100 43q52 0 86 -33t34 -85q0 -41 -37 -87q-17 -21 -17 -33q0 -28 36 -49q47 -28 130 -28q107 0 170.5 51.5t63.5 123.5q0 42 -28 70t-127 60q-211 68 -267 124.5t-56 155.5z" />
    <glyph glyph-name="t" unicode="t" horiz-adv-x="834" 
d="M444 1261h264l-92 -322h208l-31 -104h-206l-177 -614q-8 -27 -8 -52q0 -30 12 -45t32 -15q79 0 231 233l73 -46q-99 -168 -208 -246.5t-209 -78.5q-88 0 -139 49.5t-51 128.5q0 60 20 132l160 554h-191l31 104h189z" />
    <glyph glyph-name="u" unicode="u" horiz-adv-x="1403" 
d="M643 958l-197 -600q-35 -106 -35 -155q0 -44 19 -65.5t53 -21.5q85 0 207 127.5t205 378.5l104 317h265l-234 -721q-15 -47 -15 -71q0 -18 7 -27t21 -9q80 0 208 233l75 -33q-93 -189 -190.5 -264.5t-204.5 -75.5q-81 0 -123.5 43t-42.5 126q0 39 12 92
q-193 -254 -427 -254q-96 0 -149 54t-53 146q0 83 42 211l122 378q4 11 4 22q0 27 -25 43.5t-86 16.5h-53l26 90z" />
    <glyph glyph-name="v" unicode="v" horiz-adv-x="1139" 
d="M118 846l28 93l435 19l-131 -451q-48 -167 -48 -264q0 -73 40.5 -115.5t101.5 -42.5q80 0 174.5 72t166.5 213t72 259q0 36 -11 59.5t-42 49.5q-54 46 -68.5 71t-14.5 55q0 42 33 74t82 32q61 0 102.5 -52t41.5 -145q0 -168 -80.5 -363.5t-220 -317t-317.5 -121.5
q-148 0 -233 82t-85 221q0 78 29 180l86 304q5 15 5 30q0 27 -22.5 42.5t-74.5 15.5h-49z" />
    <glyph glyph-name="w" unicode="w" horiz-adv-x="1706" 
d="M786 260q-187 -289 -446 -289q-100 0 -159 55.5t-59 139.5q0 70 23 141l143 441q6 19 6 35q0 31 -29.5 47t-133.5 16l27 93l466 19l-194 -594q-43 -134 -43 -184q0 -40 19.5 -61.5t51.5 -21.5q67 0 145 72q111 103 186 284q36 87 153 486h262l-129 -454
q-43 -153 -43 -251q0 -71 29 -106.5t76 -35.5q62 0 124 54q93 80 162.5 226t69.5 257q0 36 -14 66q-11 22 -50 53q-43 36 -57 60t-14 53q0 46 32.5 77.5t82.5 31.5q60 0 101 -52.5t41 -144.5q0 -160 -78 -356q-89 -223 -215.5 -334.5t-283.5 -111.5q-123 0 -189 63t-66 173z
" />
    <glyph glyph-name="x" unicode="x" horiz-adv-x="1176" 
d="M661 657q127 210 204 271t155 61q68 0 111 -40t43 -102q0 -63 -37 -101.5t-94 -38.5q-80 0 -114 84q-13 32 -29 32q-18 0 -36 -20.5t-164 -247.5l112 -333q16 -46 35 -69t41 -23q76 0 179 182l69 -39q-84 -155 -182 -228.5t-191 -73.5q-85 0 -135 60q-28 35 -102 242
q-111 -179 -182.5 -240.5t-161.5 -61.5q-79 0 -126.5 44t-47.5 110q0 60 37.5 99t93.5 39q43 0 71 -20t49 -74q17 -42 33 -42q27 0 76.5 64t122.5 191l-118 344q-32 93 -66 93q-58 0 -130 -169l-65 42q58 156 138.5 226.5t166.5 70.5q60 0 102 -30.5t73 -98.5
q11 -24 69 -203z" />
    <glyph glyph-name="y" unicode="y" horiz-adv-x="1063" 
d="M675 284q85 123 131.5 239.5t46.5 159.5q0 24 -16 67q-32 79 -32 118q0 55 32 88t84 33q51 0 82 -33t31 -87q0 -103 -108 -325q-148 -304 -332 -543t-327 -328q-107 -67 -205 -67q-89 0 -143 46t-54 114q0 59 38 97t97 38q50 0 81 -35t32 -102q0 -29 7 -39t21 -10
q25 0 73 24t116 91q88 88 153 178l-51 231q-71 322 -95 396q-40 127 -78 164q-19 18 -37 18q-25 0 -48.5 -26t-66.5 -135l-78 33q120 300 293 300q94 0 158 -97q80 -122 195 -608z" />
    <glyph glyph-name="z" unicode="z" horiz-adv-x="1063" 
d="M170 190q135 52 194.5 66t111.5 14q56 0 142 -30q124 -42 162 -42q42 0 75 23t83 102l64 -41q-80 -169 -173.5 -240t-203.5 -71q-46 0 -98.5 12.5t-155.5 55.5q-99 41 -143 53t-101 17l-21 -97q-5 -26 -14 -32q-11 -9 -41 -9q-29 0 -39.5 9t-10.5 30q0 68 54 165
t175 192.5t392 231.5q134 68 182.5 100.5t93.5 79.5q-113 -56 -207 -56q-69 0 -201 38q-101 29 -149 29q-46 0 -79.5 -21.5t-78.5 -91.5l-70 37q89 152 181 213.5t199 61.5q35 0 63 -6t102 -32q172 -63 236 -63t90 68q14 33 32 33q22 0 36.5 -14t14.5 -33q0 -50 -55 -139
q-75 -124 -217.5 -230.5t-425.5 -242.5q-93 -44 -139 -78q-31 -23 -60 -62z" />
    <glyph glyph-name="braceleft" unicode="{" horiz-adv-x="834" 
d="M192 538l16 62q90 16 154 65.5t89 119.5q16 46 22 172q8 152 24 204q27 92 112 181.5t199 135.5q87 35 232 40l-14 -50q-96 -17 -148 -55.5t-77.5 -97t-30.5 -190.5q-5 -151 -29.5 -221t-84.5 -137.5t-150 -118.5t-219 -82q140 -36 208 -109.5t68 -163.5q0 -53 -17 -115
q-13 -46 -68 -157q-55 -109 -68.5 -153.5t-13.5 -79.5q0 -43 37.5 -77t109.5 -47l-13 -49q-163 0 -276 88q-89 70 -89 179q0 54 15 103.5t84 192.5q51 106 62 142t11 64q0 55 -37.5 96.5t-107.5 57.5z" />
    <glyph glyph-name="bar" unicode="|" horiz-adv-x="1241" 
d="M599 1479h189v-1860h-189v1860z" />
    <glyph glyph-name="braceright" unicode="}" horiz-adv-x="834" 
d="M733 597l-16 -62q-90 -16 -154.5 -66t-88.5 -121q-17 -46 -23 -171q-7 -150 -22 -203q-28 -92 -112 -181.5t-187.5 -131.5t-244.5 -46l14 51q96 17 148 55t77.5 97t30.5 191q5 151 29.5 221t84 137.5t149.5 119t220 81.5q-103 27 -161 68.5t-86.5 93t-28.5 112.5
q0 52 17 114q13 47 68 156q54 109 67.5 153.5t13.5 78.5q0 44 -37 78t-109 47l13 49q162 0 275 -88q89 -69 89 -179q0 -55 -14.5 -103.5t-83.5 -191.5q-51 -106 -62.5 -141.5t-11.5 -64.5q0 -55 38 -96.5t108 -56.5z" />
    <glyph glyph-name="asciitilde" unicode="~" horiz-adv-x="1241" 
d="M1210 855h65q-7 -169 -86 -258t-195 -89q-56 0 -120 18t-265 102q-144 61 -213 61q-143 0 -172 -180h-64q8 175 84.5 261t193.5 86q58 0 123 -18q99 -28 263 -101q93 -40 143 -55q31 -8 68 -8q71 0 118.5 46.5t56.5 134.5z" />
    <glyph glyph-name="Adieresis" unicode="&#xc4;" horiz-adv-x="1518" 
d="M985 1479h135l179 -1275q8 -58 38 -80q42 -31 112 -31h46l-25 -93h-680l23 93h50q79 0 107.5 19.5t28.5 59.5q0 14 -3 32l-37 266h-501l-99 -154q-41 -65 -41 -119q0 -49 32.5 -76.5t99.5 -27.5h41l-23 -93h-531l23 93q69 4 109 32q77 53 116 113zM871 1110l-342 -529
h415zM900 1944q55 0 94 -39.5t39 -95.5t-39 -95t-94 -39q-56 0 -95 39t-39 95q0 55 40 95t94 40zM1302 1944q55 0 94 -39.5t39 -95.5q0 -55 -39 -94.5t-94 -39.5t-94.5 39t-39.5 95q0 55 40 95t94 40z" />
    <glyph glyph-name="Aring" unicode="&#xc5;" horiz-adv-x="1518" 
d="M985 1479h135l179 -1275q8 -58 38 -80q42 -31 112 -31h46l-25 -93h-680l23 93h50q79 0 107.5 19.5t28.5 59.5q0 14 -3 32l-37 266h-501l-99 -154q-41 -65 -41 -119q0 -49 32.5 -76.5t99.5 -27.5h41l-23 -93h-531l23 93q69 4 109 32q77 53 116 113zM871 1110l-342 -529
h415zM1094 2018q88 0 149.5 -61.5t61.5 -147.5q0 -87 -62 -148.5t-148 -61.5q-87 0 -148.5 61.5t-61.5 148.5t61.5 148t147.5 61zM1092 1925q-48 0 -82 -34t-34 -82t34 -82.5t82 -34.5t82.5 34.5t34.5 82.5t-34 82t-83 34z" />
    <glyph glyph-name="Ccedilla" unicode="&#xc7;" horiz-adv-x="1554" 
d="M1441 1340q59 35 87 112h90l-114 -558h-88q-1 218 -39 314.5t-120 149.5t-194 53q-124 0 -242.5 -96t-210.5 -325t-92 -475q0 -143 45 -233.5t135 -142t201 -51.5q142 0 266 94.5t201 283.5l84 -38q-86 -227 -251.5 -342t-394.5 -115q-284 0 -449 160.5t-165 430.5
q0 263 115.5 490t303 344.5t406.5 117.5q136 0 237 -41t189 -133zM848 -21q106 -52 106 -144q0 -63 -46 -115.5t-144.5 -78t-354.5 -32.5l29 87q142 6 187.5 31t45.5 62q0 50 -86 75l192 156h114z" />
    <glyph glyph-name="Eacute" unicode="&#xc9;" horiz-adv-x="1518" 
d="M311 1479h1262l-109 -481h-90q16 88 16 133q0 114 -70 183.5t-178 69.5h-219q-75 0 -99 -89l-133 -487h75q127 0 203 56.5t131 199.5h88l-178 -670h-87q14 84 14 140q0 88 -51.5 135.5t-140.5 47.5h-78l-144 -528q-5 -18 -5 -35q0 -30 22.5 -45.5t79.5 -15.5h153
q205 0 345 100t227 317h91l-159 -510h-1278l27 93h76q80 0 100 74l308 1128q4 16 4 30q0 28 -19.5 43.5t-64.5 15.5h-144zM845 1624l-30 26l132 189q68 97 107.5 126t81.5 29q49 0 83.5 -33t34.5 -77q0 -71 -113 -123z" />
    <glyph glyph-name="Ntilde" unicode="&#xd1;" horiz-adv-x="1745" 
d="M388 1479h442l475 -1031l197 726q12 45 12 73q0 63 -42.5 100.5t-113.5 37.5h-43l25 94h510l-26 -94q-80 -4 -122 -43q-59 -55 -84 -149l-320 -1193h-109l-538 1174l-221 -817q-15 -57 -15 -93q0 -76 52.5 -122.5t152.5 -48.5l-22 -93h-570l23 93q99 4 161 56.5t87 145.5
l257 953q10 35 10 51q0 40 -33.5 63t-118.5 23h-51zM1541 1945h24q-13 -130 -77.5 -199t-150.5 -69q-71 0 -185 47q-100 43 -142 43q-80 0 -108 -90h-28q5 120 70.5 193.5t152.5 73.5q63 0 180 -49q98 -40 145 -40q81 0 119 90z" />
    <glyph glyph-name="Odieresis" unicode="&#xd6;" horiz-adv-x="1706" 
d="M1073 1514q282 0 452 -165.5t170 -430.5q0 -226 -101 -434q-115 -238 -341.5 -375.5t-493.5 -137.5q-311 0 -465 181.5t-154 427.5q0 193 101 411.5t327 370.5t505 152zM1076 1418q-168 0 -304 -130t-230 -435q-74 -240 -74 -433q0 -174 81 -265t221 -91
q163 0 297.5 128.5t218 406.5t83.5 458q0 177 -79.5 269t-213.5 92zM922 1944q55 0 94 -39.5t39 -95.5t-39 -95t-94 -39q-56 0 -95 39t-39 95q0 55 40 95t94 40zM1324 1944q55 0 94 -39.5t39 -95.5q0 -55 -39 -94.5t-94 -39.5t-94.5 39t-39.5 95q0 55 40 95t94 40z" />
    <glyph glyph-name="Udieresis" unicode="&#xdc;" horiz-adv-x="1706" 
d="M309 1479h734l-25 -94h-108q-83 0 -103 -73l-208 -774q-28 -104 -28 -171q0 -133 85.5 -211.5t229.5 -78.5q157 0 269.5 97t159.5 284l177 703q10 37 10 73q0 55 -19.5 87t-56.5 48t-119 16l26 94h526l-22 -94q-93 -5 -146 -48t-74 -127l-188 -752
q-43 -171 -124.5 -273.5t-202.5 -158t-290 -55.5q-267 0 -408 112.5t-141 289.5q0 95 29 202l200 727q4 14 4 27q0 27 -20.5 41.5t-70.5 14.5h-121zM962 1944q55 0 94 -39.5t39 -95.5t-39 -95t-94 -39q-56 0 -95 39t-39 95q0 55 40 95t94 40zM1364 1944q55 0 94 -39.5
t39 -95.5q0 -55 -39 -94.5t-94 -39.5t-94.5 39t-39.5 95q0 55 40 95t94 40z" />
    <glyph glyph-name="aacute" unicode="&#xe1;" horiz-adv-x="1366" 
d="M894 795l54 144l256 19l-198 -714q-20 -73 -20 -93q0 -15 6.5 -23t19.5 -8q74 0 192 233l75 -41q-175 -341 -382 -341q-71 0 -110 43.5t-46 129.5q-76 -96 -147.5 -134.5t-151.5 -38.5q-137 0 -226 98.5t-89 269.5q0 164 79.5 314t204.5 233.5t256 83.5q90 0 145 -42
t82 -133zM725 849q-122 0 -219.5 -171t-97.5 -392q0 -103 31 -145.5t89 -42.5q61 0 131 61.5t124 206t54 307.5q0 97 -29.5 136.5t-82.5 39.5zM677 1104l-30 26l132 189q68 97 107.5 126t81.5 29q49 0 83.5 -33t34.5 -77q0 -71 -113 -123z" />
    <glyph glyph-name="agrave" unicode="&#xe0;" horiz-adv-x="1366" 
d="M894 795l54 144l256 19l-198 -714q-20 -73 -20 -93q0 -15 6.5 -23t19.5 -8q74 0 192 233l75 -41q-175 -341 -382 -341q-71 0 -110 43.5t-46 129.5q-76 -96 -147.5 -134.5t-151.5 -38.5q-137 0 -226 98.5t-89 269.5q0 164 79.5 314t204.5 233.5t256 83.5q90 0 145 -42
t82 -133zM725 849q-122 0 -219.5 -171t-97.5 -392q0 -103 31 -145.5t89 -42.5q61 0 131 61.5t124 206t54 307.5q0 97 -29.5 136.5t-82.5 39.5zM992 1132l-33 -27l-301 139q-106 48 -106 120q0 41 37.5 74.5t88.5 33.5q79 0 170 -133z" />
    <glyph glyph-name="acircumflex" unicode="&#xe2;" horiz-adv-x="1366" 
d="M894 795l54 144l256 19l-198 -714q-20 -73 -20 -93q0 -15 6.5 -23t19.5 -8q74 0 192 233l75 -41q-175 -341 -382 -341q-71 0 -110 43.5t-46 129.5q-76 -96 -147.5 -134.5t-151.5 -38.5q-137 0 -226 98.5t-89 269.5q0 164 79.5 314t204.5 233.5t256 83.5q90 0 145 -42
t82 -133zM725 849q-122 0 -219.5 -171t-97.5 -392q0 -103 31 -145.5t89 -42.5q61 0 131 61.5t124 206t54 307.5q0 97 -29.5 136.5t-82.5 39.5zM832 1479h213l88 -378h-34l-185 206l-425 -206h-39z" />
    <glyph glyph-name="adieresis" unicode="&#xe4;" horiz-adv-x="1366" 
d="M894 795l54 144l256 19l-198 -714q-20 -73 -20 -93q0 -15 6.5 -23t19.5 -8q74 0 192 233l75 -41q-175 -341 -382 -341q-71 0 -110 43.5t-46 129.5q-76 -96 -147.5 -134.5t-151.5 -38.5q-137 0 -226 98.5t-89 269.5q0 164 79.5 314t204.5 233.5t256 83.5q90 0 145 -42
t82 -133zM725 849q-122 0 -219.5 -171t-97.5 -392q0 -103 31 -145.5t89 -42.5q61 0 131 61.5t124 206t54 307.5q0 97 -29.5 136.5t-82.5 39.5zM684 1424q55 0 94 -39.5t39 -95.5t-39 -95t-94 -39q-56 0 -95 39t-39 95q0 55 40 95t94 40zM1086 1424q55 0 94 -39.5t39 -95.5
q0 -55 -39 -94.5t-94 -39.5t-94.5 39t-39.5 95q0 55 40 95t94 40z" />
    <glyph glyph-name="atilde" unicode="&#xe3;" horiz-adv-x="1366" 
d="M894 795l54 144l256 19l-198 -714q-20 -73 -20 -93q0 -15 6.5 -23t19.5 -8q74 0 192 233l75 -41q-175 -341 -382 -341q-71 0 -110 43.5t-46 129.5q-76 -96 -147.5 -134.5t-151.5 -38.5q-137 0 -226 98.5t-89 269.5q0 164 79.5 314t204.5 233.5t256 83.5q90 0 145 -42
t82 -133zM725 849q-122 0 -219.5 -171t-97.5 -392q0 -103 31 -145.5t89 -42.5q61 0 131 61.5t124 206t54 307.5q0 97 -29.5 136.5t-82.5 39.5zM1179 1425h24q-13 -130 -77.5 -199t-150.5 -69q-71 0 -185 47q-100 43 -142 43q-80 0 -108 -90h-28q5 120 70.5 193.5t152.5 73.5
q63 0 180 -49q98 -40 145 -40q81 0 119 90z" />
    <glyph glyph-name="aring" unicode="&#xe5;" horiz-adv-x="1366" 
d="M894 795l54 144l256 19l-198 -714q-20 -73 -20 -93q0 -15 6.5 -23t19.5 -8q74 0 192 233l75 -41q-175 -341 -382 -341q-71 0 -110 43.5t-46 129.5q-76 -96 -147.5 -134.5t-151.5 -38.5q-137 0 -226 98.5t-89 269.5q0 164 79.5 314t204.5 233.5t256 83.5q90 0 145 -42
t82 -133zM725 849q-122 0 -219.5 -171t-97.5 -392q0 -103 31 -145.5t89 -42.5q61 0 131 61.5t124 206t54 307.5q0 97 -29.5 136.5t-82.5 39.5zM846 1498q88 0 149.5 -61.5t61.5 -147.5q0 -87 -62 -148.5t-148 -61.5q-87 0 -148.5 61.5t-61.5 148.5t61.5 148t147.5 61z
M844 1405q-48 0 -82 -34t-34 -82t34 -82.5t82 -34.5t82.5 34.5t34.5 82.5t-34 82t-83 34z" />
    <glyph glyph-name="ccedilla" unicode="&#xe7;" horiz-adv-x="1100" 
d="M893 265l69 -54q-95 -117 -216 -178.5t-251 -61.5q-181 0 -289 107t-108 284q0 161 85.5 311t222.5 233t295 83q151 0 232.5 -69t81.5 -175q0 -79 -44 -126.5t-110 -47.5q-60 0 -98.5 35.5t-38.5 89.5q0 37 19 62t90 63q22 11 22 23q0 18 -27 34q-37 22 -91 22
q-131 0 -225 -134q-119 -170 -119 -430q0 -124 53.5 -185.5t140.5 -61.5q150 0 306 176zM557 -21q106 -52 106 -144q0 -63 -46 -115.5t-144.5 -78t-354.5 -32.5l29 87q142 6 187.5 31t45.5 62q0 50 -86 75l192 156h114z" />
    <glyph glyph-name="eacute" unicode="&#xe9;" horiz-adv-x="1063" 
d="M372 369q-4 -38 -4 -63q0 -106 52 -163t139 -57q73 0 143.5 35t172.5 139l67 -52q-117 -129 -229.5 -183t-242.5 -54q-184 0 -289.5 105.5t-105.5 286.5q0 161 88 308.5t240.5 232.5t328.5 85q129 0 200 -62t71 -157q0 -79 -57 -158.5t-185 -138t-389 -104.5zM384 452
q171 33 249 106q107 101 107 227q0 52 -24.5 81.5t-61.5 29.5q-74 0 -138 -89q-94 -129 -132 -355zM568 1104l-30 26l132 189q68 97 107.5 126t81.5 29q49 0 83.5 -33t34.5 -77q0 -71 -113 -123z" />
    <glyph glyph-name="egrave" unicode="&#xe8;" horiz-adv-x="1063" 
d="M372 369q-4 -38 -4 -63q0 -106 52 -163t139 -57q73 0 143.5 35t172.5 139l67 -52q-117 -129 -229.5 -183t-242.5 -54q-184 0 -289.5 105.5t-105.5 286.5q0 161 88 308.5t240.5 232.5t328.5 85q129 0 200 -62t71 -157q0 -79 -57 -158.5t-185 -138t-389 -104.5zM384 452
q171 33 249 106q107 101 107 227q0 52 -24.5 81.5t-61.5 29.5q-74 0 -138 -89q-94 -129 -132 -355zM871 1132l-33 -27l-301 139q-106 48 -106 120q0 41 37.5 74.5t88.5 33.5q79 0 170 -133z" />
    <glyph glyph-name="ecircumflex" unicode="&#xea;" horiz-adv-x="1063" 
d="M372 369q-4 -38 -4 -63q0 -106 52 -163t139 -57q73 0 143.5 35t172.5 139l67 -52q-117 -129 -229.5 -183t-242.5 -54q-184 0 -289.5 105.5t-105.5 286.5q0 161 88 308.5t240.5 232.5t328.5 85q129 0 200 -62t71 -157q0 -79 -57 -158.5t-185 -138t-389 -104.5zM384 452
q171 33 249 106q107 101 107 227q0 52 -24.5 81.5t-61.5 29.5q-74 0 -138 -89q-94 -129 -132 -355zM740 1479h213l88 -378h-34l-185 206l-425 -206h-39z" />
    <glyph glyph-name="edieresis" unicode="&#xeb;" horiz-adv-x="1063" 
d="M372 369q-4 -38 -4 -63q0 -106 52 -163t139 -57q73 0 143.5 35t172.5 139l67 -52q-117 -129 -229.5 -183t-242.5 -54q-184 0 -289.5 105.5t-105.5 286.5q0 161 88 308.5t240.5 232.5t328.5 85q129 0 200 -62t71 -157q0 -79 -57 -158.5t-185 -138t-389 -104.5zM384 452
q171 33 249 106q107 101 107 227q0 52 -24.5 81.5t-61.5 29.5q-74 0 -138 -89q-94 -129 -132 -355zM533 1424q55 0 94 -39.5t39 -95.5t-39 -95t-94 -39q-56 0 -95 39t-39 95q0 55 40 95t94 40zM935 1424q55 0 94 -39.5t39 -95.5q0 -55 -39 -94.5t-94 -39.5t-94.5 39
t-39.5 95q0 55 40 95t94 40z" />
    <glyph glyph-name="iacute" unicode="&#xed;" horiz-adv-x="797" 
d="M183 939l453 19l-215 -742q-14 -50 -14 -73q0 -18 7 -27.5t20 -9.5q29 0 74 43q75 71 147 201l73 -42q-187 -337 -411 -337q-76 0 -120 45t-44 123q0 54 14 102l149 518q5 14 5 29q0 28 -23 44.5t-79 16.5h-64zM377 1104l-30 26l132 189q68 97 107.5 126t81.5 29
q49 0 83.5 -33t34.5 -77q0 -71 -113 -123z" />
    <glyph glyph-name="igrave" unicode="&#xec;" horiz-adv-x="797" 
d="M183 939l453 19l-215 -742q-14 -50 -14 -73q0 -18 7 -27.5t20 -9.5q29 0 74 43q75 71 147 201l73 -42q-187 -337 -411 -337q-76 0 -120 45t-44 123q0 54 14 102l149 518q5 14 5 29q0 28 -23 44.5t-79 16.5h-64zM710 1132l-33 -27l-301 139q-106 48 -106 120
q0 41 37.5 74.5t88.5 33.5q79 0 170 -133z" />
    <glyph glyph-name="icircumflex" unicode="&#xee;" horiz-adv-x="797" 
d="M183 939l453 19l-215 -742q-14 -50 -14 -73q0 -18 7 -27.5t20 -9.5q29 0 74 43q75 71 147 201l73 -42q-187 -337 -411 -337q-76 0 -120 45t-44 123q0 54 14 102l149 518q5 14 5 29q0 28 -23 44.5t-79 16.5h-64zM519 1479h213l88 -378h-34l-185 206l-425 -206h-39z" />
    <glyph glyph-name="idieresis" unicode="&#xef;" horiz-adv-x="797" 
d="M183 939l453 19l-215 -742q-14 -50 -14 -73q0 -18 7 -27.5t20 -9.5q29 0 74 43q75 71 147 201l73 -42q-187 -337 -411 -337q-76 0 -120 45t-44 123q0 54 14 102l149 518q5 14 5 29q0 28 -23 44.5t-79 16.5h-64zM292 1424q55 0 94 -39.5t39 -95.5t-39 -95t-94 -39
q-56 0 -95 39t-39 95q0 55 40 95t94 40zM694 1424q55 0 94 -39.5t39 -95.5q0 -55 -39 -94.5t-94 -39.5t-94.5 39t-39.5 95q0 55 40 95t94 40z" />
    <glyph glyph-name="ntilde" unicode="&#xf1;" horiz-adv-x="1403" 
d="M1248 355l81 -25q-74 -182 -173 -266.5t-202 -84.5q-86 0 -134 46.5t-48 125.5q0 70 52 224q76 230 89 283.5t13 86.5q0 37 -18.5 58t-46.5 21q-51 0 -108 -41q-95 -66 -180 -199t-127 -274l-90 -310l-266 -9l224 772q3 12 3 23q0 29 -23 44.5t-87 15.5h-58l28 93l437 19
l-73 -281q220 293 429 293q95 0 155.5 -61t60.5 -153q0 -74 -32 -176l-106 -337q-25 -79 -25 -100q0 -15 7.5 -22.5t21.5 -7.5q34 0 72 40q64 69 124 202zM1165 1425h24q-13 -130 -77.5 -199t-150.5 -69q-71 0 -185 47q-100 43 -142 43q-80 0 -108 -90h-28q5 120 70.5 193.5
t152.5 73.5q63 0 180 -49q98 -40 145 -40q81 0 119 90z" />
    <glyph glyph-name="oacute" unicode="&#xf3;" horiz-adv-x="1176" 
d="M667 989q193 0 314.5 -119t121.5 -302q0 -231 -164.5 -414t-432.5 -183q-196 0 -317 118.5t-121 303.5q0 158 81.5 300t215.5 219t302 77zM677 905q-78 0 -140 -67q-86 -92 -141 -283t-55 -307q0 -91 43.5 -139.5t114.5 -48.5q68 0 120 48q76 72 144 258.5t68 347.5
q0 90 -43.5 140.5t-110.5 50.5zM577 1104l-30 26l132 189q68 97 107.5 126t81.5 29q49 0 83.5 -33t34.5 -77q0 -71 -113 -123z" />
    <glyph glyph-name="ograve" unicode="&#xf2;" horiz-adv-x="1176" 
d="M667 989q193 0 314.5 -119t121.5 -302q0 -231 -164.5 -414t-432.5 -183q-196 0 -317 118.5t-121 303.5q0 158 81.5 300t215.5 219t302 77zM677 905q-78 0 -140 -67q-86 -92 -141 -283t-55 -307q0 -91 43.5 -139.5t114.5 -48.5q68 0 120 48q76 72 144 258.5t68 347.5
q0 90 -43.5 140.5t-110.5 50.5zM957 1132l-33 -27l-301 139q-106 48 -106 120q0 41 37.5 74.5t88.5 33.5q79 0 170 -133z" />
    <glyph glyph-name="ocircumflex" unicode="&#xf4;" horiz-adv-x="1176" 
d="M667 989q193 0 314.5 -119t121.5 -302q0 -231 -164.5 -414t-432.5 -183q-196 0 -317 118.5t-121 303.5q0 158 81.5 300t215.5 219t302 77zM677 905q-78 0 -140 -67q-86 -92 -141 -283t-55 -307q0 -91 43.5 -139.5t114.5 -48.5q68 0 120 48q76 72 144 258.5t68 347.5
q0 90 -43.5 140.5t-110.5 50.5zM774 1479h213l88 -378h-34l-185 206l-425 -206h-39z" />
    <glyph glyph-name="odieresis" unicode="&#xf6;" horiz-adv-x="1176" 
d="M667 989q193 0 314.5 -119t121.5 -302q0 -231 -164.5 -414t-432.5 -183q-196 0 -317 118.5t-121 303.5q0 158 81.5 300t215.5 219t302 77zM677 905q-78 0 -140 -67q-86 -92 -141 -283t-55 -307q0 -91 43.5 -139.5t114.5 -48.5q68 0 120 48q76 72 144 258.5t68 347.5
q0 90 -43.5 140.5t-110.5 50.5zM569 1424q55 0 94 -39.5t39 -95.5t-39 -95t-94 -39q-56 0 -95 39t-39 95q0 55 40 95t94 40zM971 1424q55 0 94 -39.5t39 -95.5q0 -55 -39 -94.5t-94 -39.5t-94.5 39t-39.5 95q0 55 40 95t94 40z" />
    <glyph glyph-name="otilde" unicode="&#xf5;" horiz-adv-x="1176" 
d="M667 989q193 0 314.5 -119t121.5 -302q0 -231 -164.5 -414t-432.5 -183q-196 0 -317 118.5t-121 303.5q0 158 81.5 300t215.5 219t302 77zM677 905q-78 0 -140 -67q-86 -92 -141 -283t-55 -307q0 -91 43.5 -139.5t114.5 -48.5q68 0 120 48q76 72 144 258.5t68 347.5
q0 90 -43.5 140.5t-110.5 50.5zM1065 1425h24q-13 -130 -77.5 -199t-150.5 -69q-71 0 -185 47q-100 43 -142 43q-80 0 -108 -90h-28q5 120 70.5 193.5t152.5 73.5q63 0 180 -49q98 -40 145 -40q81 0 119 90z" />
    <glyph glyph-name="uacute" unicode="&#xfa;" horiz-adv-x="1403" 
d="M643 958l-197 -600q-35 -106 -35 -155q0 -44 19 -65.5t53 -21.5q85 0 207 127.5t205 378.5l104 317h265l-234 -721q-15 -47 -15 -71q0 -18 7 -27t21 -9q80 0 208 233l75 -33q-93 -189 -190.5 -264.5t-204.5 -75.5q-81 0 -123.5 43t-42.5 126q0 39 12 92
q-193 -254 -427 -254q-96 0 -149 54t-53 146q0 83 42 211l122 378q4 11 4 22q0 27 -25 43.5t-86 16.5h-53l26 90zM718 1104l-30 26l132 189q68 97 107.5 126t81.5 29q49 0 83.5 -33t34.5 -77q0 -71 -113 -123z" />
    <glyph glyph-name="ugrave" unicode="&#xf9;" horiz-adv-x="1403" 
d="M643 958l-197 -600q-35 -106 -35 -155q0 -44 19 -65.5t53 -21.5q85 0 207 127.5t205 378.5l104 317h265l-234 -721q-15 -47 -15 -71q0 -18 7 -27t21 -9q80 0 208 233l75 -33q-93 -189 -190.5 -264.5t-204.5 -75.5q-81 0 -123.5 43t-42.5 126q0 39 12 92
q-193 -254 -427 -254q-96 0 -149 54t-53 146q0 83 42 211l122 378q4 11 4 22q0 27 -25 43.5t-86 16.5h-53l26 90zM1011 1132l-33 -27l-301 139q-106 48 -106 120q0 41 37.5 74.5t88.5 33.5q79 0 170 -133z" />
    <glyph glyph-name="ucircumflex" unicode="&#xfb;" horiz-adv-x="1403" 
d="M643 958l-197 -600q-35 -106 -35 -155q0 -44 19 -65.5t53 -21.5q85 0 207 127.5t205 378.5l104 317h265l-234 -721q-15 -47 -15 -71q0 -18 7 -27t21 -9q80 0 208 233l75 -33q-93 -189 -190.5 -264.5t-204.5 -75.5q-81 0 -123.5 43t-42.5 126q0 39 12 92
q-193 -254 -427 -254q-96 0 -149 54t-53 146q0 83 42 211l122 378q4 11 4 22q0 27 -25 43.5t-86 16.5h-53l26 90zM866 1479h213l88 -378h-34l-185 206l-425 -206h-39z" />
    <glyph glyph-name="udieresis" unicode="&#xfc;" horiz-adv-x="1403" 
d="M643 958l-197 -600q-35 -106 -35 -155q0 -44 19 -65.5t53 -21.5q85 0 207 127.5t205 378.5l104 317h265l-234 -721q-15 -47 -15 -71q0 -18 7 -27t21 -9q80 0 208 233l75 -33q-93 -189 -190.5 -264.5t-204.5 -75.5q-81 0 -123.5 43t-42.5 126q0 39 12 92
q-193 -254 -427 -254q-96 0 -149 54t-53 146q0 83 42 211l122 378q4 11 4 22q0 27 -25 43.5t-86 16.5h-53l26 90zM642 1424q55 0 94 -39.5t39 -95.5t-39 -95t-94 -39q-56 0 -95 39t-39 95q0 55 40 95t94 40zM1044 1424q55 0 94 -39.5t39 -95.5q0 -55 -39 -94.5t-94 -39.5
t-94.5 39t-39.5 95q0 55 40 95t94 40z" />
    <glyph glyph-name="dagger" unicode="&#x2020;" horiz-adv-x="1024" 
d="M630 958q37 2 63.5 10.5t88.5 41.5q64 35 90 43.5t57 8.5q64 0 103 -37.5t39 -98.5q0 -65 -38.5 -103.5t-101.5 -38.5q-53 0 -122 33q-88 42 -108 48q-34 9 -92 12q-10 -51 -10 -89q0 -120 64 -245q-123 -176 -198.5 -338t-145.5 -398l-60 -203h-91l57 223q73 288 73 537
q0 72 -10 179q162 127 239 334q-32 0 -54.5 -7.5t-77.5 -39.5q-60 -35 -88 -43.5t-60 -8.5q-64 0 -103 39t-39 103q0 62 42 102.5t108 40.5q54 0 121 -41q66 -40 97 -50.5t84 -13.5q18 93 18 167q0 36 -8 112q-8 68 -8 91q0 88 44 137t116 49q65 0 106 -38.5t41 -97.5
q0 -42 -21.5 -88t-87.5 -125t-89 -118t-38 -89z" />
    <glyph glyph-name="degree" unicode="&#xb0;" horiz-adv-x="819" 
d="M541 1424q142 0 243 -100.5t101 -242.5t-101 -242.5t-243 -100.5q-143 0 -243.5 100.5t-100.5 243.5q0 142 99.5 242t244.5 100zM541 1277q-81 0 -138.5 -57t-57.5 -138t57.5 -138.5t138.5 -57.5t138 57.5t57 138.5t-57 138t-138 57z" />
    <glyph glyph-name="cent" unicode="&#xa2;" horiz-adv-x="1176" 
d="M1141 1503h93l-278 -570q117 -70 117 -198q0 -82 -42.5 -129t-106.5 -47q-74 0 -123 60l-251 -513q48 -27 101 -27q165 0 305 174l60 -52q-90 -120 -210.5 -179.5t-256.5 -59.5q-26 0 -70 3l-188 -377h-89l191 395q-237 108 -237 368q0 164 84 312t223.5 231t297.5 83
q58 0 115 -19zM487 173l351 712q-19 4 -38 4q-153 0 -254 -173.5t-101 -378.5q0 -100 42 -164z" />
    <glyph glyph-name="sterling" unicode="&#xa3;" horiz-adv-x="1176" 
d="M601 764h288l-26 -104h-262q-4 -188 -71 -373q108 -55 228 -55q74 0 129 23t119 87l62 -62q-100 -166 -197.5 -234t-193.5 -68q-69 0 -130.5 27t-129.5 95q-79 -74 -130.5 -98t-110.5 -24q-97 0 -155.5 54t-58.5 138q0 90 63.5 150t164.5 60q92 0 197 -54q0 156 -36 334
h-273l28 104h233q-22 125 -22 199q0 200 135 330.5t352 130.5q196 0 306 -101q89 -81 89 -198q0 -78 -43.5 -126.5t-107.5 -48.5q-66 0 -106.5 38.5t-40.5 99.5q0 75 65 129q28 23 28 42q0 24 -35 45.5t-104 21.5q-122 0 -196.5 -90.5t-74.5 -271.5q0 -92 17 -200zM339 184
q-85 98 -185 98q-44 0 -73 -29.5t-29 -73.5q0 -54 30.5 -85t81.5 -31q48 0 94.5 30t80.5 91z" />
    <glyph glyph-name="section" unicode="&#xa7;" horiz-adv-x="1024" 
d="M640 184q65 -118 65 -229q0 -147 -110.5 -248t-284.5 -101q-143 0 -229 67.5t-86 154.5q0 63 41.5 106.5t102.5 43.5q57 0 94.5 -38t37.5 -96q0 -27 -17 -65q-15 -34 -15 -45q0 -17 18 -28q26 -16 69 -16q70 0 117.5 45t47.5 111q0 47 -26 101q-11 22 -140 224
q-119 185 -136 223q-35 84 -35 171q0 114 67.5 205t227.5 163q-70 115 -70 221q0 151 111 255.5t282 104.5q143 0 228.5 -67t85.5 -160q0 -69 -39.5 -110.5t-101.5 -41.5q-58 0 -94.5 36t-36.5 92q0 29 18 63q18 31 18 45q0 21 -21.5 37t-62.5 16q-76 0 -124 -44.5
t-48 -113.5q0 -45 19 -92t86 -141q149 -208 189.5 -301.5t40.5 -179.5q0 -117 -66 -207t-223 -161zM484 869q-123 -57 -123 -164q0 -54 37.5 -135t204.5 -326q71 42 94.5 77t23.5 86q0 60 -33.5 134t-203.5 328z" />
    <glyph glyph-name="bullet" unicode="&#x2022;" horiz-adv-x="1241" 
d="M688 976q121 0 206 -85.5t85 -205.5t-84.5 -205t-204.5 -85q-119 0 -204 85t-85 206q0 120 84 205t203 85z" />
    <glyph glyph-name="paragraph" unicode="&#xb6;" horiz-adv-x="1331" 
d="M882 1401v-1746h-111v883q-269 11 -395 119q-151 130 -151 356q0 157 72.5 268.5t183 154.5t422.5 43h466v-46h-44q-82 0 -115 -35.5t-33 -123.5v-1619h-110v1746h-185z" />
    <glyph glyph-name="germandbls" unicode="&#xdf;" horiz-adv-x="1176" 
d="M810 829q141 -41 210 -110q93 -94 93 -242q0 -135 -66 -256t-175.5 -188.5t-228.5 -67.5q-109 0 -175 58.5t-66 147.5q0 69 36 110t90 41q47 0 74.5 -26.5t27.5 -68.5q0 -65 -65 -95q-36 -17 -36 -37q0 -15 12.5 -24.5t37.5 -9.5q49 0 94 42q70 66 122.5 209.5
t52.5 274.5q0 98 -54 150t-166 53l25 91q99 0 168 44.5t121.5 144.5t52.5 197q0 79 -38 122.5t-99 43.5q-60 0 -114 -46q-83 -72 -169.5 -310t-215.5 -742q-76 -298 -108.5 -406t-91.5 -266q-128 -14 -259 -58q-27 -8 -39 -8q-22 0 -22 19q0 14 33 80q60 119 111 264.5
t146 507.5q117 448 179 605q95 236 228.5 338.5t320.5 102.5q172 0 274.5 -91t102.5 -225q0 -138 -111.5 -242.5t-312.5 -126.5z" />
    <glyph glyph-name="registered" unicode="&#xae;" horiz-adv-x="1530" 
d="M844 1424q193 0 360 -96.5t263.5 -263.5t96.5 -360t-96.5 -360t-263.5 -263t-360 -96q-192 0 -359 96t-263.5 263t-96.5 360t96.5 360t263.5 263.5t359 96.5zM844 1333q-260 0 -444.5 -184.5t-184.5 -444.5q0 -168 84.5 -314t230.5 -230.5t314 -84.5q169 0 314.5 84.5
t230 230.5t84.5 314t-84.5 314t-230 230.5t-314.5 84.5zM459 1122h368q144 0 216.5 -26t107.5 -75t35 -115q0 -82 -45 -136t-136 -80l149 -272q23 -42 44 -59t52 -23v-34h-245l-207 373h-47v-222q0 -67 24 -91t97 -26v-34h-429v34q62 0 84.5 24.5t22.5 92.5v533
q0 54 -20 75.5t-71 25.5v35zM751 726q28 -4 51 -4q73 0 120 49.5t47 134.5q0 84 -45 127.5t-135 43.5h-38v-351z" />
    <glyph glyph-name="copyright" unicode="&#xa9;" horiz-adv-x="1530" 
d="M844 1424q193 0 360 -96.5t263.5 -263.5t96.5 -360t-96.5 -360t-263.5 -263t-360 -96q-192 0 -359 96t-263.5 263t-96.5 360t96.5 360t263.5 263.5t359 96.5zM844 1333q-260 0 -444.5 -184.5t-184.5 -444.5q0 -168 84.5 -314t230.5 -230.5t314 -84.5q169 0 314.5 84.5
t230 230.5t84.5 314t-84.5 314t-230 230.5t-314.5 84.5zM1184 1138v-271h-39q-20 107 -87.5 164.5t-162.5 57.5q-105 0 -183.5 -83t-78.5 -293q0 -208 78 -290t184 -82q143 0 261 140v-71q-129 -129 -321 -129q-191 0 -310 115.5t-119 298.5q0 193 126.5 318.5t323.5 125.5
q85 0 196 -41q34 -12 49 -12q36 0 44 52h39z" />
    <glyph glyph-name="trademark" unicode="&#x2122;" horiz-adv-x="1946" 
d="M-49 1479h777v-231h-35q-4 90 -49 133.5t-146 43.5h-37v-597q0 -85 20.5 -109.5t82.5 -24.5v-35h-454v35q60 4 74 12t21 28.5t7 93.5v597h-34q-95 0 -141 -41.5t-54 -135.5h-32v231zM825 1479h368l231 -503l229 503h347v-40q-48 0 -66.5 -10.5t-27.5 -35.5q-7 -17 -7 -89
v-476q0 -67 7.5 -86t28.5 -32.5t65 -15.5v-35h-461v35q73 1 93.5 24.5t20.5 109.5v509l-320 -678h-24l-318 678v-509q0 -71 8 -90t30.5 -31t76.5 -13v-35h-281v35q57 2 75 12t26.5 31t8.5 91v476q0 70 -9 92.5t-27.5 32.5t-73.5 10v40z" />
    <glyph glyph-name="acute" unicode="&#xb4;" horiz-adv-x="682" 
d="M377 1104l-30 26l132 189q68 97 107.5 126t81.5 29q49 0 83.5 -33t34.5 -77q0 -71 -113 -123z" />
    <glyph glyph-name="dieresis" unicode="&#xa8;" horiz-adv-x="682" 
d="M342 1424q55 0 94 -39.5t39 -95.5t-39 -95t-94 -39q-56 0 -95 39t-39 95q0 55 40 95t94 40zM744 1424q55 0 94 -39.5t39 -95.5q0 -55 -39 -94.5t-94 -39.5t-94.5 39t-39.5 95q0 55 40 95t94 40z" />
    <glyph glyph-name="notequal" unicode="&#x2260;" horiz-adv-x="1124" 
d="M15 863h600l208 528h134l-205 -528h357v-157h-418l-123 -315h541v-156h-602l-208 -527h-135l207 527h-356v156h417l123 315h-540v157z" />
    <glyph glyph-name="AE" unicode="&#xc6;" horiz-adv-x="1821" 
d="M588 1479h1175l-45 -473h-91q6 80 6 129q0 122 -57.5 185.5t-149.5 63.5h-88q-50 0 -73.5 -16.5t-33.5 -53.5l-143 -509q123 0 190.5 54t104.5 186h93l-161 -634h-93q20 91 20 149q0 91 -44 127q-33 26 -136 29l-140 -498q-10 -35 -10 -56q0 -32 21 -48q26 -21 71 -21
h142q158 0 263 93q129 116 192 329h93l-113 -515h-1159l25 93h53q95 0 118 83l93 329h-367l-192 -277q-38 -56 -38 -83q0 -25 21 -38.5t78 -13.5h29l-21 -93h-444l25 93q55 4 108 34.5t81 69.5l740 1069q34 49 34 71q0 21 -19 34t-64 13h-117zM964 1402l-544 -787h322z" />
    <glyph glyph-name="Oslash" unicode="&#xd8;" horiz-adv-x="1706" 
d="M1540 1334q156 -164 156 -416q0 -223 -106.5 -445t-333 -362t-495.5 -140q-252 0 -403 120l-87 -91h-132l150 158q-149 176 -149 421q0 194 101.5 412.5t327 370.5t504.5 152q240 0 395 -116l78 81h132zM472 350l861 905q-71 163 -260 163q-163 0 -299.5 -129
t-230.5 -434q-75 -242 -75 -432q0 -36 4 -73zM1363 1148l-864 -909q75 -175 272 -175q162 0 296.5 128.5t218 406.5t83.5 458q0 47 -6 91z" />
    <glyph glyph-name="infinity" unicode="&#x221e;" 
d="M653 667q68 157 149 217t221 60q161 0 272 -116t111 -301q0 -183 -108 -301.5t-241 -118.5q-99 0 -184 73q-56 48 -153 213q-64 -124 -140 -178.5t-184 -54.5q-144 0 -243.5 103t-99.5 266q0 165 92 266t215 101q86 0 152 -44.5t141 -184.5zM749 464q75 -156 148 -209.5
t164 -53.5q123 0 205.5 88.5t82.5 237.5q0 147 -87 243t-195 96q-69 0 -120.5 -35t-93.5 -112q-24 -45 -104 -255zM624 590q-49 110 -112 162t-155 52q-106 0 -177.5 -74.5t-71.5 -199.5q0 -133 70.5 -212.5t159.5 -79.5q95 0 168 85q47 56 118 267z" />
    <glyph glyph-name="plusminus" unicode="&#xb1;" horiz-adv-x="1124" 
d="M16 744h481v480h131v-480h481v-132h-481l1 -344h480v-132h-1093l-1 131h482v345h-481v132z" />
    <glyph glyph-name="lessequal" unicode="&#x2264;" horiz-adv-x="1124" 
d="M1109 220l-1094 460v141l1094 460v-170l-882 -360l882 -360v-171zM14 -29h1096v-156h-1096v156z" />
    <glyph glyph-name="greaterequal" unicode="&#x2265;" horiz-adv-x="1124" 
d="M15 1281l1094 -460v-141l-1094 -460v170l881 360l-881 360v171zM14 -29h1096v-156h-1096v156z" />
    <glyph glyph-name="yen" unicode="&#xa5;" horiz-adv-x="1176" 
d="M827 734h363l-21 -123h-420l-51 -183h429l-21 -123h-441l-38 -138q-3 -10 -3 -22q0 -28 16 -40q23 -17 67 -17h112l-25 -88h-671l25 88h101q85 0 103 67l39 150h-407l21 123h419l48 183h-425l20 123h380l-169 507q-11 35 -33 49.5t-65 14.5h-36l20 90h535l-21 -90h-26
q-55 0 -75.5 -12.5t-20.5 -32.5q0 -11 6 -30l160 -496l252 432q14 23 14 49q0 39 -32 63.5t-109 26.5l25 90h420l-25 -90q-58 -2 -94 -23.5t-67 -73.5z" />
    <glyph glyph-name="mu1" unicode="&#xb5;" horiz-adv-x="1180" 
d="M304 899h255l-161 -557q-24 -83 -26 -90q-7 -36 -7 -61q0 -32 20.5 -52.5t49.5 -20.5q57 0 126 73q92 97 161 335l107 373h255l-179 -616q-33 -111 -33 -143q0 -23 15.5 -39.5t34.5 -16.5q18 0 38 20q40 37 76 120l36 -19q-43 -123 -112.5 -178t-153.5 -55
q-76 0 -121.5 45.5t-45.5 119.5q0 36 7 87q-113 -157 -199 -210q-66 -42 -145 -42q-58 0 -99 25q-25 14 -54 63q-25 -76 -35 -131.5t-14.5 -148.5t-15.5 -127q-15 -47 -47 -71.5t-68 -24.5q-40 0 -68.5 30.5t-28.5 77.5q0 64 73.5 184t97.5 176t66 199z" />
    <glyph glyph-name="partialdiff" unicode="&#x2202;" horiz-adv-x="1012" 
d="M371 1150h-42q52 146 142.5 215t205.5 69q152 0 223 -102t71 -291q0 -360 -106 -620.5t-238 -365.5q-97 -78 -232 -78q-97 0 -169 39.5t-109.5 117t-37.5 159.5q0 130 61.5 252.5t151.5 211t185.5 133t188.5 44.5q164 0 236 -150q8 82 8 127q0 171 -116 265
q-71 58 -197 58q-81 0 -131.5 -20t-94.5 -64zM886 691q-34 103 -89.5 147.5t-124.5 44.5q-70 0 -136 -61q-86 -80 -143.5 -262t-57.5 -348q0 -97 30 -132.5t89 -35.5q99 0 200 117q166 195 232 530z" />
    <glyph glyph-name="summation" unicode="&#x2211;" 
d="M1356 -381h-1313v37l669 917l-669 887v38h1278l27 -337h-40q-15 136 -76 196t-173 60h-740l562 -757l-629 -864h818q87 0 166 32q51 20 85.5 67t58.5 147l40 -8z" />
    <glyph glyph-name="product" unicode="&#x220f;" horiz-adv-x="1685" 
d="M1240 1420h-795v-1608q0 -83 37 -119t125 -36h36v-38h-597v38h35q93 0 128 37.5t35 117.5v1493q0 84 -37 119.5t-126 35.5h-35v38h1594v-38h-35q-92 0 -127 -37.5t-35 -117.5v-1493q0 -83 37 -119t125 -36h35v-38h-597v38h35q93 0 127.5 37.5t34.5 117.5v1608z" />
    <glyph glyph-name="pi" horiz-adv-x="1124" 
d="M1129 899l-68 -219h-162l-103 -338q-21 -69 -21 -106q0 -51 24 -75.5t70 -24.5q49 0 86 25.5t50 65.5h40q-20 -120 -97.5 -187.5t-185.5 -67.5q-80 0 -131.5 54.5t-51.5 156.5q0 67 22 130q8 21 10 29l102 338h-176l-128 -422q-54 -175 -110.5 -230.5t-116.5 -55.5
q-50 0 -81 28.5t-31 68.5q0 25 14 53.5t63.5 87.5t83.5 126q45 89 82 215l37 129h-50q-101 0 -141.5 -27.5t-55.5 -85.5h-52q22 185 105 258.5t279 73.5h694z" />
    <glyph glyph-name="integral" unicode="&#x222b;" horiz-adv-x="561" 
d="M200 895l18 581q8 154 50 255q27 67 74 99.5t93 32.5q50 0 87.5 -33.5t37.5 -73.5q0 -47 -26.5 -75.5t-65.5 -28.5q-35 0 -76 36q-23 20 -40 20t-28.5 -14.5t-11.5 -49.5q0 -41 9 -145q37 -411 37 -663q0 -70 -16 -590q-8 -295 -90 -399q-54 -67 -134 -67q-52 0 -85 34
t-33 87q0 45 25.5 72t64.5 27q40 0 69 -32t49 -32q17 0 28 14t11 47q0 42 -9 120q-17 143 -26 338q-12 249 -12 440z" />
    <glyph glyph-name="ordfeminine" unicode="&#xaa;" horiz-adv-x="844" 
d="M746 1427l23 57l185 13l-128 -434q-12 -40 -12 -48v-9l5 -4q38 0 115 142l67 -34q-117 -212 -253 -212q-90 0 -109 84q-80 -84 -179 -84q-92 0 -151.5 61t-59.5 164q0 153 108.5 266.5t248.5 113.5q68 0 91 -15.5t49 -60.5zM638 1416q-64 0 -116 -79q-72 -106 -72 -245
q0 -57 16.5 -80t47.5 -23q60 0 113 81q70 106 70 252q0 52 -15.5 73t-43.5 21z" />
    <glyph glyph-name="ordmasculine" unicode="&#xba;" horiz-adv-x="729" 
d="M614 1514q128 0 207 -73.5t79 -182.5q0 -147 -111 -253.5t-277 -106.5q-130 0 -209 73t-79 184q0 147 111 253t279 106zM620 1449q-40 0 -73 -30q-45 -41 -86 -151.5t-41 -197.5q0 -51 24 -77.5t63 -26.5q40 0 70 29q46 43 87 150.5t41 198.5q0 50 -24 77.5t-61 27.5z
" />
    <glyph glyph-name="Ohm" unicode="&#x2126;" horiz-adv-x="1573" 
d="M714 205l1 -205h-630l-76 360h125q21 -93 36 -111q31 -38 118 -38h75q78 0 166 -12l-13 26q-110 17 -179 53t-123 102t-91 180.5t-37 246.5q0 216 90.5 381.5t250.5 247.5t350 82q227 0 391.5 -91.5t244 -258t79.5 -354.5q0 -135 -38.5 -256t-105.5 -197
q-50 -57 -113.5 -88t-172.5 -48l-12 -26q94 12 165 12h76q76 0 104 24t49 125h125l-76 -360h-629v205q84 34 125 70t76.5 105t62 195t26.5 274q0 322 -106.5 460.5t-253.5 138.5q-155 0 -250 -122q-119 -153 -119 -467q0 -192 39.5 -341t100.5 -219q46 -52 149 -94z" />
    <glyph glyph-name="ae" unicode="&#xe6;" horiz-adv-x="1669" 
d="M1061 824q95 95 168 130t148 35q113 0 180.5 -62.5t67.5 -164.5q0 -84 -46 -144q-67 -87 -207.5 -152.5t-381.5 -102.5l-1 -51q0 -110 55.5 -172t145.5 -62q141 0 316 174l59 -50q-218 -231 -474 -231q-138 0 -226 61.5t-126 184.5q-128 -246 -352 -246
q-151 0 -245.5 98.5t-94.5 264.5q0 152 90.5 320.5t213.5 251.5t253 83q86 0 146.5 -46.5t94.5 -140.5l45 156l213 21zM1003 443q126 25 203.5 73.5t117.5 115.5t40 139q0 50 -24 76.5t-62 26.5q-71 0 -151.5 -102.5t-123.5 -328.5zM652 863q-121 0 -221 -197t-100 -398
q0 -91 38.5 -135t101.5 -44q59 0 127 61t125.5 221t57.5 310q0 90 -36.5 136t-92.5 46z" />
    <glyph glyph-name="oslash" unicode="&#xf8;" horiz-adv-x="1176" 
d="M996 855q107 -116 107 -287q0 -233 -165 -415t-431 -182q-169 0 -280 86l-55 -57h-120l113 116q-97 114 -97 277q0 158 81 300t215.5 219t298.5 77q160 0 271 -79l53 54h115zM344 301l477 492q-18 53 -56.5 82.5t-87.5 29.5q-123 0 -205 -162q-104 -206 -128 -442z
M830 682l-482 -499q14 -59 54.5 -91t96.5 -32q65 0 115 44q71 63 138.5 234.5t77.5 343.5z" />
    <glyph glyph-name="questiondown" unicode="&#xbf;" horiz-adv-x="985" 
d="M733 1141q71 0 121.5 -50t50.5 -121t-50.5 -121.5t-121.5 -50.5t-121.5 50.5t-50.5 120.5q0 71 50.5 121.5t121.5 50.5zM371 486l-67 49q94 176 255 176q102 0 171 -68.5t69 -171.5q0 -60 -25 -117t-74.5 -104.5t-195.5 -139.5q-170 -107 -212 -160q-42 -54 -42 -118
q0 -57 45 -96.5t121 -39.5q105 0 177.5 79.5t72.5 205.5l85 11l1 -23q0 -150 -107 -256.5t-266 -106.5q-155 0 -250 89t-95 225q0 82 31.5 150t95 120.5t211.5 117.5q161 70 212 116q50 45 50 105q0 40 -25.5 66t-64.5 26q-92 0 -173 -135z" />
    <glyph glyph-name="exclamdown" unicode="&#xa1;" horiz-adv-x="682" 
d="M504 1144q71 0 122 -50.5t51 -121.5q0 -72 -51 -122.5t-122 -50.5q-72 0 -122 50.5t-50 122.5q0 71 50 121.5t122 50.5zM403 686h87l-45 -203q-69 -304 -94 -586q-11 -133 -32.5 -182.5t-65 -79t-95.5 -29.5q-64 0 -109.5 43.5t-45.5 101.5q0 37 20 94q26 76 112 243
q123 240 170 342q33 72 66 167z" />
    <glyph glyph-name="logicalnot" unicode="&#xac;" horiz-adv-x="1241" 
d="M133 1026h1120v-681h-187v494h-933v187z" />
    <glyph glyph-name="radical" unicode="&#x221a;" horiz-adv-x="1124" 
d="M1050 1869h74l-312 -1947l-496 1021l-198 -91l-34 64l301 151l405 -823z" />
    <glyph glyph-name="florin" unicode="&#x192;" horiz-adv-x="1176" 
d="M841 822l-177 -685q-46 -177 -83 -255q-70 -148 -155 -212t-184 -64q-76 0 -117 32.5t-41 81.5q0 42 29 71t72 29q39 0 64 -22t25 -53q0 -11 -5 -28q-4 -16 -4 -23q0 -27 38 -27q40 0 60.5 32.5t20.5 131.5q0 64 -2 142l-2 46q0 155 31 272l137 531h-137l21 122
q97 0 152.5 42.5t100.5 163.5q59 157 129 216q70 58 166 58q92 0 144 -39.5t52 -91.5q0 -48 -30.5 -80t-73.5 -32q-38 0 -63 22t-25 56q0 24 17 60q12 24 12 33q0 10 -9 15q-13 8 -37 8q-45 0 -72 -36q-28 -37 -28 -121l2 -55l5 -113q0 -43 -10 -106h152l-23 -122h-152z" />
    <glyph glyph-name="approxequal" unicode="&#x2248;" horiz-adv-x="1124" 
d="M1049 1096h63q-2 -163 -82.5 -253t-197.5 -90q-56 0 -179 35l-198 84q-142 60 -207 60q-66 0 -109.5 -40.5t-61.5 -137.5h-64q8 167 80 255t192 88q57 0 110 -14q100 -28 273 -104q96 -41 144 -54q30 -8 65 -8q68 0 115 46t57 133zM1049 587h63q-2 -163 -82.5 -253
t-196.5 -90q-56 0 -118 17.5t-260 100.5q-141 60 -207 60t-110 -40.5t-61 -136.5h-64q8 166 80 254.5t191 88.5q58 0 110 -15q100 -27 274 -103q97 -42 144 -55q30 -8 65 -8q68 0 115 46t57 134z" />
    <glyph glyph-name="increment" unicode="&#x2206;" horiz-adv-x="1253" 
d="M1226 0h-1200l628 1387zM990 82l-399 967l-440 -967h839z" />
    <glyph glyph-name="guillemotleft" unicode="&#xab;" horiz-adv-x="985" 
d="M452 990h107l-232 -460l57 -405h-97l-267 449zM885 990h104l-230 -460l57 -405h-94l-270 444z" />
    <glyph glyph-name="guillemotright" unicode="&#xbb;" horiz-adv-x="985" 
d="M155 992h96l269 -446l-434 -421h-107l233 460zM603 992h94l266 -450l-429 -417h-108l233 462z" />
    <glyph glyph-name="ellipsis" unicode="&#x2026;" horiz-adv-x="2048" 
d="M1022 319q71 0 122 -51t51 -123t-51 -123t-122 -51t-121.5 51t-50.5 123t50.5 123t121.5 51zM1703 319q72 0 122.5 -51t50.5 -123t-50.5 -123t-121.5 -51q-72 0 -122.5 51t-50.5 123t50.5 123t121.5 51zM343 314q70 0 120 -50t50 -121t-50 -121.5t-120 -50.5t-120 50
t-50 122q0 71 50 121t120 50z" />
    <glyph glyph-name="nbspace" unicode="&#xa0;" horiz-adv-x="588" 
 />
    <glyph glyph-name="Agrave" unicode="&#xc0;" horiz-adv-x="1518" 
d="M985 1479h135l179 -1275q8 -58 38 -80q42 -31 112 -31h46l-25 -93h-680l23 93h50q79 0 107.5 19.5t28.5 59.5q0 14 -3 32l-37 266h-501l-99 -154q-41 -65 -41 -119q0 -49 32.5 -76.5t99.5 -27.5h41l-23 -93h-531l23 93q69 4 109 32q77 53 116 113zM871 1110l-342 -529
h415zM1198 1652l-33 -27l-301 139q-106 48 -106 120q0 41 37.5 74.5t88.5 33.5q79 0 170 -133z" />
    <glyph glyph-name="Atilde" unicode="&#xc3;" horiz-adv-x="1518" 
d="M985 1479h135l179 -1275q8 -58 38 -80q42 -31 112 -31h46l-25 -93h-680l23 93h50q79 0 107.5 19.5t28.5 59.5q0 14 -3 32l-37 266h-501l-99 -154q-41 -65 -41 -119q0 -49 32.5 -76.5t99.5 -27.5h41l-23 -93h-531l23 93q69 4 109 32q77 53 116 113zM871 1110l-342 -529
h415zM1431 1945h24q-13 -130 -77.5 -199t-150.5 -69q-71 0 -185 47q-100 43 -142 43q-80 0 -108 -90h-28q5 120 70.5 193.5t152.5 73.5q63 0 180 -49q98 -40 145 -40q81 0 119 90z" />
    <glyph glyph-name="Otilde" unicode="&#xd5;" horiz-adv-x="1706" 
d="M1073 1514q282 0 452 -165.5t170 -430.5q0 -226 -101 -434q-115 -238 -341.5 -375.5t-493.5 -137.5q-311 0 -465 181.5t-154 427.5q0 193 101 411.5t327 370.5t505 152zM1076 1418q-168 0 -304 -130t-230 -435q-74 -240 -74 -433q0 -174 81 -265t221 -91
q163 0 297.5 128.5t218 406.5t83.5 458q0 177 -79.5 269t-213.5 92zM1473 1945h24q-13 -130 -77.5 -199t-150.5 -69q-71 0 -185 47q-100 43 -142 43q-80 0 -108 -90h-28q5 120 70.5 193.5t152.5 73.5q63 0 180 -49q98 -40 145 -40q81 0 119 90z" />
    <glyph glyph-name="OE" unicode="&#x152;" horiz-adv-x="1972" 
d="M2047 1479l-57 -483h-92q7 73 7 119q0 139 -60.5 204.5t-180.5 65.5h-52q-60 0 -88.5 -21t-40.5 -67l-128 -482q150 10 219.5 59t113.5 169h87l-170 -642h-87q12 66 12 125q0 101 -44 146t-156 53l-141 -527q-7 -29 -7 -45q0 -31 18 -45.5t61 -14.5h131q165 0 285 96.5
t194 317.5h90l-119 -507h-837l-313 -10q-279 0 -437.5 156.5t-158.5 429.5q0 257 118 473t313 331t446 115q51 0 140 -6q147 -10 260 -10h674zM1143 1156q12 48 12 83q0 78 -43 118.5t-127 40.5q-131 0 -261.5 -103.5t-210.5 -315.5q-92 -243 -92 -538q0 -140 30 -212
t92 -110.5t145 -38.5q89 0 141 48t89 187z" />
    <glyph glyph-name="oe" unicode="&#x153;" horiz-adv-x="1745" 
d="M1034 363q-6 -44 -6 -73q0 -95 54 -152t140 -57q76 0 151 36.5t176 137.5l62 -51q-119 -128 -237 -183.5t-242 -55.5q-87 0 -153 30t-124 98q-160 -128 -347 -128q-189 0 -307 117t-118 307q0 161 78 298t214 215.5t295 78.5q105 0 180 -33t146 -113q197 154 393 154
q132 0 207 -65t75 -166q0 -143 -161 -246q-129 -83 -476 -149zM687 900q-69 0 -125 -51q-77 -71 -140.5 -255t-63.5 -359q0 -92 40.5 -138.5t106.5 -46.5q69 0 132.5 58.5t129 252.5t65.5 352q0 92 -40 139.5t-105 47.5zM1044 447q178 30 272.5 122t94.5 201
q0 56 -28.5 89.5t-73.5 33.5q-71 0 -137 -89q-83 -113 -128 -357z" />
    <glyph glyph-name="endash" unicode="&#x2013;" horiz-adv-x="1024" 
d="M-25 587h1024v-130h-1024v130z" />
    <glyph glyph-name="emdash" unicode="&#x2014;" horiz-adv-x="2048" 
d="M-35 590h2048v-128h-2048v128z" />
    <glyph glyph-name="quotedblleft" unicode="&#x201c;" horiz-adv-x="985" 
d="M651 1512l24 -81q-154 -46 -219.5 -103.5t-65.5 -102.5q0 -19 9 -28q6 -6 39 -16q65 -21 88 -47q40 -44 40 -112q0 -71 -51 -119.5t-131 -48.5q-82 0 -137 60.5t-55 156.5q0 162 142 293q106 97 317 148zM1149 1512l25 -81q-155 -46 -220 -103.5t-65 -102.5q0 -19 8 -28
q6 -6 39 -17q66 -20 89 -46q40 -45 40 -112q0 -71 -51.5 -119.5t-131.5 -48.5q-82 0 -137 60.5t-55 156.5q0 160 140 290q106 99 319 151z" />
    <glyph glyph-name="quotedblright" unicode="&#x201d;" horiz-adv-x="985" 
d="M158 854l-24 85q154 46 219.5 103t65.5 102q0 19 -8 28q-6 6 -39 16q-66 21 -89 46q-40 45 -40 112q0 71 51.5 119.5t131.5 48.5q81 0 136 -60t55 -157q0 -163 -142 -293q-106 -98 -317 -150zM656 854l-24 85q154 46 219.5 103t65.5 102q0 19 -8 28q-6 6 -39 16
q-66 21 -89 47q-40 44 -40 111q0 71 51.5 119.5t131.5 48.5q81 0 136 -60t55 -156q0 -162 -139 -292q-106 -99 -320 -152z" />
    <glyph glyph-name="quoteleft" unicode="&#x2018;" horiz-adv-x="530" 
d="M680 1515l24 -82q-154 -45 -219.5 -102.5t-65.5 -103.5q0 -29 30 -38q81 -25 103 -48q43 -45 43 -116t-51 -119.5t-131 -48.5q-82 0 -137 60t-55 156q0 163 142 293q106 97 317 149z" />
    <glyph glyph-name="quoteright" unicode="&#x2019;" horiz-adv-x="530" 
d="M156 857l-24 82q154 45 219.5 102.5t65.5 102.5q0 30 -30 39q-81 25 -103 48q-43 45 -43 115q0 71 51.5 119.5t131.5 48.5q81 0 136 -60t55 -156q0 -162 -142 -293q-104 -96 -317 -148z" />
    <glyph glyph-name="divide" unicode="&#xf7;" horiz-adv-x="1124" 
d="M564 1116q43 0 73 -30t30 -72t-30 -72t-73 -30q-42 0 -72 30t-30 72t30 72t72 30zM16 744h1093v-132h-1093v132zM563 454q43 0 73 -30.5t30 -72.5q0 -43 -30 -73t-73 -30q-42 0 -72.5 30t-30.5 73q0 42 30 72.5t73 30.5z" />
    <glyph glyph-name="lozenge" unicode="&#x25ca;" horiz-adv-x="1012" 
d="M549 1422l418 -713l-418 -709h-111l-391 709l391 713h111zM495 1325l-340 -616l340 -615l359 615z" />
    <glyph glyph-name="ydieresis" unicode="&#xff;" horiz-adv-x="1063" 
d="M675 284q85 123 131.5 239.5t46.5 159.5q0 24 -16 67q-32 79 -32 118q0 55 32 88t84 33q51 0 82 -33t31 -87q0 -103 -108 -325q-148 -304 -332 -543t-327 -328q-107 -67 -205 -67q-89 0 -143 46t-54 114q0 59 38 97t97 38q50 0 81 -35t32 -102q0 -29 7 -39t21 -10
q25 0 73 24t116 91q88 88 153 178l-51 231q-71 322 -95 396q-40 127 -78 164q-19 18 -37 18q-25 0 -48.5 -26t-66.5 -135l-78 33q120 300 293 300q94 0 158 -97q80 -122 195 -608zM483 1424q55 0 94 -39.5t39 -95.5t-39 -95t-94 -39q-56 0 -95 39t-39 95q0 55 40 95t94 40z
M885 1424q55 0 94 -39.5t39 -95.5q0 -55 -39 -94.5t-94 -39.5t-94.5 39t-39.5 95q0 55 40 95t94 40z" />
    <glyph glyph-name="Ydieresis" unicode="&#x178;" horiz-adv-x="1442" 
d="M282 1479h623l-23 -95h-85q-53 0 -72.5 -11.5t-19.5 -27.5q0 -14 10 -39l214 -528l319 426q38 51 38 95q0 37 -30 59t-114 26l26 95h483l-26 -95q-68 -8 -108.5 -32t-83.5 -81l-437 -589l-137 -505q-3 -13 -3 -25q0 -28 21 -43.5t67 -15.5h116l-24 -93h-736l29 93h107
q89 0 109 71l132 486l-268 656q-19 47 -41.5 62.5t-67.5 15.5h-39zM892 1944q55 0 94 -39.5t39 -95.5t-39 -95t-94 -39q-56 0 -95 39t-39 95q0 55 40 95t94 40zM1294 1944q55 0 94 -39.5t39 -95.5q0 -55 -39 -94.5t-94 -39.5t-94.5 39t-39.5 95q0 55 40 95t94 40z" />
    <glyph glyph-name="fraction" unicode="&#x2044;" horiz-adv-x="342" 
d="M622 1395h93l-1015 -1395h-94z" />
    <glyph glyph-name="fraction" unicode="&#x2215;" horiz-adv-x="342" 
d="M622 1395h93l-1015 -1395h-94z" />
    <glyph glyph-name="Euro" unicode="&#x20ac;" horiz-adv-x="1176" 
d="M520 750q-8 -41 -16 -97h418l-45 -108h-381q-2 -24 -2 -64q0 -192 83.5 -295.5t217.5 -103.5q207 0 321 197l70 -43q-66 -125 -179 -195t-255 -70q-228 0 -384.5 161t-156.5 398v15h-117l41 108h80q2 24 18 97h-139l41 108h123q77 265 257.5 410t426.5 145
q75 0 149.5 -36.5t112.5 -88.5l74 84h74l-84 -418h-76q-4 181 -64 275t-167 94q-134 0 -248.5 -123.5t-167.5 -341.5h377l-45 -108h-357z" />
    <glyph glyph-name="guilsinglleft" unicode="&#x2039;" horiz-adv-x="569" 
d="M482 992h108l-229 -457l57 -410h-91l-272 448z" />
    <glyph glyph-name="guilsinglright" unicode="&#x203a;" horiz-adv-x="569" 
d="M181 992h96l268 -448l-425 -419h-108l230 458z" />
    <glyph glyph-name="fi" unicode="&#xf001;" horiz-adv-x="1403" 
d="M627 939h386q104 0 228 12l-190 -671q-31 -109 -31 -132q0 -22 8 -32.5t22 -10.5q28 0 63 36q55 58 134 211l70 -41q-93 -195 -183 -270.5t-192 -75.5q-82 0 -130 47t-48 126q0 66 25 150l131 455q8 27 8 42q0 29 -21.5 44t-78.5 15h-226l-149 -630q-72 -305 -167 -555
q-156 -19 -253 -52q-27 -9 -37 -9q-25 0 -25 22q0 15 31 75q121 231 175 460l163 689h-163l28 95h161q89 281 217 410q164 165 397 165q141 0 219 -59.5t78 -147.5q0 -68 -41 -110.5t-103 -42.5q-53 0 -86 32t-33 82q0 34 28 81q11 18 11 32q0 22 -20 36.5t-60 14.5
q-117 0 -208 -131q-72 -104 -138 -362z" />
    <glyph glyph-name="fi" unicode="&#xfb01;" horiz-adv-x="1403" 
d="M627 939h386q104 0 228 12l-190 -671q-31 -109 -31 -132q0 -22 8 -32.5t22 -10.5q28 0 63 36q55 58 134 211l70 -41q-93 -195 -183 -270.5t-192 -75.5q-82 0 -130 47t-48 126q0 66 25 150l131 455q8 27 8 42q0 29 -21.5 44t-78.5 15h-226l-149 -630q-72 -305 -167 -555
q-156 -19 -253 -52q-27 -9 -37 -9q-25 0 -25 22q0 15 31 75q121 231 175 460l163 689h-163l28 95h161q89 281 217 410q164 165 397 165q141 0 219 -59.5t78 -147.5q0 -68 -41 -110.5t-103 -42.5q-53 0 -86 32t-33 82q0 34 28 81q11 18 11 32q0 22 -20 36.5t-60 14.5
q-117 0 -208 -131q-72 -104 -138 -362z" />
    <glyph glyph-name="fl" unicode="&#xf002;" horiz-adv-x="1403" 
d="M1176 1473q114 10 222 29l-368 -1293q-13 -47 -13 -65t7 -27t21 -9q25 0 55 30q72 74 144 199l70 -37q-104 -188 -196.5 -258.5t-186.5 -70.5q-78 0 -122 43.5t-44 121.5q0 67 37 195l256 886q-22 44 -22 69q0 19 17 48q15 26 15 42q0 25 -25 43t-73 18q-102 0 -180 -93
q-101 -120 -174 -405h206l-31 -107h-205l-145 -608q-86 -358 -165 -562q-85 -12 -220 -41q-66 -15 -78 -15q-17 0 -17 14q0 8 9 24q47 84 112 257t101 323l145 608h-160l26 107h160q76 228 171 361q71 100 188.5 157t258.5 57q46 0 97 -10t107 -31z" />
    <glyph glyph-name="fl" unicode="&#xfb02;" horiz-adv-x="1403" 
d="M1176 1473q114 10 222 29l-368 -1293q-13 -47 -13 -65t7 -27t21 -9q25 0 55 30q72 74 144 199l70 -37q-104 -188 -196.5 -258.5t-186.5 -70.5q-78 0 -122 43.5t-44 121.5q0 67 37 195l256 886q-22 44 -22 69q0 19 17 48q15 26 15 42q0 25 -25 43t-73 18q-102 0 -180 -93
q-101 -120 -174 -405h206l-31 -107h-205l-145 -608q-86 -358 -165 -562q-85 -12 -220 -41q-66 -15 -78 -15q-17 0 -17 14q0 8 9 24q47 84 112 257t101 323l145 608h-160l26 107h160q76 228 171 361q71 100 188.5 157t258.5 57q46 0 97 -10t107 -31z" />
    <glyph glyph-name="daggerdbl" unicode="&#x2021;" horiz-adv-x="1024" 
d="M720 1054q36 2 61 11q19 6 66 34q50 29 75.5 37t55.5 8q60 0 94 -33t34 -88q0 -58 -37.5 -95t-95.5 -37q-51 0 -126 41q-50 27 -73 33.5t-72 7.5q-4 -33 -4 -51q0 -83 67 -174q-183 -91 -183 -229q0 -69 67 -159q-76 -48 -114.5 -93t-62.5 -110q33 0 58 7q17 4 67 32
q52 29 69 34q22 7 46 7q57 0 93.5 -35t36.5 -90q0 -58 -37 -95t-96 -37q-26 0 -50 8t-76 38q-38 21 -64.5 29t-76.5 11q-7 -33 -7 -59q0 -25 9 -88q14 -96 14 -135q0 -81 -45 -129.5t-110 -48.5q-57 0 -93.5 36t-36.5 93q0 36 20 78.5t83 116.5q49 58 64.5 82.5t24.5 53.5
q-29 0 -51.5 -7.5t-75.5 -36.5q-75 -42 -132 -42q-59 0 -92.5 34.5t-33.5 90.5q0 55 39.5 92t102.5 37q45 0 106 -33q48 -26 78 -34t83 -10q5 26 5 48q0 88 -65 173q179 94 179 229q0 38 -13 69t-60 93q138 70 190 204q-44 -2 -90 -28q-67 -38 -91 -45q-31 -11 -63 -11
q-66 0 -101.5 35.5t-35.5 94.5q0 54 38 90.5t98 36.5q40 0 94 -29q73 -38 107 -49q25 -9 68 -14q5 28 5 55q0 36 -9 117q-10 79 -10 110q0 83 41.5 130.5t105.5 47.5q57 0 94 -36.5t37 -93.5q0 -40 -24 -87t-107 -140q-51 -55 -62 -103z" />
    <glyph glyph-name="periodcentered" unicode="&#x2219;" horiz-adv-x="588" 
d="M370 947q65 0 111 -46t46 -112q0 -65 -46 -111t-111 -46q-66 0 -112 46t-46 111q0 66 46 112t112 46z" />
    <glyph glyph-name="quotesinglbase" unicode="&#x201a;" horiz-adv-x="530" 
d="M2 -381l-24 79q154 46 219.5 103.5t65.5 102.5q0 19 -8 28q-6 6 -39 16q-66 21 -89 46q-40 45 -40 112q0 72 51.5 120.5t131.5 48.5q81 0 136 -60t55 -156q0 -161 -142 -291q-105 -97 -317 -149z" />
    <glyph glyph-name="quotedblbase" unicode="&#x201e;" horiz-adv-x="985" 
d="M-39 -356l-24 81q154 46 219.5 103.5t65.5 102.5q0 19 -8 28q-6 6 -39 16q-66 20 -89 47q-40 44 -40 111q0 72 51.5 120t131.5 48q81 0 136 -60t55 -156q0 -162 -142 -293q-106 -97 -317 -148zM459 -356l-24 81q154 46 219.5 103.5t65.5 102.5q0 19 -8 28q-6 6 -39 16
q-66 20 -90 47q-39 44 -39 112q0 71 51.5 119t131.5 48q81 0 136 -60t55 -156q0 -160 -139 -290q-106 -99 -320 -151z" />
    <glyph glyph-name="perthousand" unicode="&#x2030;" horiz-adv-x="2390" 
d="M577 1424q97 0 155 -65t58 -179q0 -134 -54.5 -254t-136 -179.5t-168.5 -59.5q-94 0 -152 66t-58 184q0 131 56 251t137 178t163 58zM579 1366q-19 0 -35 -13q-27 -20 -46 -71.5t-75 -266.5q-38 -143 -38 -209q0 -30 13.5 -45.5t33.5 -15.5q32 0 57 36t83 249.5t58 269.5
q0 29 -15.5 47.5t-35.5 18.5zM1222 1395h93l-1015 -1395h-94zM1086 708q97 0 155 -65t58 -179q0 -134 -54.5 -254t-136 -179.5t-167.5 -59.5q-95 0 -153 66t-58 184q0 131 56 251t137 178t163 58zM1088 650q-19 0 -35 -13q-27 -20 -46 -71.5t-75 -266.5q-38 -143 -38 -209
q0 -30 13.5 -45.5t33.5 -15.5q32 0 57 36t83 249.5t58 269.5q0 29 -15.5 47.5t-35.5 18.5zM1738 708q96 0 154.5 -65t58.5 -179q0 -134 -54.5 -254t-136 -179.5t-168.5 -59.5q-94 0 -152 66t-58 184q0 131 55.5 251t136.5 178t164 58zM1739 650q-18 0 -35 -13
q-26 -20 -45 -71.5t-76 -266.5q-37 -143 -37 -209q0 -30 13 -45.5t34 -15.5q32 0 57 36t83 249.5t58 269.5q0 29 -15.5 47.5t-36.5 18.5z" />
    <glyph glyph-name="Acircumflex" unicode="&#xc2;" horiz-adv-x="1518" 
d="M985 1479h135l179 -1275q8 -58 38 -80q42 -31 112 -31h46l-25 -93h-680l23 93h50q79 0 107.5 19.5t28.5 59.5q0 14 -3 32l-37 266h-501l-99 -154q-41 -65 -41 -119q0 -49 32.5 -76.5t99.5 -27.5h41l-23 -93h-531l23 93q69 4 109 32q77 53 116 113zM871 1110l-342 -529
h415zM1092 1999h213l88 -378h-34l-185 206l-425 -206h-39z" />
    <glyph glyph-name="Ecircumflex" unicode="&#xca;" horiz-adv-x="1518" 
d="M311 1479h1262l-109 -481h-90q16 88 16 133q0 114 -70 183.5t-178 69.5h-219q-75 0 -99 -89l-133 -487h75q127 0 203 56.5t131 199.5h88l-178 -670h-87q14 84 14 140q0 88 -51.5 135.5t-140.5 47.5h-78l-144 -528q-5 -18 -5 -35q0 -30 22.5 -45.5t79.5 -15.5h153
q205 0 345 100t227 317h91l-159 -510h-1278l27 93h76q80 0 100 74l308 1128q4 16 4 30q0 28 -19.5 43.5t-64.5 15.5h-144zM1032 1999h213l88 -378h-34l-185 206l-425 -206h-39z" />
    <glyph glyph-name="Aacute" unicode="&#xc1;" horiz-adv-x="1518" 
d="M985 1479h135l179 -1275q8 -58 38 -80q42 -31 112 -31h46l-25 -93h-680l23 93h50q79 0 107.5 19.5t28.5 59.5q0 14 -3 32l-37 266h-501l-99 -154q-41 -65 -41 -119q0 -49 32.5 -76.5t99.5 -27.5h41l-23 -93h-531l23 93q69 4 109 32q77 53 116 113zM871 1110l-342 -529
h415zM985 1624l-30 26l132 189q68 97 107.5 126t81.5 29q49 0 83.5 -33t34.5 -77q0 -71 -113 -123z" />
    <glyph glyph-name="Edieresis" unicode="&#xcb;" horiz-adv-x="1518" 
d="M311 1479h1262l-109 -481h-90q16 88 16 133q0 114 -70 183.5t-178 69.5h-219q-75 0 -99 -89l-133 -487h75q127 0 203 56.5t131 199.5h88l-178 -670h-87q14 84 14 140q0 88 -51.5 135.5t-140.5 47.5h-78l-144 -528q-5 -18 -5 -35q0 -30 22.5 -45.5t79.5 -15.5h153
q205 0 345 100t227 317h91l-159 -510h-1278l27 93h76q80 0 100 74l308 1128q4 16 4 30q0 28 -19.5 43.5t-64.5 15.5h-144zM820 1944q55 0 94 -39.5t39 -95.5t-39 -95t-94 -39q-56 0 -95 39t-39 95q0 55 40 95t94 40zM1222 1944q55 0 94 -39.5t39 -95.5q0 -55 -39 -94.5
t-94 -39.5t-94.5 39t-39.5 95q0 55 40 95t94 40z" />
    <glyph glyph-name="Egrave" unicode="&#xc8;" horiz-adv-x="1518" 
d="M311 1479h1262l-109 -481h-90q16 88 16 133q0 114 -70 183.5t-178 69.5h-219q-75 0 -99 -89l-133 -487h75q127 0 203 56.5t131 199.5h88l-178 -670h-87q14 84 14 140q0 88 -51.5 135.5t-140.5 47.5h-78l-144 -528q-5 -18 -5 -35q0 -30 22.5 -45.5t79.5 -15.5h153
q205 0 345 100t227 317h91l-159 -510h-1278l27 93h76q80 0 100 74l308 1128q4 16 4 30q0 28 -19.5 43.5t-64.5 15.5h-144zM1128 1652l-33 -27l-301 139q-106 48 -106 120q0 41 37.5 74.5t88.5 33.5q79 0 170 -133z" />
    <glyph glyph-name="Iacute" unicode="&#xcd;" horiz-adv-x="909" 
d="M330 1479h727l-24 -95h-85q-59 0 -84.5 -17.5t-36.5 -58.5l-301 -1129q-4 -16 -4 -28q0 -28 19 -40q29 -18 86 -18h108l-24 -93h-710l25 93h80q86 0 105 74l300 1124q5 19 5 36q0 27 -20.5 42t-71.5 15h-116zM611 1624l-30 26l132 189q68 97 107.5 126t81.5 29
q49 0 83.5 -33t34.5 -77q0 -71 -113 -123z" />
    <glyph glyph-name="Icircumflex" unicode="&#xce;" horiz-adv-x="909" 
d="M330 1479h727l-24 -95h-85q-59 0 -84.5 -17.5t-36.5 -58.5l-301 -1129q-4 -16 -4 -28q0 -28 19 -40q29 -18 86 -18h108l-24 -93h-710l25 93h80q86 0 105 74l300 1124q5 19 5 36q0 27 -20.5 42t-71.5 15h-116zM752 1999h213l88 -378h-34l-185 206l-425 -206h-39z" />
    <glyph glyph-name="Idieresis" unicode="&#xcf;" horiz-adv-x="909" 
d="M330 1479h727l-24 -95h-85q-59 0 -84.5 -17.5t-36.5 -58.5l-301 -1129q-4 -16 -4 -28q0 -28 19 -40q29 -18 86 -18h108l-24 -93h-710l25 93h80q86 0 105 74l300 1124q5 19 5 36q0 27 -20.5 42t-71.5 15h-116zM536 1944q55 0 94 -39.5t39 -95.5t-39 -95t-94 -39
q-56 0 -95 39t-39 95q0 55 40 95t94 40zM938 1944q55 0 94 -39.5t39 -95.5q0 -55 -39 -94.5t-94 -39.5t-94.5 39t-39.5 95q0 55 40 95t94 40z" />
    <glyph glyph-name="Igrave" unicode="&#xcc;" horiz-adv-x="909" 
d="M330 1479h727l-24 -95h-85q-59 0 -84.5 -17.5t-36.5 -58.5l-301 -1129q-4 -16 -4 -28q0 -28 19 -40q29 -18 86 -18h108l-24 -93h-710l25 93h80q86 0 105 74l300 1124q5 19 5 36q0 27 -20.5 42t-71.5 15h-116zM874 1652l-33 -27l-301 139q-106 48 -106 120q0 41 37.5 74.5
t88.5 33.5q79 0 170 -133z" />
    <glyph glyph-name="Oacute" unicode="&#xd3;" horiz-adv-x="1706" 
d="M1073 1514q282 0 452 -165.5t170 -430.5q0 -226 -101 -434q-115 -238 -341.5 -375.5t-493.5 -137.5q-311 0 -465 181.5t-154 427.5q0 193 101 411.5t327 370.5t505 152zM1076 1418q-168 0 -304 -130t-230 -435q-74 -240 -74 -433q0 -174 81 -265t221 -91
q163 0 297.5 128.5t218 406.5t83.5 458q0 177 -79.5 269t-213.5 92zM949 1624l-30 26l132 189q68 97 107.5 126t81.5 29q49 0 83.5 -33t34.5 -77q0 -71 -113 -123z" />
    <glyph glyph-name="Ocircumflex" unicode="&#xd4;" horiz-adv-x="1706" 
d="M1073 1514q282 0 452 -165.5t170 -430.5q0 -226 -101 -434q-115 -238 -341.5 -375.5t-493.5 -137.5q-311 0 -465 181.5t-154 427.5q0 193 101 411.5t327 370.5t505 152zM1076 1418q-168 0 -304 -130t-230 -435q-74 -240 -74 -433q0 -174 81 -265t221 -91
q163 0 297.5 128.5t218 406.5t83.5 458q0 177 -79.5 269t-213.5 92zM1126 1999h213l88 -378h-34l-185 206l-425 -206h-39z" />
    <glyph glyph-name="apple" unicode="&#xf000;" horiz-adv-x="1618" 
 />
    <glyph glyph-name="Ograve" unicode="&#xd2;" horiz-adv-x="1706" 
d="M1073 1514q282 0 452 -165.5t170 -430.5q0 -226 -101 -434q-115 -238 -341.5 -375.5t-493.5 -137.5q-311 0 -465 181.5t-154 427.5q0 193 101 411.5t327 370.5t505 152zM1076 1418q-168 0 -304 -130t-230 -435q-74 -240 -74 -433q0 -174 81 -265t221 -91
q163 0 297.5 128.5t218 406.5t83.5 458q0 177 -79.5 269t-213.5 92zM1252 1652l-33 -27l-301 139q-106 48 -106 120q0 41 37.5 74.5t88.5 33.5q79 0 170 -133z" />
    <glyph glyph-name="Uacute" unicode="&#xda;" horiz-adv-x="1706" 
d="M309 1479h734l-25 -94h-108q-83 0 -103 -73l-208 -774q-28 -104 -28 -171q0 -133 85.5 -211.5t229.5 -78.5q157 0 269.5 97t159.5 284l177 703q10 37 10 73q0 55 -19.5 87t-56.5 48t-119 16l26 94h526l-22 -94q-93 -5 -146 -48t-74 -127l-188 -752
q-43 -171 -124.5 -273.5t-202.5 -158t-290 -55.5q-267 0 -408 112.5t-141 289.5q0 95 29 202l200 727q4 14 4 27q0 27 -20.5 41.5t-70.5 14.5h-121zM967 1624l-30 26l132 189q68 97 107.5 126t81.5 29q49 0 83.5 -33t34.5 -77q0 -71 -113 -123z" />
    <glyph glyph-name="Ucircumflex" unicode="&#xdb;" horiz-adv-x="1706" 
d="M309 1479h734l-25 -94h-108q-83 0 -103 -73l-208 -774q-28 -104 -28 -171q0 -133 85.5 -211.5t229.5 -78.5q157 0 269.5 97t159.5 284l177 703q10 37 10 73q0 55 -19.5 87t-56.5 48t-119 16l26 94h526l-22 -94q-93 -5 -146 -48t-74 -127l-188 -752
q-43 -171 -124.5 -273.5t-202.5 -158t-290 -55.5q-267 0 -408 112.5t-141 289.5q0 95 29 202l200 727q4 14 4 27q0 27 -20.5 41.5t-70.5 14.5h-121zM1151 1999h213l88 -378h-34l-185 206l-425 -206h-39z" />
    <glyph glyph-name="Ugrave" unicode="&#xd9;" horiz-adv-x="1706" 
d="M309 1479h734l-25 -94h-108q-83 0 -103 -73l-208 -774q-28 -104 -28 -171q0 -133 85.5 -211.5t229.5 -78.5q157 0 269.5 97t159.5 284l177 703q10 37 10 73q0 55 -19.5 87t-56.5 48t-119 16l26 94h526l-22 -94q-93 -5 -146 -48t-74 -127l-188 -752
q-43 -171 -124.5 -273.5t-202.5 -158t-290 -55.5q-267 0 -408 112.5t-141 289.5q0 95 29 202l200 727q4 14 4 27q0 27 -20.5 41.5t-70.5 14.5h-121zM1300 1652l-33 -27l-301 139q-106 48 -106 120q0 41 37.5 74.5t88.5 33.5q79 0 170 -133z" />
    <glyph glyph-name="dotlessi" unicode="&#x131;" horiz-adv-x="797" 
d="M183 939l453 19l-215 -742q-14 -50 -14 -73q0 -18 7 -27.5t20 -9.5q29 0 74 43q75 71 147 201l73 -42q-187 -337 -411 -337q-76 0 -120 45t-44 123q0 54 14 102l149 518q5 14 5 29q0 28 -23 44.5t-79 16.5h-64z" />
    <glyph glyph-name="circumflex" unicode="&#x2c6;" horiz-adv-x="682" 
d="M469 1479h213l88 -378h-34l-185 206l-425 -206h-39z" />
    <glyph glyph-name="tilde" unicode="&#x2dc;" horiz-adv-x="682" 
d="M865 1425h24q-13 -130 -77.5 -199t-150.5 -69q-71 0 -185 47q-100 43 -142 43q-80 0 -108 -90h-28q5 120 70.5 193.5t152.5 73.5q63 0 180 -49q98 -40 145 -40q81 0 119 90z" />
    <glyph glyph-name="macron" unicode="&#x2c9;" horiz-adv-x="682" 
d="M210 1361h703l-49 -165h-702z" />
    <glyph glyph-name="breve" unicode="&#x2d8;" horiz-adv-x="682" 
d="M240 1487h70q1 -90 54 -143.5t141 -53.5q166 0 279 197h63q-55 -200 -153 -293t-217 -93q-111 0 -178.5 72t-67.5 191q0 36 9 123z" />
    <glyph glyph-name="dotaccent" unicode="&#x2d9;" horiz-adv-x="682" 
d="M525 1424q55 0 94 -39.5t39 -95.5t-39 -95t-94 -39q-56 0 -95 39t-39 95q0 55 40 95t94 40z" />
    <glyph glyph-name="ring" unicode="&#x2da;" horiz-adv-x="682" 
d="M504 1498q88 0 149.5 -61.5t61.5 -147.5q0 -87 -62 -148.5t-148 -61.5q-87 0 -148.5 61.5t-61.5 148.5t61.5 148t147.5 61zM502 1405q-48 0 -82 -34t-34 -82t34 -82.5t82 -34.5t82.5 34.5t34.5 82.5t-34 82t-83 34z" />
    <glyph glyph-name="cedilla" unicode="&#xb8;" horiz-adv-x="682" 
d="M348 -21q106 -52 106 -144q0 -63 -46 -115.5t-144.5 -78t-354.5 -32.5l29 87q142 6 187.5 31t45.5 62q0 50 -86 75l192 156h114z" />
    <glyph glyph-name="hungarumlaut" unicode="&#x2dd;" horiz-adv-x="682" 
d="M230 1104l-30 26l132 189q68 97 107.5 126t81.5 29q49 0 83.5 -33t34.5 -77q0 -71 -113 -123zM634 1104l-30 26l132 189q68 98 107.5 126.5t81.5 28.5q49 0 83.5 -33t34.5 -77q0 -71 -113 -123z" />
    <glyph glyph-name="ogonek" unicode="&#x2db;" horiz-adv-x="682" 
d="M199 19h83q-49 -68 -49 -123q0 -79 65 -140t157 -61l35 2l20 -56q-101 -55 -190 -55q-111 0 -185.5 68.5t-74.5 162.5q0 113 139 202z" />
    <glyph glyph-name="caron" unicode="&#x2c7;" horiz-adv-x="682" 
d="M583 1101h-213l-88 378h34l185 -206l407 206h39z" />
    <glyph glyph-name="Lslash" unicode="&#x141;" horiz-adv-x="1442" 
d="M685 713l-143 -534q-3 -13 -3 -27q0 -28 18 -41q26 -18 74 -18h197q125 0 255 103t219 307h91l-142 -503h-1251l25 93h96q86 0 104 69l119 440l-203 -65l31 112l202 64l159 587q3 13 3 26q0 27 -22 41q-28 17 -95 17h-93l24 95h761l-23 -95h-134q-49 0 -74 -20.5
t-39 -72.5l-126 -465l363 113l-30 -113z" />
    <glyph glyph-name="lslash" unicode="&#x142;" horiz-adv-x="797" 
d="M272 577l-219 -142l35 121l219 142l168 586q8 29 8 51q0 28 -24 44t-90 16h-50l26 84l455 19l-170 -590l200 129l-35 -121l-200 -130l-161 -557q-16 -56 -16 -80q0 -18 6.5 -27t18.5 -9q26 0 59 34q70 69 140 195l74 -39q-90 -175 -192 -253.5t-200 -78.5
q-75 0 -117 43.5t-42 122.5q0 68 21 140z" />
    <glyph glyph-name="Scaron" unicode="&#x160;" horiz-adv-x="1403" 
d="M1209 1359l115 91h87l-114 -511h-88q-4 181 -48 279t-126 152t-186 54q-134 0 -216 -73t-82 -182q0 -84 51 -132t307 -143q170 -64 238 -116.5t104.5 -130t36.5 -175.5q0 -139 -70 -254t-202 -181t-307 -66q-137 0 -240.5 37t-206.5 125l-83 -92h-92l115 531h89
q1 -184 49.5 -287.5t143.5 -160t221 -56.5q150 0 244 82t94 197q0 95 -71 152q-39 32 -277 127q-185 73 -248 120.5t-96.5 119t-33.5 170.5q0 208 140 343t362 135q111 0 204 -36t186 -119zM1044 1621h-213l-88 378h34l185 -206l407 206h39z" />
    <glyph glyph-name="scaron" unicode="&#x161;" horiz-adv-x="985" 
d="M153 642q0 148 121.5 247.5t326.5 99.5q168 0 254 -63t86 -155q0 -60 -36 -97.5t-91 -37.5q-52 0 -86 33t-34 81q0 31 25 75q12 21 12 30q0 21 -27 37.5t-87 16.5q-98 0 -159.5 -51.5t-61.5 -118.5q0 -43 28.5 -67t191.5 -81q122 -42 167 -74t70 -82.5t25 -110.5
q0 -95 -53 -176.5t-155 -129t-247 -47.5q-200 0 -299.5 70t-99.5 179q0 66 41 109t100 43q52 0 86 -33t34 -85q0 -41 -37 -87q-17 -21 -17 -33q0 -28 36 -49q47 -28 130 -28q107 0 170.5 51.5t63.5 123.5q0 42 -28 70t-127 60q-211 68 -267 124.5t-56 155.5zM735 1101h-213
l-88 378h34l185 -206l407 206h39z" />
    <glyph glyph-name="Zcaron" unicode="&#x17d;" horiz-adv-x="1442" 
d="M477 1479h1048v-84l-1085 -1302h302q115 0 204.5 40.5t164.5 124.5t162 269l81 -34l-151 -493h-1173v45l1122 1339h-229q-166 0 -285 -89t-246 -344l-84 33zM1063 1621h-213l-88 378h34l185 -206l407 206h39z" />
    <glyph glyph-name="zcaron" unicode="&#x17e;" horiz-adv-x="1063" 
d="M170 190q135 52 194.5 66t111.5 14q56 0 142 -30q124 -42 162 -42q42 0 75 23t83 102l64 -41q-80 -169 -173.5 -240t-203.5 -71q-46 0 -98.5 12.5t-155.5 55.5q-99 41 -143 53t-101 17l-21 -97q-5 -26 -14 -32q-11 -9 -41 -9q-29 0 -39.5 9t-10.5 30q0 68 54 165
t175 192.5t392 231.5q134 68 182.5 100.5t93.5 79.5q-113 -56 -207 -56q-69 0 -201 38q-101 29 -149 29q-46 0 -79.5 -21.5t-78.5 -91.5l-70 37q89 152 181 213.5t199 61.5q35 0 63 -6t102 -32q172 -63 236 -63t90 68q14 33 32 33q22 0 36.5 -14t14.5 -33q0 -50 -55 -139
q-75 -124 -217.5 -230.5t-425.5 -242.5q-93 -44 -139 -78q-31 -23 -60 -62zM774 1101h-213l-88 378h34l185 -206l407 206h39z" />
    <glyph glyph-name="brokenbar" unicode="&#xa6;" horiz-adv-x="1241" 
d="M598 1479h189v-675h-189v675zM598 295h189v-676h-189v676z" />
    <glyph glyph-name="Eth" unicode="&#xd0;" horiz-adv-x="1706" 
d="M311 683h-194l34 111h190l138 508q4 12 4 25q0 27 -23 42t-88 15h-115l29 95h723q310 0 474 -157t164 -437q0 -182 -71.5 -358t-182 -285.5t-284 -175.5t-389.5 -66h-761l25 93h82q83 0 109 94zM624 683l-138 -504q-4 -14 -4 -26q0 -29 18 -42q24 -18 71 -18h124
q120 0 228 56t189 161.5t142 303t61 377.5q0 194 -100 302q-87 93 -269 93q-82 0 -111 -18t-42 -64l-139 -510h288l-35 -111h-283z" />
    <glyph glyph-name="eth" unicode="&#xf0;" horiz-adv-x="1176" 
d="M841 929q-27 138 -80 226.5t-145 160.5l-267 -114l-34 80l220 94l-25 16l-95 49l41 57q124 -41 194 -73l189 79l40 -77l-133 -58q171 -104 271.5 -282t100.5 -383q0 -277 -155 -493q-172 -240 -457 -240q-199 0 -320 118.5t-121 303.5q0 156 80 297t214.5 220t286.5 79
q54 0 102.5 -15t92.5 -45zM674 905q-86 0 -158 -79q-51 -55 -97 -191q-81 -239 -81 -394q0 -85 43.5 -133t114.5 -48q76 0 132 61q87 95 143.5 277t56.5 313q0 93 -43.5 143.5t-110.5 50.5z" />
    <glyph glyph-name="Yacute" unicode="&#xdd;" horiz-adv-x="1442" 
d="M282 1479h623l-23 -95h-85q-53 0 -72.5 -11.5t-19.5 -27.5q0 -14 10 -39l214 -528l319 426q38 51 38 95q0 37 -30 59t-114 26l26 95h483l-26 -95q-68 -8 -108.5 -32t-83.5 -81l-437 -589l-137 -505q-3 -13 -3 -25q0 -28 21 -43.5t67 -15.5h116l-24 -93h-736l29 93h107
q89 0 109 71l132 486l-268 656q-19 47 -41.5 62.5t-67.5 15.5h-39zM857 1624l-30 26l132 189q68 97 107.5 126t81.5 29q49 0 83.5 -33t34.5 -77q0 -71 -113 -123z" />
    <glyph glyph-name="yacute" unicode="&#xfd;" horiz-adv-x="1063" 
d="M675 284q85 123 131.5 239.5t46.5 159.5q0 24 -16 67q-32 79 -32 118q0 55 32 88t84 33q51 0 82 -33t31 -87q0 -103 -108 -325q-148 -304 -332 -543t-327 -328q-107 -67 -205 -67q-89 0 -143 46t-54 114q0 59 38 97t97 38q50 0 81 -35t32 -102q0 -29 7 -39t21 -10
q25 0 73 24t116 91q88 88 153 178l-51 231q-71 322 -95 396q-40 127 -78 164q-19 18 -37 18q-25 0 -48.5 -26t-66.5 -135l-78 33q120 300 293 300q94 0 158 -97q80 -122 195 -608zM538 1104l-30 26l132 189q68 97 107.5 126t81.5 29q49 0 83.5 -33t34.5 -77q0 -71 -113 -123
z" />
    <glyph glyph-name="Thorn" unicode="&#xde;" horiz-adv-x="1518" 
d="M521 368l-50 -189q-4 -15 -4 -28q0 -29 20.5 -43.5t75.5 -14.5h116l-25 -93h-722l23 93h83q92 0 112 72l308 1132q6 20 6 33q0 26 -24 40t-98 14h-104l24 95h784l-24 -95h-146q-57 0 -75.5 -12.5t-28.5 -49.5l-37 -142h219q246 0 375.5 -101.5t129.5 -266.5
q0 -204 -165.5 -331.5t-517.5 -127.5q-94 0 -255 15zM546 457q87 -14 149 -14q152 0 243.5 46.5t145 147t53.5 234.5q0 111 -77 168q-62 46 -205 46h-141z" />
    <glyph glyph-name="thorn" unicode="&#xfe;" horiz-adv-x="1327" 
d="M564 773q82 107 162.5 152t173.5 45q134 0 223 -95.5t89 -255.5q0 -229 -148 -422q-169 -219 -400 -219q-97 0 -166 45t-101 127l-95 -336q-8 -25 -8 -38q0 -32 21 -47.5t82 -15.5h62l-29 -94h-610l28 94h76q45 0 72 23.5t43 77.5l429 1494q3 11 3 21q0 29 -21.5 45
t-68.5 16h-76l28 92l451 16zM785 835q-59 0 -118 -52q-82 -72 -146 -226t-64 -278q0 -84 39 -127.5t103 -43.5q124 0 223 184.5t99 360.5q0 90 -37.5 136t-98.5 46z" />
    <glyph glyph-name="minus" unicode="&#x2212;" horiz-adv-x="1241" 
d="M157 774h1121v-187h-1121v187z" />
    <glyph glyph-name="multiply" unicode="&#xd7;" horiz-adv-x="1331" 
d="M237 1076l133 133l393 -395l392 395l132 -133l-391 -395l391 -389l-132 -133l-392 390l-393 -390l-133 133l393 389z" />
    <glyph glyph-name="onesuperior" unicode="&#xb9;" horiz-adv-x="705" 
d="M377 1356q159 11 265 68h60l-159 -568q-7 -23 -7 -43q0 -23 13 -33q16 -12 49 -12h44l-15 -59h-407l16 59h56q27 0 42 13t26 52l118 417q4 12 4 21q0 14 -9 20.5t-32 6.5h-81z" />
    <glyph glyph-name="twosuperior" unicode="&#xb2;" horiz-adv-x="705" 
d="M329 867h194q49 0 74.5 19t43.5 67h58l-78 -244h-494l19 78q92 93 219 188q109 82 134 110q35 38 53.5 83.5t18.5 87.5q0 49 -30 79.5t-75 30.5q-38 0 -61 -18.5t-23 -41.5q0 -21 35 -42q56 -33 56 -83q0 -36 -27 -61t-68 -25q-53 0 -89 37.5t-36 97.5q0 80 70.5 137
t189.5 57q117 0 179 -50.5t62 -129.5q0 -73 -54 -135q-39 -44 -170 -116q-140 -77 -201 -126z" />
    <glyph glyph-name="threesuperior" unicode="&#xb3;" horiz-adv-x="705" 
d="M525 1066q85 -16 127 -58.5t42 -112.5q0 -85 -76 -146.5t-204 -61.5q-114 0 -177 51t-63 126q0 55 33 91.5t79 36.5q40 0 65.5 -24.5t25.5 -61.5q0 -23 -7.5 -40t-34.5 -45q-22 -22 -22 -37q0 -17 16.5 -30t43.5 -13q51 0 93.5 58.5t42.5 154.5q0 49 -21 68
q-22 19 -87 19q-55 1 -70 9.5t-15 25.5q0 14 10.5 23.5t29.5 9.5q11 0 39 -5q27 -6 47 -6q61 0 105 49t44 122q0 51 -22.5 77t-61.5 26q-29 0 -44 -11t-15 -25q0 -11 13 -27q28 -32 28 -61q0 -33 -24 -56t-61 -23q-44 0 -70.5 27.5t-26.5 75.5q0 66 57.5 109t173.5 43
q113 0 170 -45t57 -118q0 -79 -60 -127.5t-180 -67.5z" />
    <glyph glyph-name="onehalf" unicode="&#xbd;" horiz-adv-x="1763" 
d="M449 1356q159 11 265 68h60l-159 -568q-7 -23 -7 -43q0 -23 13 -33q16 -12 49 -12h44l-15 -59h-407l16 59h56q27 0 42 13t26 52l118 417q4 12 4 21q0 14 -9 20.5t-32 6.5h-81zM1440 1395h93l-1015 -1395h-94zM1264 158h194q49 0 74.5 19t43.5 67h58l-78 -244h-494l19 78
q92 93 219 188q109 82 134 110q35 38 53.5 83.5t18.5 87.5q0 49 -30 79.5t-75 30.5q-38 0 -61 -18.5t-23 -41.5q0 -21 35 -42q56 -33 56 -83q0 -36 -27 -61t-68 -25q-53 0 -89 37.5t-36 97.5q0 80 70.5 137t189.5 57q117 0 179 -50.5t62 -129.5q0 -73 -54 -135
q-39 -44 -170 -116q-140 -77 -201 -126z" />
    <glyph glyph-name="onequarter" unicode="&#xbc;" horiz-adv-x="1763" 
d="M449 1356q159 11 265 68h60l-159 -568q-7 -23 -7 -43q0 -23 13 -33q16 -12 49 -12h44l-15 -59h-407l16 59h56q27 0 42 13t26 52l118 417q4 12 4 21q0 14 -9 20.5t-32 6.5h-81zM1464 1395h93l-1015 -1395h-94zM1549 715h76l-133 -482h90l-17 -62h-94l-17 -70l-2 -15
q0 -16 14 -23q9 -6 67 -6l-17 -57h-333l17 57h38q12 0 28.5 15.5t22.5 41.5l15 57h-276l19 68zM1395 485l-265 -252h193z" />
    <glyph glyph-name="threequarters" unicode="&#xbe;" horiz-adv-x="1763" 
d="M598 1066q85 -16 127 -58.5t42 -112.5q0 -85 -76 -146.5t-204 -61.5q-114 0 -177 51t-63 126q0 55 33 91.5t79 36.5q40 0 65.5 -24.5t25.5 -61.5q0 -23 -7.5 -40t-34.5 -45q-22 -22 -22 -37q0 -17 16.5 -30t43.5 -13q51 0 93.5 58.5t42.5 154.5q0 49 -21 68
q-22 19 -87 19q-55 1 -70 9.5t-15 25.5q0 14 10.5 23.5t29.5 9.5q11 0 39 -5q27 -6 47 -6q61 0 105 49t44 122q0 51 -22.5 77t-61.5 26q-29 0 -44 -11t-15 -25q0 -11 13 -27q28 -32 28 -61q0 -33 -24 -56t-61 -23q-44 0 -70.5 27.5t-26.5 75.5q0 66 57.5 109t173.5 43
q113 0 170 -45t57 -118q0 -79 -60 -127.5t-180 -67.5zM1464 1395h93l-1015 -1395h-94zM1550 715h76l-133 -482h90l-17 -62h-94l-17 -70l-2 -15q0 -16 14 -23q9 -6 67 -6l-17 -57h-333l17 57h38q12 0 28.5 15.5t22.5 41.5l15 57h-276l19 68zM1396 485l-265 -252h193z" />
    <glyph glyph-name="franc" unicode="&#x20a3;" horiz-adv-x="1442" 
d="M586 393h262l-24 -107h-266l-31 -112q-3 -12 -3 -24q0 -27 19 -40q24 -17 73 -17h158l-25 -93h-744l22 93h84q80 0 102 81l31 112h-174l25 107h178l245 895q4 17 4 34q0 29 -19 43q-25 19 -70 19h-139l25 95h1250l-85 -480h-91q8 58 8 100q0 139 -78 212t-216 73h-181
q-73 0 -99 -96l-126 -474h113q255 0 318 258h93l-182 -679h-93q23 78 23 138q0 92 -50 141t-141 49h-107z" />
    <glyph glyph-name="Gbreve" unicode="&#x11e;" horiz-adv-x="1669" 
d="M1451 1357q39 38 67 99h88l-88 -525h-87q-8 263 -101 378t-245 115q-137 0 -263 -99.5t-230.5 -355t-104.5 -491.5q0 -203 86.5 -307.5t230.5 -104.5q120 0 194 62.5t127.5 226.5t53.5 205q0 24 -16.5 35.5t-61.5 11.5h-98l20 88h640l-24 -88h-47q-87 0 -106 -68
l-149 -539h-74l-43 186q-104 -112 -224.5 -163.5t-267.5 -51.5q-245 0 -412.5 155.5t-167.5 435.5q0 249 127 476t333.5 351.5t448.5 124.5q138 0 228 -36.5t166 -120.5zM834 2007h70q1 -90 54 -143.5t141 -53.5q166 0 279 197h63q-55 -200 -153 -293t-217 -93
q-111 0 -178.5 72t-67.5 191q0 36 9 123z" />
    <glyph glyph-name="gbreve" unicode="&#x11f;" horiz-adv-x="1251" 
d="M903 958q115 108 233 108q64 0 99 -29.5t35 -77.5q0 -42 -27.5 -70t-66.5 -28q-44 0 -82 51q-17 23 -23 27q-8 5 -20 5q-33 0 -66 -31q63 -43 94 -100t31 -128q0 -154 -115 -252.5t-343 -98.5q-46 0 -132 7q-59 5 -90 5q-101 0 -155 -29q-33 -18 -33 -51q0 -36 48 -48
q32 -8 238 -17q206 -8 268 -20q110 -23 168.5 -83.5t58.5 -147.5q0 -92 -61.5 -172.5t-191.5 -126t-359 -45.5q-197 0 -298.5 27t-143.5 73.5t-42 98.5q0 65 59.5 114t227.5 81q-70 20 -108.5 68.5t-38.5 109.5q0 84 64 148t198 90q-127 84 -127 221q0 147 126 249.5
t351 102.5q58 0 114 -7.5t110 -23.5zM696 910q-94 0 -160.5 -85.5t-66.5 -231.5q0 -92 39.5 -135.5t113.5 -43.5q90 0 146 74q73 96 73 238q0 95 -37.5 139.5t-107.5 44.5zM497 -29q-177 0 -260 -48q-58 -35 -58 -103q0 -60 51 -91q72 -44 220 -44q173 0 255 51t82 117
q0 55 -57.5 86.5t-232.5 31.5zM495 1487h70q1 -90 54 -143.5t141 -53.5q166 0 279 197h63q-55 -200 -153 -293t-217 -93q-111 0 -178.5 72t-67.5 191q0 36 9 123z" />
    <glyph glyph-name="Idot" unicode="&#x130;" horiz-adv-x="909" 
d="M330 1479h727l-24 -95h-85q-59 0 -84.5 -17.5t-36.5 -58.5l-301 -1129q-4 -16 -4 -28q0 -28 19 -40q29 -18 86 -18h108l-24 -93h-710l25 93h80q86 0 105 74l300 1124q5 19 5 36q0 27 -20.5 42t-71.5 15h-116zM749 1944q55 0 94 -39.5t39 -95.5t-39 -95t-94 -39
q-56 0 -95 39t-39 95q0 55 40 95t94 40z" />
    <glyph glyph-name="Scedilla" unicode="&#x15e;" horiz-adv-x="1403" 
d="M1209 1359l115 91h87l-114 -511h-88q-4 181 -48 279t-126 152t-186 54q-134 0 -216 -73t-82 -182q0 -84 51 -132t307 -143q170 -64 238 -116.5t104.5 -130t36.5 -175.5q0 -139 -70 -254t-202 -181t-307 -66q-137 0 -240.5 37t-206.5 125l-83 -92h-92l115 531h89
q1 -184 49.5 -287.5t143.5 -160t221 -56.5q150 0 244 82t94 197q0 95 -71 152q-39 32 -277 127q-185 73 -248 120.5t-96.5 119t-33.5 170.5q0 208 140 343t362 135q111 0 204 -36t186 -119zM709 -21q106 -52 106 -144q0 -63 -46 -115.5t-144.5 -78t-354.5 -32.5l29 87
q142 6 187.5 31t45.5 62q0 50 -86 75l192 156h114z" />
    <glyph glyph-name="scedilla" unicode="&#x15f;" horiz-adv-x="985" 
d="M153 642q0 148 121.5 247.5t326.5 99.5q168 0 254 -63t86 -155q0 -60 -36 -97.5t-91 -37.5q-52 0 -86 33t-34 81q0 31 25 75q12 21 12 30q0 21 -27 37.5t-87 16.5q-98 0 -159.5 -51.5t-61.5 -118.5q0 -43 28.5 -67t191.5 -81q122 -42 167 -74t70 -82.5t25 -110.5
q0 -95 -53 -176.5t-155 -129t-247 -47.5q-200 0 -299.5 70t-99.5 179q0 66 41 109t100 43q52 0 86 -33t34 -85q0 -41 -37 -87q-17 -21 -17 -33q0 -28 36 -49q47 -28 130 -28q107 0 170.5 51.5t63.5 123.5q0 42 -28 70t-127 60q-211 68 -267 124.5t-56 155.5zM500 -21
q106 -52 106 -144q0 -63 -46 -115.5t-144.5 -78t-354.5 -32.5l29 87q142 6 187.5 31t45.5 62q0 50 -86 75l192 156h114z" />
    <glyph glyph-name="Cacute" unicode="&#x106;" horiz-adv-x="1554" 
d="M1441 1340q59 35 87 112h90l-114 -558h-88q-1 218 -39 314.5t-120 149.5t-194 53q-124 0 -242.5 -96t-210.5 -325t-92 -475q0 -143 45 -233.5t135 -142t201 -51.5q142 0 266 94.5t201 283.5l84 -38q-86 -227 -251.5 -342t-394.5 -115q-284 0 -449 160.5t-165 430.5
q0 263 115.5 490t303 344.5t406.5 117.5q136 0 237 -41t189 -133zM921 1624l-30 26l132 189q68 97 107.5 126t81.5 29q49 0 83.5 -33t34.5 -77q0 -71 -113 -123z" />
    <glyph glyph-name="cacute" unicode="&#x107;" horiz-adv-x="1100" 
d="M893 265l69 -54q-95 -117 -216 -178.5t-251 -61.5q-181 0 -289 107t-108 284q0 161 85.5 311t222.5 233t295 83q151 0 232.5 -69t81.5 -175q0 -79 -44 -126.5t-110 -47.5q-60 0 -98.5 35.5t-38.5 89.5q0 37 19 62t90 63q22 11 22 23q0 18 -27 34q-37 22 -91 22
q-131 0 -225 -134q-119 -170 -119 -430q0 -124 53.5 -185.5t140.5 -61.5q150 0 306 176zM586 1104l-30 26l132 189q68 97 107.5 126t81.5 29q49 0 83.5 -33t34.5 -77q0 -71 -113 -123z" />
    <glyph glyph-name="Ccaron" unicode="&#x10c;" horiz-adv-x="1554" 
d="M1441 1340q59 35 87 112h90l-114 -558h-88q-1 218 -39 314.5t-120 149.5t-194 53q-124 0 -242.5 -96t-210.5 -325t-92 -475q0 -143 45 -233.5t135 -142t201 -51.5q142 0 266 94.5t201 283.5l84 -38q-86 -227 -251.5 -342t-394.5 -115q-284 0 -449 160.5t-165 430.5
q0 263 115.5 490t303 344.5t406.5 117.5q136 0 237 -41t189 -133zM1113 1621h-213l-88 378h34l185 -206l407 206h39z" />
    <glyph glyph-name="ccaron" unicode="&#x10d;" horiz-adv-x="1100" 
d="M893 265l69 -54q-95 -117 -216 -178.5t-251 -61.5q-181 0 -289 107t-108 284q0 161 85.5 311t222.5 233t295 83q151 0 232.5 -69t81.5 -175q0 -79 -44 -126.5t-110 -47.5q-60 0 -98.5 35.5t-38.5 89.5q0 37 19 62t90 63q22 11 22 23q0 18 -27 34q-37 22 -91 22
q-131 0 -225 -134q-119 -170 -119 -430q0 -124 53.5 -185.5t140.5 -61.5q150 0 306 176zM792 1101h-213l-88 378h34l185 -206l407 206h39z" />
    <glyph glyph-name="dmacron" unicode="&#x111;" horiz-adv-x="1366" 
d="M1290 1241h165l-35 -107h-161l-268 -938q-8 -29 -8 -47q0 -19 8.5 -28.5t23.5 -9.5q79 0 219 242l72 -39q-89 -179 -194 -261t-206 -82q-73 0 -115.5 43.5t-54.5 130.5q-87 -97 -162 -135.5t-157 -38.5q-145 0 -240.5 102t-95.5 267q0 162 84 326t202 243.5t253 79.5
q97 0 166 -40.5t118 -127.5l92 313h-354l36 107h349l19 63q4 15 4 29q0 24 -25.5 39.5t-91.5 15.5h-58l29 91l459 18zM708 863q-71 0 -128 -50q-81 -70 -145 -225.5t-64 -296.5q0 -96 36.5 -142t96.5 -46q77 0 150 76q93 95 150 282q43 141 43 234q0 80 -38.5 124t-100.5 44
z" />
    <glyph glyph-name="overscore" unicode="&#xaf;" horiz-adv-x="1024" 
d="M-12 1805h1048v-102h-1048v102z" />
    <glyph glyph-name="middot" unicode="&#xb7;" horiz-adv-x="682" 
d="M342 941q55 0 94 -39t39 -95t-39 -95.5t-94 -39.5q-56 0 -95 39.5t-39 94.5q0 56 40 95.5t94 39.5z" />
    <glyph glyph-name="foursuperior" unicode="&#xf003;" horiz-adv-x="705" 
d="M638 1424h76l-133 -482h90l-17 -62h-94l-17 -70l-2 -15q0 -16 14 -23q9 -6 67 -6l-17 -57h-333l17 57h38q12 0 28.5 15.5t22.5 41.5l15 57h-276l19 68zM484 1194l-265 -252h193z" />
    <glyph glyph-name="Abreve" unicode="&#x102;" horiz-adv-x="1518" 
d="M985 1479h135l179 -1275q8 -58 38 -80q42 -31 112 -31h46l-25 -93h-680l23 93h50q79 0 107.5 19.5t28.5 59.5q0 14 -3 32l-37 266h-501l-99 -154q-41 -65 -41 -119q0 -49 32.5 -76.5t99.5 -27.5h41l-23 -93h-531l23 93q69 4 109 32q77 53 116 113zM871 1110l-342 -529
h415zM820 2007h70q1 -90 54 -143.5t141 -53.5q166 0 279 197h63q-55 -200 -153 -293t-217 -93q-111 0 -178.5 72t-67.5 191q0 36 9 123z" />
    <glyph glyph-name="abreve" unicode="&#x103;" horiz-adv-x="1366" 
d="M894 795l54 144l256 19l-198 -714q-20 -73 -20 -93q0 -15 6.5 -23t19.5 -8q74 0 192 233l75 -41q-175 -341 -382 -341q-71 0 -110 43.5t-46 129.5q-76 -96 -147.5 -134.5t-151.5 -38.5q-137 0 -226 98.5t-89 269.5q0 164 79.5 314t204.5 233.5t256 83.5q90 0 145 -42
t82 -133zM725 849q-122 0 -219.5 -171t-97.5 -392q0 -103 31 -145.5t89 -42.5q61 0 131 61.5t124 206t54 307.5q0 97 -29.5 136.5t-82.5 39.5zM603 1487h70q1 -90 54 -143.5t141 -53.5q166 0 279 197h63q-55 -200 -153 -293t-217 -93q-111 0 -178.5 72t-67.5 191q0 36 9 123
z" />
    <glyph glyph-name="Aogonek" unicode="&#x104;" horiz-adv-x="1518" 
d="M985 1479h135l179 -1275q8 -58 38 -80q42 -31 112 -31h46l-25 -93h-680l23 93h50q79 0 107.5 19.5t28.5 59.5q0 14 -3 32l-37 266h-501l-99 -154q-41 -65 -41 -119q0 -49 32.5 -76.5t99.5 -27.5h41l-23 -93h-531l23 93q69 4 109 32q77 53 116 113zM871 1110l-342 -529
h415zM1129 19h83q-49 -68 -49 -123q0 -79 65 -140t157 -61l35 2l20 -56q-101 -55 -190 -55q-111 0 -185.5 68.5t-74.5 162.5q0 113 139 202z" />
    <glyph glyph-name="aogonek" unicode="&#x105;" horiz-adv-x="1366" 
d="M894 795l54 144l256 19l-198 -714q-20 -73 -20 -93q0 -15 6.5 -23t19.5 -8q74 0 192 233l75 -41q-175 -341 -382 -341q-71 0 -110 43.5t-46 129.5q-76 -96 -147.5 -134.5t-151.5 -38.5q-137 0 -226 98.5t-89 269.5q0 164 79.5 314t204.5 233.5t256 83.5q90 0 145 -42
t82 -133zM725 849q-122 0 -219.5 -171t-97.5 -392q0 -103 31 -145.5t89 -42.5q61 0 131 61.5t124 206t54 307.5q0 97 -29.5 136.5t-82.5 39.5zM899 19h83q-49 -68 -49 -123q0 -79 65 -140t157 -61l35 2l20 -56q-101 -55 -190 -55q-111 0 -185.5 68.5t-74.5 162.5
q0 113 139 202z" />
    <glyph glyph-name="Dcaron" unicode="&#x10e;" horiz-adv-x="1706" 
d="M325 1479h723q310 0 474 -157t164 -437q0 -182 -71.5 -358t-182 -285.5t-284 -175.5t-389.5 -66h-761l25 93h82q84 0 109 94l304 1115q4 12 4 25q0 27 -23 42t-88 15h-115zM734 93q120 0 228 56t189 161.5t142 303t61 377.5q0 194 -100 302q-87 93 -269 93
q-82 0 -111 -18t-42 -64l-307 -1125q-4 -14 -4 -26q0 -29 18 -42q24 -18 71 -18h124zM1083 1621h-213l-88 378h34l185 -206l407 206h39z" />
    <glyph glyph-name="dcaron" unicode="&#x10f;" horiz-adv-x="1495" 
d="M1343 988l-19 66q114 32 171 78.5t57 85.5q0 24 -24 31q-64 20 -90.5 47.5t-26.5 83.5q0 59 42 96.5t104 37.5q68 0 110.5 -49.5t42.5 -122.5q0 -111 -87 -209.5t-280 -144.5zM904 1479l459 18l-372 -1301q-8 -29 -8 -47q0 -38 32 -38q77 0 219 242l72 -39
q-78 -161 -183.5 -252t-215.5 -91q-147 0 -171 174q-154 -174 -317 -174q-148 0 -243 102t-95 269q0 218 150.5 432.5t388.5 214.5q195 0 284 -168l142 483q4 15 4 29q0 55 -117 55h-58zM708 863q-139 0 -238 -199.5t-99 -374.5q0 -186 132 -186q140 0 242 212t102 383
q0 75 -38.5 120t-100.5 45z" />
    <glyph glyph-name="Dslash" unicode="&#x110;" horiz-adv-x="1706" 
d="M311 683h-194l34 111h190l138 508q4 12 4 25q0 27 -23 42t-88 15h-115l29 95h723q310 0 474 -157t164 -437q0 -182 -71.5 -358t-182 -285.5t-284 -175.5t-389.5 -66h-761l25 93h82q83 0 109 94zM624 683l-138 -504q-4 -14 -4 -26q0 -29 18 -42q24 -18 71 -18h124
q120 0 228 56t189 161.5t142 303t61 377.5q0 194 -100 302q-87 93 -269 93q-82 0 -111 -18t-42 -64l-139 -510h288l-35 -111h-283z" />
    <glyph glyph-name="Eogonek" unicode="&#x118;" horiz-adv-x="1518" 
d="M311 1479h1262l-109 -481h-90q16 88 16 133q0 114 -70 183.5t-178 69.5h-219q-75 0 -99 -89l-133 -487h75q127 0 203 56.5t131 199.5h88l-178 -670h-87q14 84 14 140q0 88 -51.5 135.5t-140.5 47.5h-78l-144 -528q-5 -18 -5 -35q0 -30 22.5 -45.5t79.5 -15.5h153
q205 0 345 100t227 317h91l-159 -510h-1278l27 93h76q80 0 100 74l308 1128q4 16 4 30q0 28 -19.5 43.5t-64.5 15.5h-144zM949 19h83q-49 -68 -49 -123q0 -79 65 -140t157 -61l35 2l20 -56q-101 -55 -190 -55q-111 0 -185.5 68.5t-74.5 162.5q0 113 139 202z" />
    <glyph glyph-name="eogonek" unicode="&#x119;" horiz-adv-x="1063" 
d="M372 369q-4 -38 -4 -63q0 -106 52 -163t139 -57q73 0 143.5 35t172.5 139l67 -52q-117 -129 -229.5 -183t-242.5 -54q-184 0 -289.5 105.5t-105.5 286.5q0 161 88 308.5t240.5 232.5t328.5 85q129 0 200 -62t71 -157q0 -79 -57 -158.5t-185 -138t-389 -104.5zM384 452
q171 33 249 106q107 101 107 227q0 52 -24.5 81.5t-61.5 29.5q-74 0 -138 -89q-94 -129 -132 -355zM499 19h83q-49 -68 -49 -123q0 -79 65 -140t157 -61l35 2l20 -56q-101 -55 -190 -55q-111 0 -185.5 68.5t-74.5 162.5q0 113 139 202z" />
    <glyph glyph-name="Ecaron" unicode="&#x11a;" horiz-adv-x="1518" 
d="M311 1479h1262l-109 -481h-90q16 88 16 133q0 114 -70 183.5t-178 69.5h-219q-75 0 -99 -89l-133 -487h75q127 0 203 56.5t131 199.5h88l-178 -670h-87q14 84 14 140q0 88 -51.5 135.5t-140.5 47.5h-78l-144 -528q-5 -18 -5 -35q0 -30 22.5 -45.5t79.5 -15.5h153
q205 0 345 100t227 317h91l-159 -510h-1278l27 93h76q80 0 100 74l308 1128q4 16 4 30q0 28 -19.5 43.5t-64.5 15.5h-144zM1146 1621h-213l-88 378h34l185 -206l407 206h39z" />
    <glyph glyph-name="ecaron" unicode="&#x11b;" horiz-adv-x="1063" 
d="M372 369q-4 -38 -4 -63q0 -106 52 -163t139 -57q73 0 143.5 35t172.5 139l67 -52q-117 -129 -229.5 -183t-242.5 -54q-184 0 -289.5 105.5t-105.5 286.5q0 161 88 308.5t240.5 232.5t328.5 85q129 0 200 -62t71 -157q0 -79 -57 -158.5t-185 -138t-389 -104.5zM384 452
q171 33 249 106q107 101 107 227q0 52 -24.5 81.5t-61.5 29.5q-74 0 -138 -89q-94 -129 -132 -355zM854 1101h-213l-88 378h34l185 -206l407 206h39z" />
    <glyph glyph-name="IJ" unicode="&#x132;" horiz-adv-x="2275" 
d="M330 1479h727l-24 -95h-85q-63 0 -87 -19t-34 -57l-301 -1129q-4 -16 -4 -28q0 -58 105 -58h108l-24 -93h-710l25 93h80q86 0 105 74l300 1124q5 19 5 36q0 57 -92 57h-116zM1713 1479h710l-25 -95h-64q-47 0 -73.5 -21t-43.5 -82l-205 -756q-71 -262 -163.5 -366.5
t-220.5 -146t-256 -41.5q-188 0 -302.5 96.5t-114.5 247.5q0 131 83.5 220.5t201.5 89.5q87 0 141 -52.5t54 -125.5q0 -71 -48.5 -117t-127.5 -46q-58 0 -114 39q-35 24 -47 24q-42 0 -42 -63q0 -85 76.5 -147.5t186.5 -62.5q120 0 210 74t144 274l237 888q3 11 3 22
q0 52 -95 52h-130z" />
    <glyph glyph-name="ij" unicode="&#x133;" horiz-adv-x="1554" 
d="M1331 1481q64 0 114 -46.5t50 -117.5q0 -70 -49 -117.5t-115 -47.5q-69 0 -117 48.5t-48 116.5q0 69 48.5 116.5t116.5 47.5zM544 1480q68 0 116 -48t48 -116q0 -67 -48 -115.5t-116 -48.5q-69 0 -116.5 48.5t-47.5 115.5q0 68 48 116t116 48zM183 939l453 19l-215 -742
q-14 -50 -14 -73q0 -37 27 -37q39 0 103 72t118 172l73 -42q-184 -337 -411 -337q-77 0 -120.5 46t-43.5 122q0 54 14 102l149 518q5 14 5 29q0 61 -102 61h-64zM1445 958l-193 -810q-71 -298 -213 -420t-304 -122q-94 0 -148.5 40t-54.5 112q0 58 38 93t90 35
q100 0 103 -119q1 -42 7.5 -54t23.5 -12q48 0 91 93t108 364l148 609q3 14 3 26q0 57 -116 57h-52l25 89z" />
    <glyph glyph-name="Lacute" unicode="&#x139;" horiz-adv-x="1442" 
d="M350 1479h761l-23 -95h-134q-49 0 -74 -20.5t-39 -72.5l-299 -1112q-3 -13 -3 -27q0 -28 18 -41q26 -18 74 -18h197q125 0 255 103t219 307h91l-142 -503h-1251l25 93h96q86 0 104 69l308 1138q3 13 3 26q0 27 -22 41q-28 17 -95 17h-93zM635 1624l-30 26l132 189
q68 97 107.5 126t81.5 29q49 0 83.5 -33t34.5 -77q0 -71 -113 -123z" />
    <glyph glyph-name="lacute" unicode="&#x13a;" horiz-adv-x="797" 
d="M333 1479l455 19l-366 -1269q-16 -56 -16 -80q0 -18 6.5 -27t18.5 -9q26 0 59 33q68 68 140 196l74 -39q-90 -176 -192 -254t-200 -78q-75 0 -117 43.5t-42 122.5q0 68 21 140l289 1007q8 29 8 51q0 28 -24 44t-90 16h-50zM491 1624l-30 26l132 189q68 97 107.5 126
t81.5 29q49 0 83.5 -33t34.5 -77q0 -71 -113 -123z" />
    <glyph glyph-name="Lcaron" unicode="&#x13d;" horiz-adv-x="1442" 
d="M350 1479h761l-23 -95h-134q-49 0 -74 -20.5t-39 -72.5l-299 -1112q-3 -13 -3 -27q0 -28 18 -41q26 -18 74 -18h197q125 0 255 103t219 307h91l-142 -503h-1251l25 93h96q86 0 104 69l308 1138q3 13 3 26q0 27 -22 41q-28 17 -95 17h-93zM1153 970l-19 63
q111 29 171.5 77t60.5 91q0 22 -30 31q-64 20 -88 46t-24 80q0 56 39 100t105 44q68 0 112.5 -51t44.5 -126q0 -73 -42.5 -148.5t-132 -130t-197.5 -76.5z" />
    <glyph glyph-name="lcaron" unicode="&#x13e;" horiz-adv-x="920" 
d="M333 1479l455 19l-366 -1269q-16 -56 -16 -80q0 -18 6.5 -27t18.5 -9q26 0 59 33q68 68 140 196l74 -39q-90 -176 -192 -254t-200 -78q-75 0 -117 43.5t-42 122.5q0 68 21 140l289 1007q8 29 8 51q0 28 -24 44t-90 16h-50zM783 970l-19 63q111 29 171.5 77t60.5 91
q0 22 -30 31q-64 20 -88 46t-24 80q0 56 39 100t105 44q68 0 112.5 -51t44.5 -126q0 -73 -42.5 -148.5t-132 -130t-197.5 -76.5z" />
    <glyph glyph-name="Ldot" unicode="&#x13f;" horiz-adv-x="1442" 
d="M350 1479h761l-23 -95h-134q-49 0 -74 -20.5t-39 -72.5l-299 -1112q-3 -13 -3 -27q0 -28 18 -41q26 -18 74 -18h197q125 0 255 103t219 307h91l-142 -503h-1251l25 93h96q86 0 104 69l308 1138q3 13 3 26q0 27 -22 41q-28 17 -95 17h-93zM1192 941q55 0 94 -39t39 -95
t-39 -95.5t-94 -39.5q-56 0 -95 39.5t-39 94.5q0 56 40 95.5t94 39.5z" />
    <glyph glyph-name="ldot" unicode="&#x140;" horiz-adv-x="920" 
d="M333 1479l455 19l-366 -1269q-16 -56 -16 -80q0 -18 6.5 -27t18.5 -9q26 0 59 33q68 68 140 196l74 -39q-90 -176 -192 -254t-200 -78q-75 0 -117 43.5t-42 122.5q0 68 21 140l289 1007q8 29 8 51q0 28 -24 44t-90 16h-50zM792 941q55 0 94 -39t39 -95t-39 -95.5
t-94 -39.5q-56 0 -95 39.5t-39 94.5q0 56 40 95.5t94 39.5z" />
    <glyph glyph-name="Nacute" unicode="&#x143;" horiz-adv-x="1745" 
d="M388 1479h442l475 -1031l197 726q12 45 12 73q0 63 -42.5 100.5t-113.5 37.5h-43l25 94h510l-26 -94q-80 -4 -122 -43q-59 -55 -84 -149l-320 -1193h-109l-538 1174l-221 -817q-15 -57 -15 -93q0 -76 52.5 -122.5t152.5 -48.5l-22 -93h-570l23 93q99 4 161 56.5t87 145.5
l257 953q10 35 10 51q0 40 -33.5 63t-118.5 23h-51zM1152 1624l-30 26l132 189q68 97 107.5 126t81.5 29q49 0 83.5 -33t34.5 -77q0 -71 -113 -123z" />
    <glyph glyph-name="nacute" unicode="&#x144;" horiz-adv-x="1403" 
d="M1248 355l81 -25q-74 -182 -173 -266.5t-202 -84.5q-86 0 -134 46.5t-48 125.5q0 70 52 224q76 230 89 283.5t13 86.5q0 37 -18.5 58t-46.5 21q-51 0 -108 -41q-95 -66 -180 -199t-127 -274l-90 -310l-266 -9l224 772q3 12 3 23q0 29 -23 44.5t-87 15.5h-58l28 93l437 19
l-73 -281q220 293 429 293q95 0 155.5 -61t60.5 -153q0 -74 -32 -176l-106 -337q-25 -79 -25 -100q0 -15 7.5 -22.5t21.5 -7.5q34 0 72 40q64 69 124 202zM677 1104l-30 26l132 189q68 97 107.5 126t81.5 29q49 0 83.5 -33t34.5 -77q0 -71 -113 -123z" />
    <glyph glyph-name="Ncaron" unicode="&#x147;" horiz-adv-x="1745" 
d="M388 1479h442l475 -1031l197 726q12 45 12 73q0 63 -42.5 100.5t-113.5 37.5h-43l25 94h510l-26 -94q-80 -4 -122 -43q-59 -55 -84 -149l-320 -1193h-109l-538 1174l-221 -817q-15 -57 -15 -93q0 -76 52.5 -122.5t152.5 -48.5l-22 -93h-570l23 93q99 4 161 56.5t87 145.5
l257 953q10 35 10 51q0 40 -33.5 63t-118.5 23h-51zM1246 1621h-213l-88 378h34l185 -206l407 206h39z" />
    <glyph glyph-name="ncaron" unicode="&#x148;" horiz-adv-x="1403" 
d="M1248 355l81 -25q-74 -182 -173 -266.5t-202 -84.5q-86 0 -134 46.5t-48 125.5q0 70 52 224q76 230 89 283.5t13 86.5q0 37 -18.5 58t-46.5 21q-51 0 -108 -41q-95 -66 -180 -199t-127 -274l-90 -310l-266 -9l224 772q3 12 3 23q0 29 -23 44.5t-87 15.5h-58l28 93l437 19
l-73 -281q220 293 429 293q95 0 155.5 -61t60.5 -153q0 -74 -32 -176l-106 -337q-25 -79 -25 -100q0 -15 7.5 -22.5t21.5 -7.5q34 0 72 40q64 69 124 202zM930 1101h-213l-88 378h34l185 -206l407 206h39z" />
    <glyph glyph-name="napostrophe" unicode="&#x149;" horiz-adv-x="1813" 
d="M1658 355l81 -25q-74 -182 -173 -266.5t-202 -84.5q-86 0 -134 46.5t-48 125.5q0 70 52 224q76 230 89 283.5t13 86.5q0 37 -18.5 58t-46.5 21q-51 0 -108 -41q-95 -66 -180 -199t-127 -274l-90 -310l-266 -9l224 772q3 12 3 23q0 29 -23 44.5t-87 15.5h-58l28 93l437 19
l-73 -281q220 293 429 293q95 0 155.5 -61t60.5 -153q0 -74 -32 -176l-106 -337q-25 -79 -25 -100q0 -15 7.5 -22.5t21.5 -7.5q34 0 72 40q64 69 124 202zM120 857l-24 82q154 45 219.5 102.5t65.5 102.5q0 30 -30 39q-81 25 -103 48q-43 45 -43 115q0 71 51.5 119.5
t131.5 48.5q81 0 136 -60t55 -156q0 -162 -142 -293q-104 -96 -317 -148z" />
    <glyph glyph-name="Odblacute" unicode="&#x150;" horiz-adv-x="1706" 
d="M1073 1514q282 0 452 -165.5t170 -430.5q0 -226 -101 -434q-115 -238 -341.5 -375.5t-493.5 -137.5q-311 0 -465 181.5t-154 427.5q0 193 101 411.5t327 370.5t505 152zM1076 1418q-168 0 -304 -130t-230 -435q-74 -240 -74 -433q0 -174 81 -265t221 -91
q163 0 297.5 128.5t218 406.5t83.5 458q0 177 -79.5 269t-213.5 92zM842 1624l-30 26l132 189q68 97 107.5 126t81.5 29q49 0 83.5 -33t34.5 -77q0 -71 -113 -123zM1246 1624l-30 26l132 189q68 98 107.5 126.5t81.5 28.5q49 0 83.5 -33t34.5 -77q0 -71 -113 -123z" />
    <glyph glyph-name="odblacute" unicode="&#x151;" horiz-adv-x="1176" 
d="M667 989q193 0 314.5 -119t121.5 -302q0 -231 -164.5 -414t-432.5 -183q-196 0 -317 118.5t-121 303.5q0 158 81.5 300t215.5 219t302 77zM677 905q-78 0 -140 -67q-86 -92 -141 -283t-55 -307q0 -91 43.5 -139.5t114.5 -48.5q68 0 120 48q76 72 144 258.5t68 347.5
q0 90 -43.5 140.5t-110.5 50.5zM505 1104l-30 26l132 189q68 97 107.5 126t81.5 29q49 0 83.5 -33t34.5 -77q0 -71 -113 -123zM909 1104l-30 26l132 189q68 98 107.5 126.5t81.5 28.5q49 0 83.5 -33t34.5 -77q0 -71 -113 -123z" />
    <glyph glyph-name="Racute" unicode="&#x154;" horiz-adv-x="1630" 
d="M284 1479h799q153 0 237 -23q119 -34 188 -120t69 -205q0 -108 -62 -193t-182 -133.5t-350 -53.5q115 -24 177.5 -78.5t91.5 -141t36 -318.5q3 -91 54 -91q69 0 144 158l71 -19q-108 -273 -340 -273q-118 0 -183.5 68t-65.5 189q0 55 12 158q11 96 11 128q0 93 -49 141.5
t-137 48.5h-153l-150 -553q-3 -9 -3 -18q0 -26 20 -41.5t63 -15.5h144l-21 -93h-740l25 93h84q50 0 76 21.5t40 69.5l300 1095q7 24 7 46q0 29 -20.5 44t-69.5 15h-148zM677 813h148q225 0 320 88q111 102 111 271q0 108 -62.5 162t-213.5 54q-101 0 -129.5 -17.5
t-43.5 -72.5zM927 1624l-30 26l132 189q68 97 107.5 126t81.5 29q49 0 83.5 -33t34.5 -77q0 -71 -113 -123z" />
    <glyph glyph-name="racute" unicode="&#x155;" horiz-adv-x="1063" 
d="M175 937l391 21l-96 -429q98 239 179 324q113 117 258 117q83 0 132.5 -46.5t49.5 -120.5q0 -71 -42.5 -118.5t-98.5 -47.5q-49 0 -83 32.5t-34 78.5q0 26 9 59q3 11 3 17q0 11 -9 19.5t-22 8.5q-39 0 -92 -41.5t-121 -179.5q-92 -189 -149 -383l-72 -248l-268 -11
l150 528q41 147 41 233q0 60 -28 81t-124 20zM627 1104l-30 26l132 189q68 97 107.5 126t81.5 29q49 0 83.5 -33t34.5 -77q0 -71 -113 -123z" />
    <glyph glyph-name="Rcaron" unicode="&#x158;" horiz-adv-x="1630" 
d="M284 1479h799q153 0 237 -23q119 -34 188 -120t69 -205q0 -108 -62 -193t-182 -133.5t-350 -53.5q115 -24 177.5 -78.5t91.5 -141t36 -318.5q3 -91 54 -91q69 0 144 158l71 -19q-108 -273 -340 -273q-118 0 -183.5 68t-65.5 189q0 55 12 158q11 96 11 128q0 93 -49 141.5
t-137 48.5h-153l-150 -553q-3 -9 -3 -18q0 -26 20 -41.5t63 -15.5h144l-21 -93h-740l25 93h84q50 0 76 21.5t40 69.5l300 1095q7 24 7 46q0 29 -20.5 44t-69.5 15h-148zM677 813h148q225 0 320 88q111 102 111 271q0 108 -62.5 162t-213.5 54q-101 0 -129.5 -17.5
t-43.5 -72.5zM1146 1621h-213l-88 378h34l185 -206l407 206h39z" />
    <glyph glyph-name="rcaron" unicode="&#x159;" horiz-adv-x="1063" 
d="M175 937l391 21l-96 -429q98 239 179 324q113 117 258 117q83 0 132.5 -46.5t49.5 -120.5q0 -71 -42.5 -118.5t-98.5 -47.5q-49 0 -83 32.5t-34 78.5q0 26 9 59q3 11 3 17q0 11 -9 19.5t-22 8.5q-39 0 -92 -41.5t-121 -179.5q-92 -189 -149 -383l-72 -248l-268 -11
l150 528q41 147 41 233q0 60 -28 81t-124 20zM754 1101h-213l-88 378h34l185 -206l407 206h39z" />
    <glyph glyph-name="Sacute" unicode="&#x15a;" horiz-adv-x="1403" 
d="M1209 1359l115 91h87l-114 -511h-88q-4 181 -48 279t-126 152t-186 54q-134 0 -216 -73t-82 -182q0 -84 51 -132t307 -143q170 -64 238 -116.5t104.5 -130t36.5 -175.5q0 -139 -70 -254t-202 -181t-307 -66q-137 0 -240.5 37t-206.5 125l-83 -92h-92l115 531h89
q1 -184 49.5 -287.5t143.5 -160t221 -56.5q150 0 244 82t94 197q0 95 -71 152q-39 32 -277 127q-185 73 -248 120.5t-96.5 119t-33.5 170.5q0 208 140 343t362 135q111 0 204 -36t186 -119zM795 1624l-30 26l132 189q68 97 107.5 126t81.5 29q49 0 83.5 -33t34.5 -77
q0 -71 -113 -123z" />
    <glyph glyph-name="sacute" unicode="&#x15b;" horiz-adv-x="985" 
d="M153 642q0 148 121.5 247.5t326.5 99.5q168 0 254 -63t86 -155q0 -60 -36 -97.5t-91 -37.5q-52 0 -86 33t-34 81q0 31 25 75q12 21 12 30q0 21 -27 37.5t-87 16.5q-98 0 -159.5 -51.5t-61.5 -118.5q0 -43 28.5 -67t191.5 -81q122 -42 167 -74t70 -82.5t25 -110.5
q0 -95 -53 -176.5t-155 -129t-247 -47.5q-200 0 -299.5 70t-99.5 179q0 66 41 109t100 43q52 0 86 -33t34 -85q0 -41 -37 -87q-17 -21 -17 -33q0 -28 36 -49q47 -28 130 -28q107 0 170.5 51.5t63.5 123.5q0 42 -28 70t-127 60q-211 68 -267 124.5t-56 155.5zM502 1104
l-30 26l132 189q68 97 107.5 126t81.5 29q49 0 83.5 -33t34.5 -77q0 -71 -113 -123z" />
    <glyph glyph-name="Tcedilla" unicode="&#x162;" horiz-adv-x="1479" 
d="M381 1479h1254l-131 -540h-92q29 135 29 218q0 116 -51.5 171.5t-153.5 55.5q-61 0 -88 -20t-41 -72l-301 -1111q-3 -13 -3 -28q0 -28 22.5 -44t72.5 -16h137l-24 -93h-797l23 93h144q89 0 116 97l299 1102q5 15 5 30q0 31 -21.5 46.5t-72.5 15.5q-101 0 -191 -81
q-127 -115 -247 -364h-87zM378 -630l-19 63q111 29 171.5 77t60.5 91q0 22 -30 31q-64 20 -88 46t-24 80q0 56 39 100t105 44q68 0 112.5 -51t44.5 -126q0 -73 -42.5 -148.5t-132 -130t-197.5 -76.5z" />
    <glyph glyph-name="tcedilla" unicode="&#x163;" horiz-adv-x="834" 
d="M444 1261h264l-92 -322h208l-31 -104h-206l-177 -614q-8 -27 -8 -52q0 -30 12 -45t32 -15q79 0 231 233l73 -46q-99 -168 -208 -246.5t-209 -78.5q-88 0 -139 49.5t-51 128.5q0 60 20 132l160 554h-191l31 104h189zM53 -630l-19 63q111 29 171.5 77t60.5 91q0 22 -30 31
q-64 20 -88 46t-24 80q0 56 39 100t105 44q68 0 112.5 -51t44.5 -126q0 -73 -42.5 -148.5t-132 -130t-197.5 -76.5z" />
    <glyph glyph-name="Tcaron" unicode="&#x164;" horiz-adv-x="1479" 
d="M381 1479h1254l-131 -540h-92q29 135 29 218q0 116 -51.5 171.5t-153.5 55.5q-61 0 -88 -20t-41 -72l-301 -1111q-3 -13 -3 -28q0 -28 22.5 -44t72.5 -16h137l-24 -93h-797l23 93h144q89 0 116 97l299 1102q5 15 5 30q0 31 -21.5 46.5t-72.5 15.5q-101 0 -191 -81
q-127 -115 -247 -364h-87zM1108 1621h-213l-88 378h34l185 -206l407 206h39z" />
    <glyph glyph-name="tcaron" unicode="&#x165;" horiz-adv-x="1036" 
d="M883 1015l-19 62q114 31 171 75t57 81q0 23 -24 30q-64 18 -90.5 44t-26.5 80q0 55 42 91t104 36q66 0 109.5 -46t43.5 -117q0 -105 -86.5 -198.5t-280.5 -137.5zM481 1261h264l-92 -322h208l-31 -104h-206l-177 -614q-8 -27 -8 -52q0 -60 44 -60q79 0 231 233l73 -46
q-194 -325 -418 -325q-86 0 -137.5 49t-51.5 129q0 60 20 132l160 554h-191l31 104h189z" />
    <glyph glyph-name="Uring" unicode="&#x16e;" horiz-adv-x="1706" 
d="M309 1479h734l-25 -94h-108q-83 0 -103 -73l-208 -774q-28 -104 -28 -171q0 -133 85.5 -211.5t229.5 -78.5q157 0 269.5 97t159.5 284l177 703q10 37 10 73q0 55 -19.5 87t-56.5 48t-119 16l26 94h526l-22 -94q-93 -5 -146 -48t-74 -127l-188 -752
q-43 -171 -124.5 -273.5t-202.5 -158t-290 -55.5q-267 0 -408 112.5t-141 289.5q0 95 29 202l200 727q4 14 4 27q0 27 -20.5 41.5t-70.5 14.5h-121zM1179 2018q88 0 149.5 -61.5t61.5 -147.5q0 -87 -62 -148.5t-148 -61.5q-87 0 -148.5 61.5t-61.5 148.5t61.5 148t147.5 61z
M1177 1925q-48 0 -82 -34t-34 -82t34 -82.5t82 -34.5t82.5 34.5t34.5 82.5t-34 82t-83 34z" />
    <glyph glyph-name="uring" unicode="&#x16f;" horiz-adv-x="1403" 
d="M643 958l-197 -600q-35 -106 -35 -155q0 -44 19 -65.5t53 -21.5q85 0 207 127.5t205 378.5l104 317h265l-234 -721q-15 -47 -15 -71q0 -18 7 -27t21 -9q80 0 208 233l75 -33q-93 -189 -190.5 -264.5t-204.5 -75.5q-81 0 -123.5 43t-42.5 126q0 39 12 92
q-193 -254 -427 -254q-96 0 -149 54t-53 146q0 83 42 211l122 378q4 11 4 22q0 27 -25 43.5t-86 16.5h-53l26 90zM819 1498q88 0 149.5 -61.5t61.5 -147.5q0 -87 -62 -148.5t-148 -61.5q-87 0 -148.5 61.5t-61.5 148.5t61.5 148t147.5 61zM817 1405q-48 0 -82 -34t-34 -82
t34 -82.5t82 -34.5t82.5 34.5t34.5 82.5t-34 82t-83 34z" />
    <glyph glyph-name="Udblacute" unicode="&#x170;" horiz-adv-x="1706" 
d="M309 1479h734l-25 -94h-108q-83 0 -103 -73l-208 -774q-28 -104 -28 -171q0 -133 85.5 -211.5t229.5 -78.5q157 0 269.5 97t159.5 284l177 703q10 37 10 73q0 55 -19.5 87t-56.5 48t-119 16l26 94h526l-22 -94q-93 -5 -146 -48t-74 -127l-188 -752
q-43 -171 -124.5 -273.5t-202.5 -158t-290 -55.5q-267 0 -408 112.5t-141 289.5q0 95 29 202l200 727q4 14 4 27q0 27 -20.5 41.5t-70.5 14.5h-121zM905 1624l-30 26l132 189q68 97 107.5 126t81.5 29q49 0 83.5 -33t34.5 -77q0 -71 -113 -123zM1309 1624l-30 26l132 189
q68 98 107.5 126.5t81.5 28.5q49 0 83.5 -33t34.5 -77q0 -71 -113 -123z" />
    <glyph glyph-name="udblacute" unicode="&#x171;" horiz-adv-x="1403" 
d="M643 958l-197 -600q-35 -106 -35 -155q0 -44 19 -65.5t53 -21.5q85 0 207 127.5t205 378.5l104 317h265l-234 -721q-15 -47 -15 -71q0 -18 7 -27t21 -9q80 0 208 233l75 -33q-93 -189 -190.5 -264.5t-204.5 -75.5q-81 0 -123.5 43t-42.5 126q0 39 12 92
q-193 -254 -427 -254q-96 0 -149 54t-53 146q0 83 42 211l122 378q4 11 4 22q0 27 -25 43.5t-86 16.5h-53l26 90zM541 1104l-30 26l132 189q68 97 107.5 126t81.5 29q49 0 83.5 -33t34.5 -77q0 -71 -113 -123zM945 1104l-30 26l132 189q68 98 107.5 126.5t81.5 28.5
q49 0 83.5 -33t34.5 -77q0 -71 -113 -123z" />
    <glyph glyph-name="Zacute" unicode="&#x179;" horiz-adv-x="1442" 
d="M477 1479h1048v-84l-1085 -1302h302q115 0 204.5 40.5t164.5 124.5t162 269l81 -34l-151 -493h-1173v45l1122 1339h-229q-166 0 -285 -89t-246 -344l-84 33zM927 1624l-30 26l132 189q68 97 107.5 126t81.5 29q49 0 83.5 -33t34.5 -77q0 -71 -113 -123z" />
    <glyph glyph-name="zacute" unicode="&#x17a;" horiz-adv-x="1063" 
d="M170 190q135 52 194.5 66t111.5 14q56 0 142 -30q124 -42 162 -42q42 0 75 23t83 102l64 -41q-80 -169 -173.5 -240t-203.5 -71q-46 0 -98.5 12.5t-155.5 55.5q-99 41 -143 53t-101 17l-21 -97q-5 -26 -14 -32q-11 -9 -41 -9q-29 0 -39.5 9t-10.5 30q0 68 54 165
t175 192.5t392 231.5q134 68 182.5 100.5t93.5 79.5q-113 -56 -207 -56q-69 0 -201 38q-101 29 -149 29q-46 0 -79.5 -21.5t-78.5 -91.5l-70 37q89 152 181 213.5t199 61.5q35 0 63 -6t102 -32q172 -63 236 -63t90 68q14 33 32 33q22 0 36.5 -14t14.5 -33q0 -50 -55 -139
q-75 -124 -217.5 -230.5t-425.5 -242.5q-93 -44 -139 -78q-31 -23 -60 -62zM519 1104l-30 26l132 189q68 97 107.5 126t81.5 29q49 0 83.5 -33t34.5 -77q0 -71 -113 -123z" />
    <glyph glyph-name="Zdot" unicode="&#x17b;" horiz-adv-x="1442" 
d="M477 1479h1048v-84l-1085 -1302h302q115 0 204.5 40.5t164.5 124.5t162 269l81 -34l-151 -493h-1173v45l1122 1339h-229q-166 0 -285 -89t-246 -344l-84 33zM975 1944q55 0 94 -39.5t39 -95.5t-39 -95t-94 -39q-56 0 -95 39t-39 95q0 55 40 95t94 40z" />
    <glyph glyph-name="zdot" unicode="&#x17c;" horiz-adv-x="1063" 
d="M700 1424q56 0 94.5 -39.5t38.5 -95.5q0 -55 -39 -94.5t-94 -39.5q-54 0 -94 39t-40 95q0 58 41.5 96.5t92.5 38.5zM170 190q201 80 307 80q55 0 141 -30q124 -42 161 -42q42 0 76 22.5t83 102.5l64 -41q-142 -311 -378 -311q-89 0 -253 68q-157 65 -244 70l-21 -97
q-5 -25 -14.5 -33t-41.5 -8q-49 0 -49 39q0 83 70.5 192t201 198t349.5 199q211 107 276 180q-111 -56 -205 -56q-71 0 -203 38q-101 29 -150 29q-88 0 -157 -113l-70 37q157 275 379 275q59 0 166 -38q172 -63 236 -63t90 68q14 33 32 33q51 0 51 -47q0 -61 -79.5 -176.5
t-224.5 -215.5t-394 -220q-156 -74 -199 -140z" />
    <glyph glyph-name="noGamma" unicode="&#xf100;" horiz-adv-x="1269" 
d="M1442 1356l-99 -334h-40q-2 122 -74 191t-209 69h-216l-318 -1089q-14 -46 -14 -68q0 -45 34 -65.5t130 -23.5l-11 -36h-629v36l27 -1q125 0 170 155l284 976q11 38 11 65q0 28 -18 51t-39.5 29.5t-79.5 7.5q-7 0 -22 1l10 36h1103z" />
    <glyph glyph-name="noTheta" unicode="&#xf101;" horiz-adv-x="1529" 
d="M1518 877q0 -202 -131 -423t-340 -353t-427 -132q-221 0 -350.5 144t-129.5 346q0 349 280 638.5t606 289.5q215 0 353.5 -130.5t138.5 -379.5zM1210 1017q0 144 -58 219t-147 75q-250 0 -403.5 -353t-153.5 -618q0 -148 62 -222.5t159 -74.5q119 0 234.5 115.5t211 385
t95.5 473.5zM1058 884h36l-131 -438h-36q2 19 2 33q0 90 -116 90q-88 0 -116 -7t-55.5 -34.5t-48.5 -81.5h-36l128 438h36q1 -107 129 -107q94 0 131.5 15.5t70.5 79.5z" />
    <glyph glyph-name="noPhi" unicode="&#xf102;" horiz-adv-x="1549" 
d="M717 1356h662l-10 -36h-49q-84 0 -126 -32t-67 -114l-16 -54q224 -30 325.5 -130t101.5 -251q0 -136 -76 -249t-240 -178.5t-369 -76.5l-14 -47l-3 -10q-11 -27 -11 -45q0 -36 22 -61.5t45 -30t103 -5.5l-11 -36h-702l12 36l59 -1q94 0 131.5 41t57.5 112l13 47
q-198 10 -306.5 111t-108.5 254q0 142 88 265t225 180t361 75l18 54q11 33 11 53q0 43 -33 69t-104 24zM869 298q192 21 295.5 197t103.5 347q0 189 -174 223zM798 1064q-177 -25 -281.5 -203.5t-104.5 -358.5q0 -71 38 -137.5t120 -75.5z" />
    <glyph glyph-name="noalpha" unicode="&#xf103;" horiz-adv-x="1014" 
d="M725 899h252l-128 -425q-25 -85 -86 -227q2 -52 30 -92.5t65 -40.5q31 0 56 29.5t26 89.5h37q-4 -133 -44.5 -197t-92.5 -64q-92 0 -115 211q-133 -211 -350 -211q-134 0 -220.5 111.5t-86.5 251.5q0 244 135 418t322 174q122 0 161 -148zM654 674q-18 198 -113 198
q-83 0 -161 -269l-66 -228q-50 -170 -50 -242q0 -44 23.5 -73t65.5 -29q105 0 179 243z" />
    <glyph glyph-name="nodelta" unicode="&#xf104;" horiz-adv-x="1031" 
d="M635 851q-6 12 -39 62q-111 165 -111 275q0 100 61.5 149.5t155.5 49.5q124 0 209 -47t85 -114q0 -38 -24 -63t-55 -25q-53 0 -126 84q-87 100 -154 100q-33 0 -57 -23t-24 -62q0 -42 27 -82t112 -114q99 -86 147 -143.5t82.5 -143t34.5 -179.5q0 -237 -182 -420
t-416 -183q-132 0 -212.5 79.5t-80.5 220.5q0 188 137.5 343t429.5 236zM657 810q-167 -77 -258.5 -275t-91.5 -353q0 -76 28.5 -115t73.5 -39q96 0 199 222t103 351q0 112 -54 209z" />
    <glyph glyph-name="noepsilon" unicode="&#xf105;" horiz-adv-x="890" 
d="M363 496q-148 60 -148 195q0 104 87.5 170t246.5 66q151 0 210 -53.5t59 -118.5q0 -41 -32.5 -73.5t-78.5 -32.5q-41 0 -63.5 27.5t-22.5 70.5v18q1 21 1 28q0 35 -21.5 59.5t-60.5 24.5q-37 0 -63 -26.5t-58 -122t-32 -138.5q0 -71 68 -71q26 0 110 17q20 4 34 4
q37 0 37 -38q0 -45 -63 -45q-22 0 -51 5q-43 8 -74 8q-37 0 -64 -31t-60.5 -142.5t-33.5 -164.5q0 -43 26.5 -75t76.5 -32q94 0 115 109q30 153 132 153q39 0 74 -28t35 -83q0 -92 -94 -148t-238 -56q-349 0 -349 240q0 116 79 192.5t216 91.5z" />
    <glyph glyph-name="nosigma" unicode="&#xf106;" horiz-adv-x="1135" 
d="M1143 899l-64 -210h-338q168 -134 168 -284q0 -177 -145 -305t-347 -128q-152 0 -250.5 110t-98.5 260q0 143 78.5 273t210.5 207t362 77h424zM685 689q-235 -2 -326 -179t-91 -336q0 -64 40.5 -103t87.5 -39q62 0 112.5 59.5t122.5 246.5t72 284q0 43 -18 67z" />
    <glyph glyph-name="notau" unicode="&#xf107;" horiz-adv-x="896" 
d="M916 899l-69 -217h-225l-100 -325q-27 -89 -27 -136q0 -37 28.5 -61t72.5 -24q94 0 135 92h38q-23 -114 -98.5 -185t-180.5 -71q-86 0 -138 57t-52 134q0 86 41 203q6 16 11 32l85 284h-70q-114 0 -157.5 -22.5t-66.5 -90.5h-50q13 148 85.5 239t278.5 91h459z" />
    <glyph glyph-name="nophi" unicode="&#xf108;" horiz-adv-x="1136" 
d="M382 -416h-150l119 401q-283 39 -283 371q0 193 122 372t383 199l-12 -41q-98 -48 -146.5 -155.5t-97.5 -294.5t-49 -270q0 -108 95 -133l185 628q37 128 112.5 197t174.5 69q91 0 159.5 -59.5t68.5 -198.5q0 -281 -174.5 -470.5t-389.5 -214.5zM513 37q97 17 162 118.5
t121.5 283.5t56.5 271q0 83 -56 83q-64 0 -99 -131l-4 -15z" />
    <glyph glyph-name="underscoredbl" unicode="&#x2017;" horiz-adv-x="1024" 
d="M-12 -101h1048v-102h-1048v102zM-12 -278h1048v-103h-1048v103z" />
    <glyph glyph-name="minute" unicode="&#x2032;" horiz-adv-x="588" 
d="M371 739h-45l6 389q2 140 55.5 213t139.5 73q107 0 107 -96q0 -59 -67 -190z" />
    <glyph glyph-name="second" unicode="&#x2033;" horiz-adv-x="819" 
d="M716 751h-45l5 388q2 141 56 214t140 73q107 0 107 -96q0 -59 -67 -191zM313 751h-45l6 388q2 141 55.5 214t139.5 73q107 0 107 -96q0 -59 -67 -191z" />
    <glyph glyph-name="exclamdbl" unicode="&#x203c;" horiz-adv-x="1236" 
d="M317 432h-87l46 203q68 301 93 588q10 123 28.5 173.5t63.5 84t101 33.5q68 0 111.5 -45t43.5 -100q0 -80 -132 -338q-181 -352 -236 -510zM872 432h-88l46 203q68 301 93 588q11 123 29 173.5t63 84t101 33.5q68 0 111.5 -45t43.5 -100q0 -80 -132 -338
q-181 -352 -236 -510zM215 319q67 0 119 -49t52 -125q0 -72 -50 -123t-121 -51q-72 0 -122 51t-50 123t50 123t122 51zM769 319q68 0 119.5 -49t51.5 -125q0 -72 -50 -123t-121 -51t-121.5 51t-50.5 123t50.5 123t121.5 51z" />
    <glyph glyph-name="nsuperior" unicode="&#x207f;" horiz-adv-x="884" 
d="M960 1064l72 -21q-96 -220 -250 -220q-61 0 -93.5 31t-32.5 78q0 43 33 136q64 179 64 215q0 39 -30 39q-58 0 -136 -92t-114 -207l-58 -187l-192 -6l145 467q1 4 1 10q0 28 -57 28h-51l22 70l300 12l-36 -129q127 136 245 136q68 0 108 -40.5t40 -94.5q0 -44 -21 -107
l-67 -199q-15 -43 -15 -57v-3q0 -5 7 -5q44 0 116 146z" />
    <glyph glyph-name="peseta" unicode="&#x20a7;" horiz-adv-x="2846" 
d="M1543 939h71l91 322h265l-92 -322h338q106 50 247 50q182 0 260.5 -67.5t78.5 -150.5q0 -61 -37 -98t-89 -37q-47 0 -84 30t-37 85q0 30 25 74q12 21 12 30q0 54 -114 54q-99 0 -160 -52t-61 -118q0 -49 35.5 -72.5t184.5 -75.5q108 -37 155.5 -66t77 -81t29.5 -120
q0 -141 -115.5 -247t-345.5 -106q-109 0 -184 22.5t-122.5 56.5t-70.5 91q-153 -170 -307 -170q-86 0 -138 49t-52 129q0 60 21 132l159 554h-108q-169 -186 -585 -186q-96 0 -252 16l-130 -486q-4 -15 -4 -28q0 -58 96 -58h116l-25 -93h-722l23 93h83q92 0 112 72l308 1132
q6 20 6 33q0 54 -122 54h-104l24 95h772q261 0 383 -99.5t122 -269.5q0 -93 -34 -171zM664 753q84 -14 149 -14q243 0 343 124t100 299q0 116 -71 169t-229 53q-79 0 -106.5 -21t-42.5 -75zM2080 835h-232l-176 -614q-8 -27 -8 -52q0 -60 43 -60q70 0 187 166q12 37 42 64
l3 3h1q38 30 85 30q52 0 86.5 -32.5t34.5 -85.5q0 -41 -37 -87q-17 -21 -17 -33q0 -32 46.5 -54.5t119.5 -22.5q121 0 177.5 56t56.5 119q0 40 -26 68.5t-129 61.5q-192 61 -257 114t-65 166q0 106 65 193z" />
    <glyph glyph-name="afii61248" unicode="&#x2105;" horiz-adv-x="2072" 
d="M809 909l59 -52q-127 -180 -314 -180q-117 0 -190.5 78.5t-73.5 210.5q0 175 116.5 316.5t281.5 141.5q98 0 155.5 -50.5t57.5 -132.5q0 -59 -31 -95.5t-79 -36.5q-42 0 -71 26.5t-29 71.5q0 52 77 96l8 9l-2 1l1 2q2 6 -15.5 18.5t-49.5 12.5q-75 0 -141 -107t-66 -292
q0 -172 112 -172q94 0 194 134zM1532 1395h112l-1016 -1395h-112zM1628 725q124 0 207 -84.5t83 -226.5q0 -172 -110.5 -303.5t-282.5 -131.5q-133 0 -213 88.5t-80 223.5q0 167 109 300.5t287 133.5zM1634 652q-75 0 -139 -158.5t-64 -307.5q0 -130 92 -130q67 0 132 153.5
t65 312.5q0 61 -25 95.5t-61 34.5z" />
    <glyph glyph-name="afii61289" unicode="&#x2113;" horiz-adv-x="896" 
d="M31 482l165 113l105 351q57 191 103 288t124.5 151t177.5 54q118 0 168.5 -59t50.5 -132q0 -193 -334 -437l-82 -61l-84 -266q-61 -196 -61 -279q0 -81 66 -81q89 0 176 201l55 -18q-141 -328 -358 -328q-98 0 -152 68t-54 150q0 87 41 214l33 102l-114 -75zM533 833
q140 98 233.5 211.5t93.5 201.5q0 39 -21.5 67t-54.5 28q-59 0 -92.5 -53t-100.5 -260l-8 -23z" />
    <glyph glyph-name="arrowleft" unicode="&#x2190;" horiz-adv-x="2048" 
d="M492 876h76q-81 -170 -195 -309h1595v-101h-1595q102 -102 198 -309h-78q-223 253 -414 341v45q177 71 413 333z" />
    <glyph glyph-name="arrowup" unicode="&#x2191;" horiz-adv-x="1024" 
d="M153 1050q262 236 333 413h46q87 -192 340 -415v-77q-207 96 -309 197v-1597h-101v1597q-139 -114 -309 -195v77z" />
    <glyph glyph-name="arrowright" unicode="&#x2192;" horiz-adv-x="2048" 
d="M1555 876q237 -262 413 -333v-45q-191 -88 -414 -341h-77q95 207 197 309h-1595v101h1595q-114 139 -195 309h76z" />
    <glyph glyph-name="arrowdown" unicode="&#x2193;" horiz-adv-x="1024" 
d="M153 -16v76q170 -81 309 -195v1598h101v-1598q102 102 309 197v-77q-253 -223 -340 -414h-46q-71 176 -333 413z" />
    <glyph glyph-name="arrowboth" unicode="&#x2194;" horiz-adv-x="2048" 
d="M1968 540v-45q-181 -79 -406 -337h-80q69 172 194 311h-1305q125 -139 194 -311h-80q-224 258 -406 337v45q182 79 406 338h80q-69 -172 -194 -311h1305q-125 139 -194 311h80q225 -259 406 -338z" />
    <glyph glyph-name="arrowupdn" unicode="&#x2195;" horiz-adv-x="1024" 
d="M489 1463h45q79 -182 337 -407v-80q-171 69 -311 195v-1306q140 126 311 194v-79q-258 -225 -337 -407h-45q-79 182 -337 407v79q171 -68 311 -194v1306q-140 -126 -311 -195v80q258 225 337 407z" />
    <glyph glyph-name="arrowupdnbse" unicode="&#x21a8;" horiz-adv-x="1024" 
d="M489 1463h45q79 -182 337 -407v-80q-171 69 -311 195v-1306q140 126 311 194v-79q-258 -225 -337 -407h-45q-79 182 -337 407v79q171 -68 311 -194v1306q-140 -126 -311 -195v80q258 225 337 407zM154 -522h717v-98h-717v98z" />
    <glyph glyph-name="orthogonal" unicode="&#x221f;" horiz-adv-x="2005" 
d="M362 1279h100v-1179h1181v-100h-1281v1279z" />
    <glyph glyph-name="intersection" unicode="&#x2229;" horiz-adv-x="1472" 
d="M311 0h-129v590q1 119 2.5 228.5t20 193.5t60.5 154t117 131t166.5 94t187.5 33q146 0 272.5 -71.5t189.5 -170.5t77.5 -209.5t14.5 -382.5v-590h-128v596q0 231 -11.5 331t-58 180t-146 136t-210.5 56q-112 0 -211.5 -57.5t-144.5 -135t-57 -178.5t-12 -332v-596z" />
    <glyph glyph-name="equivalence" unicode="&#x2261;" horiz-adv-x="1544" 
d="M273 1216h1118v-188h-1118v188zM273 791h1118v-188h-1118v188zM273 367h1118v-188h-1118v188z" />
    <glyph glyph-name="H22073" unicode="&#x25a1;" horiz-adv-x="1237" 
d="M183 944h944v-944h-944v944zM259 868v-792h792v792h-792z" />
    <glyph glyph-name="H18543" unicode="&#x25aa;" horiz-adv-x="726" 
d="M695 948v-543h-543v543h543z" />
    <glyph glyph-name="H18551" unicode="&#x25ab;" horiz-adv-x="726" 
d="M695 948v-543h-543v543h543zM619 872h-391v-391h391v391z" />
    <glyph glyph-name="H18533" unicode="&#x25cf;" horiz-adv-x="1237" 
d="M655 1018q181 0 310.5 -129t129.5 -311t-129 -311.5t-311 -129.5t-311.5 129.5t-129.5 311.5q0 189 131.5 314.5t309.5 125.5z" />
    <glyph glyph-name="openbullet" unicode="&#x25e6;" horiz-adv-x="726" 
d="M424 962q118 0 201.5 -83.5t83.5 -202.5q0 -118 -83.5 -202t-201.5 -84q-119 0 -202.5 84t-83.5 202q0 119 84 202.5t202 83.5zM424 886q-85 0 -147.5 -60t-62.5 -150q0 -86 61.5 -148t148.5 -62t148.5 62t61.5 148q0 87 -62 148.5t-148 61.5z" />
    <glyph glyph-name="commaaccent" unicode="&#xf004;" horiz-adv-x="682" 
d="M3 -630l-19 63q111 29 171.5 77t60.5 91q0 22 -30 31q-64 20 -88 46t-24 80q0 56 39 100t105 44q68 0 112.5 -51t44.5 -126q0 -73 -42.5 -148.5t-132 -130t-197.5 -76.5z" />
    <glyph glyph-name="Amacron" unicode="&#x100;" horiz-adv-x="1518" 
d="M985 1479h135l179 -1275q8 -58 38 -80q42 -31 112 -31h46l-25 -93h-680l23 93h50q79 0 107.5 19.5t28.5 59.5q0 14 -3 32l-37 266h-501l-99 -154q-41 -65 -41 -119q0 -49 32.5 -76.5t99.5 -27.5h41l-23 -93h-531l23 93q69 4 109 32q77 53 116 113zM871 1110l-342 -529
h415zM717 1849h703l-49 -165h-702z" />
    <glyph glyph-name="amacron" unicode="&#x101;" horiz-adv-x="1366" 
d="M894 795l54 144l256 19l-198 -714q-20 -73 -20 -93q0 -15 6.5 -23t19.5 -8q74 0 192 233l75 -41q-175 -341 -382 -341q-71 0 -110 43.5t-46 129.5q-76 -96 -147.5 -134.5t-151.5 -38.5q-137 0 -226 98.5t-89 269.5q0 164 79.5 314t204.5 233.5t256 83.5q90 0 145 -42
t82 -133zM725 849q-122 0 -219.5 -171t-97.5 -392q0 -103 31 -145.5t89 -42.5q61 0 131 61.5t124 206t54 307.5q0 97 -29.5 136.5t-82.5 39.5zM535 1361h703l-49 -165h-702z" />
    <glyph glyph-name="Ccircumflex" unicode="&#x108;" horiz-adv-x="1554" 
d="M1441 1340q59 35 87 112h90l-114 -558h-88q-1 218 -39 314.5t-120 149.5t-194 53q-124 0 -242.5 -96t-210.5 -325t-92 -475q0 -143 45 -233.5t135 -142t201 -51.5q142 0 266 94.5t201 283.5l84 -38q-86 -227 -251.5 -342t-394.5 -115q-284 0 -449 160.5t-165 430.5
q0 263 115.5 490t303 344.5t406.5 117.5q136 0 237 -41t189 -133zM1112 1967h213l88 -378h-34l-185 206l-425 -206h-39z" />
    <glyph glyph-name="ccircumflex" unicode="&#x109;" horiz-adv-x="1100" 
d="M893 265l69 -54q-95 -117 -216 -178.5t-251 -61.5q-181 0 -289 107t-108 284q0 161 85.5 311t222.5 233t295 83q151 0 232.5 -69t81.5 -175q0 -79 -44 -126.5t-110 -47.5q-60 0 -98.5 35.5t-38.5 89.5q0 37 19 62t90 63q22 11 22 23q0 18 -27 34q-37 22 -91 22
q-131 0 -225 -134q-119 -170 -119 -430q0 -124 53.5 -185.5t140.5 -61.5q150 0 306 176zM685 1479h213l88 -378h-34l-185 206l-425 -206h-39z" />
    <glyph glyph-name="Cdot" unicode="&#x10a;" horiz-adv-x="1554" 
d="M1441 1340q59 35 87 112h90l-114 -558h-88q-1 218 -39 314.5t-120 149.5t-194 53q-124 0 -242.5 -96t-210.5 -325t-92 -475q0 -143 45 -233.5t135 -142t201 -51.5q142 0 266 94.5t201 283.5l84 -38q-86 -227 -251.5 -342t-394.5 -115q-284 0 -449 160.5t-165 430.5
q0 263 115.5 490t303 344.5t406.5 117.5q136 0 237 -41t189 -133zM1100 1912q55 0 94 -39.5t39 -95.5t-39 -95t-94 -39q-56 0 -95 39t-39 95q0 55 40 95t94 40z" />
    <glyph glyph-name="cdot" unicode="&#x10b;" horiz-adv-x="1100" 
d="M893 265l69 -54q-95 -117 -216 -178.5t-251 -61.5q-181 0 -289 107t-108 284q0 161 85.5 311t222.5 233t295 83q151 0 232.5 -69t81.5 -175q0 -79 -44 -126.5t-110 -47.5q-60 0 -98.5 35.5t-38.5 89.5q0 37 19 62t90 63q22 11 22 23q0 18 -27 34q-37 22 -91 22
q-131 0 -225 -134q-119 -170 -119 -430q0 -124 53.5 -185.5t140.5 -61.5q150 0 306 176zM722 1424q55 0 94 -39.5t39 -95.5t-39 -95t-94 -39q-56 0 -95 39t-39 95q0 55 40 95t94 40z" />
    <glyph glyph-name="Emacron" unicode="&#x112;" horiz-adv-x="1518" 
d="M311 1479h1262l-109 -481h-90q16 88 16 133q0 114 -70 183.5t-178 69.5h-219q-75 0 -99 -89l-133 -487h75q127 0 203 56.5t131 199.5h88l-178 -670h-87q14 84 14 140q0 88 -51.5 135.5t-140.5 47.5h-78l-144 -528q-5 -18 -5 -35q0 -30 22.5 -45.5t79.5 -15.5h153
q205 0 345 100t227 317h91l-159 -510h-1278l27 93h76q80 0 100 74l308 1128q4 16 4 30q0 28 -19.5 43.5t-64.5 15.5h-144zM748 1849h703l-49 -165h-702z" />
    <glyph glyph-name="emacron" unicode="&#x113;" horiz-adv-x="1063" 
d="M372 369q-4 -38 -4 -63q0 -106 52 -163t139 -57q73 0 143.5 35t172.5 139l67 -52q-117 -129 -229.5 -183t-242.5 -54q-184 0 -289.5 105.5t-105.5 286.5q0 161 88 308.5t240.5 232.5t328.5 85q129 0 200 -62t71 -157q0 -79 -57 -158.5t-185 -138t-389 -104.5zM384 452
q171 33 249 106q107 101 107 227q0 52 -24.5 81.5t-61.5 29.5q-74 0 -138 -89q-94 -129 -132 -355zM346 1361h703l-49 -165h-702z" />
    <glyph glyph-name="Ebreve" unicode="&#x114;" horiz-adv-x="1518" 
d="M311 1479h1262l-109 -481h-90q16 88 16 133q0 114 -70 183.5t-178 69.5h-219q-75 0 -99 -89l-133 -487h75q127 0 203 56.5t131 199.5h88l-178 -670h-87q14 84 14 140q0 88 -51.5 135.5t-140.5 47.5h-78l-144 -528q-5 -18 -5 -35q0 -30 22.5 -45.5t79.5 -15.5h153
q205 0 345 100t227 317h91l-159 -510h-1278l27 93h76q80 0 100 74l308 1128q4 16 4 30q0 28 -19.5 43.5t-64.5 15.5h-144zM840 1974h70q1 -90 54 -143.5t141 -53.5q166 0 279 197h63q-55 -200 -153 -293t-217 -93q-111 0 -178.5 72t-67.5 191q0 36 9 123z" />
    <glyph glyph-name="ebreve" unicode="&#x115;" horiz-adv-x="1063" 
d="M372 369q-4 -38 -4 -63q0 -106 52 -163t139 -57q73 0 143.5 35t172.5 139l67 -52q-117 -129 -229.5 -183t-242.5 -54q-184 0 -289.5 105.5t-105.5 286.5q0 161 88 308.5t240.5 232.5t328.5 85q129 0 200 -62t71 -157q0 -79 -57 -158.5t-185 -138t-389 -104.5zM384 452
q171 33 249 106q107 101 107 227q0 52 -24.5 81.5t-61.5 29.5q-74 0 -138 -89q-94 -129 -132 -355zM450 1487h70q1 -90 54 -143.5t141 -53.5q166 0 279 197h63q-55 -200 -153 -293t-217 -93q-111 0 -178.5 72t-67.5 191q0 36 9 123z" />
    <glyph glyph-name="Edot" unicode="&#x116;" horiz-adv-x="1518" 
d="M311 1479h1262l-109 -481h-90q16 88 16 133q0 114 -70 183.5t-178 69.5h-219q-75 0 -99 -89l-133 -487h75q127 0 203 56.5t131 199.5h88l-178 -670h-87q14 84 14 140q0 88 -51.5 135.5t-140.5 47.5h-78l-144 -528q-5 -18 -5 -35q0 -30 22.5 -45.5t79.5 -15.5h153
q205 0 345 100t227 317h91l-159 -510h-1278l27 93h76q80 0 100 74l308 1128q4 16 4 30q0 28 -19.5 43.5t-64.5 15.5h-144zM1044 1912q55 0 94 -39.5t39 -95.5t-39 -95t-94 -39q-56 0 -95 39t-39 95q0 55 40 95t94 40z" />
    <glyph glyph-name="edot" unicode="&#x117;" horiz-adv-x="1063" 
d="M372 369q-4 -38 -4 -63q0 -106 52 -163t139 -57q73 0 143.5 35t172.5 139l67 -52q-117 -129 -229.5 -183t-242.5 -54q-184 0 -289.5 105.5t-105.5 286.5q0 161 88 308.5t240.5 232.5t328.5 85q129 0 200 -62t71 -157q0 -79 -57 -158.5t-185 -138t-389 -104.5zM384 452
q171 33 249 106q107 101 107 227q0 52 -24.5 81.5t-61.5 29.5q-74 0 -138 -89q-94 -129 -132 -355zM680 1424q55 0 94 -39.5t39 -95.5t-39 -95t-94 -39q-56 0 -95 39t-39 95q0 55 40 95t94 40z" />
    <glyph glyph-name="Gcircumflex" unicode="&#x11c;" horiz-adv-x="1669" 
d="M1451 1357q39 38 67 99h88l-88 -525h-87q-8 263 -101 378t-245 115q-137 0 -263 -99.5t-230.5 -355t-104.5 -491.5q0 -203 86.5 -307.5t230.5 -104.5q120 0 194 62.5t127.5 226.5t53.5 205q0 24 -16.5 35.5t-61.5 11.5h-98l20 88h640l-24 -88h-47q-87 0 -106 -68
l-149 -539h-74l-43 186q-104 -112 -224.5 -163.5t-267.5 -51.5q-245 0 -412.5 155.5t-167.5 435.5q0 249 127 476t333.5 351.5t448.5 124.5q138 0 228 -36.5t166 -120.5zM1102 1967h213l88 -378h-34l-185 206l-425 -206h-39z" />
    <glyph glyph-name="gcircumflex" unicode="&#x11d;" horiz-adv-x="1251" 
d="M903 958q115 108 233 108q64 0 99 -29.5t35 -77.5q0 -42 -27.5 -70t-66.5 -28q-44 0 -82 51q-17 23 -23 27q-8 5 -20 5q-33 0 -66 -31q63 -43 94 -100t31 -128q0 -154 -115 -252.5t-343 -98.5q-46 0 -132 7q-59 5 -90 5q-101 0 -155 -29q-33 -18 -33 -51q0 -36 48 -48
q32 -8 238 -17q206 -8 268 -20q110 -23 168.5 -83.5t58.5 -147.5q0 -92 -61.5 -172.5t-191.5 -126t-359 -45.5q-197 0 -298.5 27t-143.5 73.5t-42 98.5q0 65 59.5 114t227.5 81q-70 20 -108.5 68.5t-38.5 109.5q0 84 64 148t198 90q-127 84 -127 221q0 147 126 249.5
t351 102.5q58 0 114 -7.5t110 -23.5zM696 910q-94 0 -160.5 -85.5t-66.5 -231.5q0 -92 39.5 -135.5t113.5 -43.5q90 0 146 74q73 96 73 238q0 95 -37.5 139.5t-107.5 44.5zM497 -29q-177 0 -260 -48q-58 -35 -58 -103q0 -60 51 -91q72 -44 220 -44q173 0 255 51t82 117
q0 55 -57.5 86.5t-232.5 31.5zM727 1479h213l88 -378h-34l-185 206l-425 -206h-39z" />
    <glyph glyph-name="Gdot" unicode="&#x120;" horiz-adv-x="1669" 
d="M1451 1357q39 38 67 99h88l-88 -525h-87q-8 263 -101 378t-245 115q-137 0 -263 -99.5t-230.5 -355t-104.5 -491.5q0 -203 86.5 -307.5t230.5 -104.5q120 0 194 62.5t127.5 226.5t53.5 205q0 24 -16.5 35.5t-61.5 11.5h-98l20 88h640l-24 -88h-47q-87 0 -106 -68
l-149 -539h-74l-43 186q-104 -112 -224.5 -163.5t-267.5 -51.5q-245 0 -412.5 155.5t-167.5 435.5q0 249 127 476t333.5 351.5t448.5 124.5q138 0 228 -36.5t166 -120.5zM1151 1912q55 0 94 -39.5t39 -95.5t-39 -95t-94 -39q-56 0 -95 39t-39 95q0 55 40 95t94 40z" />
    <glyph glyph-name="gdot" unicode="&#x121;" horiz-adv-x="1251" 
d="M903 958q115 108 233 108q64 0 99 -29.5t35 -77.5q0 -42 -27.5 -70t-66.5 -28q-44 0 -82 51q-17 23 -23 27q-8 5 -20 5q-33 0 -66 -31q63 -43 94 -100t31 -128q0 -154 -115 -252.5t-343 -98.5q-46 0 -132 7q-59 5 -90 5q-101 0 -155 -29q-33 -18 -33 -51q0 -36 48 -48
q32 -8 238 -17q206 -8 268 -20q110 -23 168.5 -83.5t58.5 -147.5q0 -92 -61.5 -172.5t-191.5 -126t-359 -45.5q-197 0 -298.5 27t-143.5 73.5t-42 98.5q0 65 59.5 114t227.5 81q-70 20 -108.5 68.5t-38.5 109.5q0 84 64 148t198 90q-127 84 -127 221q0 147 126 249.5
t351 102.5q58 0 114 -7.5t110 -23.5zM696 910q-94 0 -160.5 -85.5t-66.5 -231.5q0 -92 39.5 -135.5t113.5 -43.5q90 0 146 74q73 96 73 238q0 95 -37.5 139.5t-107.5 44.5zM497 -29q-177 0 -260 -48q-58 -35 -58 -103q0 -60 51 -91q72 -44 220 -44q173 0 255 51t82 117
q0 55 -57.5 86.5t-232.5 31.5zM764 1424q55 0 94 -39.5t39 -95.5t-39 -95t-94 -39q-56 0 -95 39t-39 95q0 55 40 95t94 40z" />
    <glyph glyph-name="Gcedilla" unicode="&#x122;" horiz-adv-x="1669" 
d="M1451 1357q39 38 67 99h88l-88 -525h-87q-8 263 -101 378t-245 115q-137 0 -263 -99.5t-230.5 -355t-104.5 -491.5q0 -203 86.5 -307.5t230.5 -104.5q120 0 194 62.5t127.5 226.5t53.5 205q0 24 -16.5 35.5t-61.5 11.5h-98l20 88h640l-24 -88h-47q-87 0 -106 -68
l-149 -539h-74l-43 186q-104 -112 -224.5 -163.5t-267.5 -51.5q-245 0 -412.5 155.5t-167.5 435.5q0 249 127 476t333.5 351.5t448.5 124.5q138 0 228 -36.5t166 -120.5zM830 -21q106 -52 106 -144q0 -63 -46 -115.5t-144.5 -78t-354.5 -32.5l29 87q142 6 187.5 31t45.5 62
q0 50 -86 75l192 156h114z" />
    <glyph glyph-name="gcedilla" unicode="&#x123;" horiz-adv-x="1251" 
d="M903 958q115 108 233 108q64 0 99 -29.5t35 -77.5q0 -42 -27.5 -70t-66.5 -28q-44 0 -82 51q-17 23 -23 27q-8 5 -20 5q-33 0 -66 -31q63 -43 94 -100t31 -128q0 -154 -115 -252.5t-343 -98.5q-46 0 -132 7q-59 5 -90 5q-101 0 -155 -29q-33 -18 -33 -51q0 -36 48 -48
q32 -8 238 -17q206 -8 268 -20q110 -23 168.5 -83.5t58.5 -147.5q0 -92 -61.5 -172.5t-191.5 -126t-359 -45.5q-197 0 -298.5 27t-143.5 73.5t-42 98.5q0 65 59.5 114t227.5 81q-70 20 -108.5 68.5t-38.5 109.5q0 84 64 148t198 90q-127 84 -127 221q0 147 126 249.5
t351 102.5q58 0 114 -7.5t110 -23.5zM696 910q-94 0 -160.5 -85.5t-66.5 -231.5q0 -92 39.5 -135.5t113.5 -43.5q90 0 146 74q73 96 73 238q0 95 -37.5 139.5t-107.5 44.5zM497 -29q-177 0 -260 -48q-58 -35 -58 -103q0 -60 51 -91q72 -44 220 -44q173 0 255 51t82 117
q0 55 -57.5 86.5t-232.5 31.5zM916 1474l8 -30q-138 -27 -138 -89q0 -21 36 -30q78 -20 78 -78q0 -38 -32.5 -65t-81.5 -27q-56 0 -91 33t-35 80q0 70 66.5 131t189.5 75z" />
    <glyph glyph-name="Hcircumflex" unicode="&#x124;" horiz-adv-x="1782" 
d="M324 1479h722l-24 -95h-90q-88 0 -107 -70l-132 -491h579l130 477q3 12 3 23q0 28 -23 44.5t-77 16.5h-104l23 95h718l-24 -95h-87q-55 0 -82.5 -23t-44.5 -89l-297 -1112q-2 -8 -2 -15q0 -24 17 -35q26 -17 68 -17h121l-25 -93h-710l25 93h103q72 0 95 82l142 527h-579
l-147 -527q-3 -12 -3 -23q0 -28 19.5 -43.5t60.5 -15.5h132l-23 -93h-705l23 93h72q43 0 72 19.5t37 47.5l315 1154q4 14 -2.5 32t-27 28t-54.5 10h-131zM1177 1967h213l88 -378h-34l-185 206l-425 -206h-39z" />
    <glyph glyph-name="hcircumflex" unicode="&#x125;" horiz-adv-x="1403" 
d="M331 1479l455 19l-227 -790q115 154 218 217.5t207 63.5q93 0 151.5 -59t58.5 -150q0 -80 -32 -180l-132 -408q-7 -23 -7 -43q0 -18 8.5 -27t22.5 -9q83 0 196 243l81 -27q-80 -185 -179.5 -267t-202.5 -82q-82 0 -129.5 46t-47.5 121q0 72 53 230q77 227 93 292.5
t16 100.5q0 36 -19.5 56.5t-52.5 20.5q-98 0 -228.5 -167t-199.5 -407l-77 -273l-267 -8l374 1306q5 15 5 30q0 26 -23 41.5t-80 15.5h-62zM1083 1951h213l88 -378h-34l-185 206l-425 -206h-39z" />
    <glyph glyph-name="Hbar" unicode="&#x126;" horiz-adv-x="1782" 
d="M1649 1064l-242 -904q-3 -11 -3 -16q0 -51 86 -51h121l-25 -93h-710l25 93h103q72 0 95 82l142 527h-579l-150 -527q-4 -17 -4 -24q0 -58 84 -58h132l-23 -93h-705l23 93h72q90 0 109 67l248 904h-224l31 111h224l33 123q4 13 4 19q0 69 -85 69h-131l24 93h722l-24 -93
h-90q-87 0 -107 -72l-37 -139h580l34 123q4 17 4 25q0 63 -101 63h-104l23 93h718l-24 -93h-87q-56 0 -82.5 -23t-44.5 -91l-26 -97h192l-30 -111h-191zM1338 1064h-580l-65 -241h579z" />
    <glyph glyph-name="hbar" unicode="&#x127;" horiz-adv-x="1403" 
d="M991 1134h-310l-122 -426q115 154 218 217.5t207 63.5q93 0 151.5 -59t58.5 -150q0 -80 -32 -180l-132 -408q-7 -23 -7 -43q0 -18 8.5 -27t22.5 -9q83 0 196 243l81 -27q-80 -185 -179.5 -267t-202.5 -82q-82 0 -129.5 46t-47.5 121q0 72 53 230q77 227 93 292.5
t16 100.5q0 36 -19.5 56.5t-52.5 20.5q-98 0 -228.5 -167t-199.5 -407l-77 -273l-267 -8l327 1142h-186l32 107h185l16 57q6 21 6 31q0 57 -104 57h-62l27 93l455 19l-74 -257h310z" />
    <glyph glyph-name="Itilde" unicode="&#x128;" horiz-adv-x="909" 
d="M330 1479h727l-24 -95h-85q-59 0 -84.5 -17.5t-36.5 -58.5l-301 -1129q-4 -16 -4 -28q0 -28 19 -40q29 -18 86 -18h108l-24 -93h-710l25 93h80q86 0 105 74l300 1124q5 19 5 36q0 27 -20.5 42t-71.5 15h-116zM1072 1913h24q-13 -130 -77.5 -199t-150.5 -69q-71 0 -185 47
q-100 43 -142 43q-80 0 -108 -90h-28q5 120 70.5 193.5t152.5 73.5q63 0 180 -49q98 -40 145 -40q81 0 119 90z" />
    <glyph glyph-name="itilde" unicode="&#x129;" horiz-adv-x="797" 
d="M183 939l453 19l-215 -742q-14 -50 -14 -73q0 -18 7 -27.5t20 -9.5q29 0 74 43q75 71 147 201l73 -42q-187 -337 -411 -337q-76 0 -120 45t-44 123q0 54 14 102l149 518q5 14 5 29q0 28 -23 44.5t-79 16.5h-64zM866 1425h24q-13 -130 -77.5 -199t-150.5 -69
q-71 0 -185 47q-100 43 -142 43q-80 0 -108 -90h-28q5 120 70.5 193.5t152.5 73.5q63 0 180 -49q98 -40 145 -40q81 0 119 90z" />
    <glyph glyph-name="Imacron" unicode="&#x12a;" horiz-adv-x="909" 
d="M330 1479h727l-24 -95h-85q-59 0 -84.5 -17.5t-36.5 -58.5l-301 -1129q-4 -16 -4 -28q0 -28 19 -40q29 -18 86 -18h108l-24 -93h-710l25 93h80q86 0 105 74l300 1124q5 19 5 36q0 27 -20.5 42t-71.5 15h-116zM429 1849h703l-49 -165h-702z" />
    <glyph glyph-name="imacron" unicode="&#x12b;" horiz-adv-x="797" 
d="M183 939l453 19l-215 -742q-14 -50 -14 -73q0 -18 7 -27.5t20 -9.5q29 0 74 43q75 71 147 201l73 -42q-187 -337 -411 -337q-76 0 -120 45t-44 123q0 54 14 102l149 518q5 14 5 29q0 28 -23 44.5t-79 16.5h-64zM222 1361h703l-49 -165h-702z" />
    <glyph glyph-name="Ibreve" unicode="&#x12c;" horiz-adv-x="909" 
d="M330 1479h727l-24 -95h-85q-59 0 -84.5 -17.5t-36.5 -58.5l-301 -1129q-4 -16 -4 -28q0 -28 19 -40q29 -18 86 -18h108l-24 -93h-710l25 93h80q86 0 105 74l300 1124q5 19 5 36q0 27 -20.5 42t-71.5 15h-116zM496 1974h70q1 -90 54 -143.5t141 -53.5q166 0 279 197h63
q-55 -200 -153 -293t-217 -93q-111 0 -178.5 72t-67.5 191q0 36 9 123z" />
    <glyph glyph-name="ibreve" unicode="&#x12d;" horiz-adv-x="797" 
d="M183 939l453 19l-215 -742q-14 -50 -14 -73q0 -18 7 -27.5t20 -9.5q29 0 74 43q75 71 147 201l73 -42q-187 -337 -411 -337q-76 0 -120 45t-44 123q0 54 14 102l149 518q5 14 5 29q0 28 -23 44.5t-79 16.5h-64zM327 1487h70q1 -90 54 -143.5t141 -53.5q166 0 279 197h63
q-55 -200 -153 -293t-217 -93q-111 0 -178.5 72t-67.5 191q0 36 9 123z" />
    <glyph glyph-name="Iogonek" unicode="&#x12e;" horiz-adv-x="909" 
d="M330 1479h727l-24 -95h-85q-59 0 -84.5 -17.5t-36.5 -58.5l-301 -1129q-4 -16 -4 -28q0 -28 19 -40q29 -18 86 -18h108l-24 -93h-710l25 93h80q86 0 105 74l300 1124q5 19 5 36q0 27 -20.5 42t-71.5 15h-116zM307 19h83q-49 -68 -49 -123q0 -79 65 -140t157 -61l35 2
l20 -56q-101 -55 -190 -55q-111 0 -185.5 68.5t-74.5 162.5q0 113 139 202z" />
    <glyph glyph-name="iogonek" unicode="&#x12f;" horiz-adv-x="797" 
d="M544 1480q68 0 116 -48t48 -116t-48 -116t-116 -48t-116 48t-48 116t48 116t116 48zM183 939l453 19l-215 -742q-14 -50 -14 -73q0 -18 7 -27.5t20 -9.5q29 0 74 43q75 71 147 201l73 -42q-187 -337 -411 -337q-76 0 -120 45t-44 123q0 54 14 102l149 518q5 14 5 29
q0 28 -23 44.5t-79 16.5h-64zM280 19h83q-49 -68 -49 -123q0 -79 65 -140t157 -61l35 2l20 -56q-101 -55 -190 -55q-111 0 -185.5 68.5t-74.5 162.5q0 113 139 202z" />
    <glyph glyph-name="Jcircumflex" unicode="&#x134;" horiz-adv-x="1366" 
d="M804 1479h710l-25 -95h-64q-49 0 -75 -22t-42 -81l-205 -756q-61 -228 -137.5 -333.5t-204 -163t-294.5 -57.5q-196 0 -308.5 98.5t-112.5 244.5q0 133 84 222t201 89q84 0 139.5 -51.5t55.5 -125.5q0 -72 -48 -118t-129 -46q-57 0 -113 39q-35 24 -47 24
q-16 0 -29 -16.5t-13 -46.5q0 -83 75 -146.5t189 -63.5q127 0 214.5 78.5t138.5 269.5l237 888q3 11 3 22q0 25 -20 38.5t-75 13.5h-130zM1189 1967h213l88 -378h-34l-185 206l-425 -206h-39z" />
    <glyph glyph-name="jcircumflex" unicode="&#x135;" horiz-adv-x="758" 
d="M471 1479h213l88 -378h-34l-185 206l-425 -206h-39zM649 958l-193 -810q-71 -298 -213 -420t-304 -122q-93 0 -148 40t-55 112q0 58 38 93t90 35q100 0 103 -119q1 -42 7.5 -54t24.5 -12q47 0 90 93t108 364l148 609q3 14 3 24q0 59 -115 59h-53l25 86z" />
    <glyph glyph-name="Kcedilla" unicode="&#x136;" horiz-adv-x="1593" 
d="M324 1479h695l-27 -95h-79q-52 0 -79 -22t-43 -79l-161 -588l600 518q65 57 65 99q0 32 -27 52t-83 20h-39l24 95h574l-25 -95q-91 -7 -155.5 -36t-157.5 -110l-396 -337l346 -719q16 -34 37.5 -51.5t63.5 -29.5q27 -8 100 -8l-24 -93h-696l25 93h90q51 0 73 16t22 42
q0 20 -9 38l-247 520l-201 -173l-100 -362q-3 -11 -3 -23q0 -27 23 -42.5t80 -15.5h106l-25 -93h-712l24 93h60q60 0 89.5 21t42.5 68l304 1112q5 16 5 31q0 28 -23 43.5t-79 15.5h-81zM354 -416l29 87q235 0 235 77q0 53 -93 53q-11 0 -45 -2l28 111q81 14 147 14
q205 0 205 -135q0 -67 -54 -118t-149.5 -69t-302.5 -18z" />
    <glyph glyph-name="kcedilla" unicode="&#x137;" horiz-adv-x="1327" 
d="M334 1479l453 19l-231 -803q146 174 250 234t212 60q103 0 162.5 -54.5t59.5 -139.5q0 -67 -39 -130.5t-124.5 -115.5t-262.5 -101q59 -29 82 -51.5t34 -49.5q7 -18 28 -137q10 -53 18 -64.5t22 -11.5q24 0 57 33q51 49 104 151l78 -40q-81 -158 -175 -228.5t-186 -70.5
q-81 0 -122 44t-41 139q0 40 10 111q11 77 11 105q0 25 -6 33.5t-18 8.5l-27 -3l-25 -3q-32 0 -50 14.5t-18 34.5q0 22 16.5 36t46.5 14l39 -3q30 -3 47 -3q103 0 183 75q79 74 79 163q0 50 -25.5 77t-72.5 27q-62 0 -132 -47q-99 -68 -191.5 -217t-149.5 -332l-78 -253
l-262 -8l381 1315q3 10 3 21q0 24 -22 39q-29 21 -71 21h-78zM171 -416l29 87q235 0 235 77q0 53 -93 53q-11 0 -45 -2l28 111q81 14 147 14q205 0 205 -135q0 -67 -54 -118t-149.5 -69t-302.5 -18z" />
    <glyph glyph-name="kgreenlandic" unicode="&#x138;" horiz-adv-x="1327" 
d="M487 461l-131 -461l-266 -9l214 740q13 45 13 59q0 56 -110 56h-58l28 90l437 22l-107 -411h68q123 0 174 45.5t125 183.5q58 110 109 154t143 44q81 0 129.5 -46t48.5 -122q0 -67 -36.5 -104.5t-88.5 -37.5q-50 0 -86.5 27t-36.5 76q0 15 4 38q2 13 2 20q0 30 -23 30
q-17 0 -37 -27t-78 -136q-62 -118 -108 -148t-103 -43q143 -31 188.5 -78t59.5 -173q10 -95 19 -120.5t29 -25.5q15 0 31 14t54 104l78 -19q-37 -122 -98 -173t-171 -51q-88 0 -136 39.5t-58 184.5q-8 120 -19 163.5t-47 69t-98 25.5h-58z" />
    <glyph glyph-name="Lcedilla" unicode="&#x13b;" horiz-adv-x="1442" 
d="M350 1479h761l-23 -95h-134q-49 0 -74 -20.5t-39 -72.5l-299 -1112q-3 -13 -3 -27q0 -28 18 -41q26 -18 74 -18h197q125 0 255 103t219 307h91l-142 -503h-1251l25 93h96q86 0 104 69l308 1138q3 13 3 26q0 27 -22 41q-28 17 -95 17h-93zM278 -416l29 87q235 0 235 77
q0 53 -93 53q-11 0 -45 -2l28 111q81 14 147 14q205 0 205 -135q0 -67 -54 -118t-149.5 -69t-302.5 -18z" />
    <glyph glyph-name="lcedilla" unicode="&#x13c;" horiz-adv-x="797" 
d="M333 1479l455 19l-366 -1269q-16 -56 -16 -80q0 -18 6.5 -27t18.5 -9q26 0 59 33q68 68 140 196l74 -39q-90 -176 -192 -254t-200 -78q-75 0 -117 43.5t-42 122.5q0 68 21 140l289 1007q8 29 8 51q0 28 -24 44t-90 16h-50zM-57 -416l29 87q235 0 235 77q0 53 -93 53
q-11 0 -45 -2l28 111q81 14 147 14q205 0 205 -135q0 -67 -54 -118t-149.5 -69t-302.5 -18z" />
    <glyph glyph-name="Ncedilla" unicode="&#x145;" horiz-adv-x="1745" 
d="M388 1479h442l475 -1031l197 726q12 45 12 73q0 63 -42.5 100.5t-113.5 37.5h-43l25 94h510l-26 -94q-80 -4 -122 -43q-59 -55 -84 -149l-320 -1193h-109l-538 1174l-221 -817q-15 -57 -15 -93q0 -76 52.5 -122.5t152.5 -48.5l-22 -93h-570l23 93q99 4 161 56.5t87 145.5
l257 953q10 35 10 51q0 40 -33.5 63t-118.5 23h-51zM430 -416l29 87q235 0 235 77q0 53 -93 53q-11 0 -45 -2l28 111q81 14 147 14q205 0 205 -135q0 -67 -54 -118t-149.5 -69t-302.5 -18z" />
    <glyph glyph-name="ncedilla" unicode="&#x146;" horiz-adv-x="1403" 
d="M1248 355l81 -25q-74 -182 -173 -266.5t-202 -84.5q-86 0 -134 46.5t-48 125.5q0 70 52 224q76 230 89 283.5t13 86.5q0 37 -18.5 58t-46.5 21q-51 0 -108 -41q-95 -66 -180 -199t-127 -274l-90 -310l-266 -9l224 772q3 12 3 23q0 29 -23 44.5t-87 15.5h-58l28 93l437 19
l-73 -281q220 293 429 293q95 0 155.5 -61t60.5 -153q0 -74 -32 -176l-106 -337q-25 -79 -25 -100q0 -15 7.5 -22.5t21.5 -7.5q34 0 72 40q64 69 124 202zM209 -416l29 87q235 0 235 77q0 53 -93 53q-11 0 -45 -2l28 111q81 14 147 14q205 0 205 -135q0 -67 -54 -118
t-149.5 -69t-302.5 -18z" />
    <glyph glyph-name="Eng" unicode="&#x14a;" horiz-adv-x="1763" 
d="M740 1000l-226 -814q-6 -23 -6 -35q0 -58 83 -58h35l-23 -93h-608l23 93h72q90 0 113 85l304 1103q7 28 7 42q0 63 -84 63h-131l24 93h547l-55 -197q166 232 440 232q228 0 351.5 -151t123.5 -443q0 -407 -203.5 -678t-468.5 -271q-165 0 -255.5 101t-90.5 242
q0 123 63 192.5t146 69.5q70 0 116 -51t46 -117q0 -56 -37.5 -108t-128.5 -55q-53 -3 -53 -39q0 -43 44.5 -85t108.5 -42q95 0 178.5 102.5t146 354.5t62.5 495q0 205 -60.5 286t-175.5 81q-129 0 -243 -108t-185 -290z" />
    <glyph glyph-name="eng" unicode="&#x14b;" horiz-adv-x="1282" 
d="M356 0l-266 -9l214 737q13 46 13 61q0 57 -110 57h-58l28 90l437 22l-73 -281q220 293 429 293q100 0 158 -64.5t58 -149.5q0 -59 -32 -176l-118 -432q-61 -223 -122 -315.5t-164.5 -159.5t-231.5 -67q-93 0 -148 40t-55 112q0 58 38 93t91 35q100 0 103 -119
q1 -42 7 -54t24 -12q45 0 77.5 66t96.5 298l152 558q22 84 22 123q0 78 -68 78q-99 0 -226.5 -159.5t-185.5 -354.5z" />
    <glyph glyph-name="Omacron" unicode="&#x14c;" horiz-adv-x="1706" 
d="M1073 1514q282 0 452 -165.5t170 -430.5q0 -226 -101 -434q-115 -238 -341.5 -375.5t-493.5 -137.5q-311 0 -465 181.5t-154 427.5q0 193 101 411.5t327 370.5t505 152zM1076 1418q-168 0 -304 -130t-230 -435q-74 -240 -74 -433q0 -174 81 -265t221 -91
q163 0 297.5 128.5t218 406.5t83.5 458q0 177 -79.5 269t-213.5 92zM780 1849h703l-49 -165h-702z" />
    <glyph glyph-name="omacron" unicode="&#x14d;" horiz-adv-x="1176" 
d="M667 989q193 0 314.5 -119t121.5 -302q0 -231 -164.5 -414t-432.5 -183q-196 0 -317 118.5t-121 303.5q0 158 81.5 300t215.5 219t302 77zM677 905q-78 0 -140 -67q-86 -92 -141 -283t-55 -307q0 -91 43.5 -139.5t114.5 -48.5q68 0 120 48q76 72 144 258.5t68 347.5
q0 90 -43.5 140.5t-110.5 50.5zM430 1361h703l-49 -165h-702z" />
    <glyph glyph-name="Obreve" unicode="&#x14e;" horiz-adv-x="1706" 
d="M1073 1514q282 0 452 -165.5t170 -430.5q0 -226 -101 -434q-115 -238 -341.5 -375.5t-493.5 -137.5q-311 0 -465 181.5t-154 427.5q0 193 101 411.5t327 370.5t505 152zM1076 1418q-168 0 -304 -130t-230 -435q-74 -240 -74 -433q0 -174 81 -265t221 -91
q163 0 297.5 128.5t218 406.5t83.5 458q0 177 -79.5 269t-213.5 92zM872 1974h70q1 -90 54 -143.5t141 -53.5q166 0 279 197h63q-55 -200 -153 -293t-217 -93q-111 0 -178.5 72t-67.5 191q0 36 9 123z" />
    <glyph glyph-name="obreve" unicode="&#x14f;" horiz-adv-x="1176" 
d="M667 989q193 0 314.5 -119t121.5 -302q0 -231 -164.5 -414t-432.5 -183q-196 0 -317 118.5t-121 303.5q0 158 81.5 300t215.5 219t302 77zM677 905q-78 0 -140 -67q-86 -92 -141 -283t-55 -307q0 -91 43.5 -139.5t114.5 -48.5q68 0 120 48q76 72 144 258.5t68 347.5
q0 90 -43.5 140.5t-110.5 50.5zM484 1487h70q1 -90 54 -143.5t141 -53.5q166 0 279 197h63q-55 -200 -153 -293t-217 -93q-111 0 -178.5 72t-67.5 191q0 36 9 123z" />
    <glyph glyph-name="Rcedilla" unicode="&#x156;" horiz-adv-x="1630" 
d="M284 1479h799q153 0 237 -23q119 -34 188 -120t69 -205q0 -108 -62 -193t-182 -133.5t-350 -53.5q115 -24 177.5 -78.5t91.5 -141t36 -318.5q3 -91 54 -91q69 0 144 158l71 -19q-108 -273 -340 -273q-118 0 -183.5 68t-65.5 189q0 55 12 158q11 96 11 128q0 93 -49 141.5
t-137 48.5h-153l-150 -553q-3 -9 -3 -18q0 -26 20 -41.5t63 -15.5h144l-21 -93h-740l25 93h84q50 0 76 21.5t40 69.5l300 1095q7 24 7 46q0 29 -20.5 44t-69.5 15h-148zM677 813h148q225 0 320 88q111 102 111 271q0 108 -62.5 162t-213.5 54q-101 0 -129.5 -17.5
t-43.5 -72.5zM336 -416l29 87q235 0 235 77q0 53 -93 53q-11 0 -45 -2l28 111q81 14 147 14q205 0 205 -135q0 -67 -54 -118t-149.5 -69t-302.5 -18z" />
    <glyph glyph-name="rcedilla" unicode="&#x157;" horiz-adv-x="1063" 
d="M175 937l391 21l-96 -429q98 239 179 324q113 117 258 117q83 0 132.5 -46.5t49.5 -120.5q0 -71 -42.5 -118.5t-98.5 -47.5q-49 0 -83 32.5t-34 78.5q0 26 9 59q3 11 3 17q0 11 -9 19.5t-22 8.5q-39 0 -92 -41.5t-121 -179.5q-92 -189 -149 -383l-72 -248l-268 -11
l150 528q41 147 41 233q0 60 -28 81t-124 20zM26 -416l29 87q235 0 235 77q0 53 -93 53q-11 0 -45 -2l28 111q81 14 147 14q205 0 205 -135q0 -67 -54 -118t-149.5 -69t-302.5 -18z" />
    <glyph glyph-name="Scircumflex" unicode="&#x15c;" horiz-adv-x="1403" 
d="M1209 1359l115 91h87l-114 -511h-88q-4 181 -48 279t-126 152t-186 54q-134 0 -216 -73t-82 -182q0 -84 51 -132t307 -143q170 -64 238 -116.5t104.5 -130t36.5 -175.5q0 -139 -70 -254t-202 -181t-307 -66q-137 0 -240.5 37t-206.5 125l-83 -92h-92l115 531h89
q1 -184 49.5 -287.5t143.5 -160t221 -56.5q150 0 244 82t94 197q0 95 -71 152q-39 32 -277 127q-185 73 -248 120.5t-96.5 119t-33.5 170.5q0 208 140 343t362 135q111 0 204 -36t186 -119zM957 1967h213l88 -378h-34l-185 206l-425 -206h-39z" />
    <glyph glyph-name="scircumflex" unicode="&#x15d;" horiz-adv-x="985" 
d="M153 642q0 148 121.5 247.5t326.5 99.5q168 0 254 -63t86 -155q0 -60 -36 -97.5t-91 -37.5q-52 0 -86 33t-34 81q0 31 25 75q12 21 12 30q0 21 -27 37.5t-87 16.5q-98 0 -159.5 -51.5t-61.5 -118.5q0 -43 28.5 -67t191.5 -81q122 -42 167 -74t70 -82.5t25 -110.5
q0 -95 -53 -176.5t-155 -129t-247 -47.5q-200 0 -299.5 70t-99.5 179q0 66 41 109t100 43q52 0 86 -33t34 -85q0 -41 -37 -87q-17 -21 -17 -33q0 -28 36 -49q47 -28 130 -28q107 0 170.5 51.5t63.5 123.5q0 42 -28 70t-127 60q-211 68 -267 124.5t-56 155.5zM648 1479h213
l88 -378h-34l-185 206l-425 -206h-39z" />
    <glyph glyph-name="Tbar" unicode="&#x166;" horiz-adv-x="1479" 
d="M1504 936h-92q29 134 29 222q0 226 -203 226q-70 0 -94.5 -23t-36.5 -69l-140 -517h372l-31 -111h-371l-131 -483q-3 -14 -3 -19q0 -69 95 -69h137l-24 -93h-797l23 93h144q89 0 116 97l129 474h-372l30 111h372l140 517q6 22 6 30q0 62 -98 62q-220 0 -435 -448h-87
l199 543h1254z" />
    <glyph glyph-name="tbar" unicode="&#x167;" horiz-adv-x="834" 
d="M793 835h-206l-56 -194h252l-31 -107h-252l-90 -313q-8 -27 -8 -52q0 -30 12 -45t32 -15q79 0 231 233l73 -46q-99 -168 -208 -246.5t-209 -78.5q-88 0 -139 49.5t-51 128.5q0 60 20 132l73 253h-181l30 107h182l56 194h-191l32 101h189l91 325h264l-91 -325h208z" />
    <glyph glyph-name="Utilde" unicode="&#x168;" horiz-adv-x="1706" 
d="M309 1479h734l-25 -94h-108q-83 0 -103 -73l-208 -774q-28 -104 -28 -171q0 -133 85.5 -211.5t229.5 -78.5q157 0 269.5 97t159.5 284l177 703q10 37 10 73q0 55 -19.5 87t-56.5 48t-119 16l26 94h526l-22 -94q-93 -5 -146 -48t-74 -127l-188 -752
q-43 -171 -124.5 -273.5t-202.5 -158t-290 -55.5q-267 0 -408 112.5t-141 289.5q0 95 29 202l200 727q4 14 4 27q0 27 -20.5 41.5t-70.5 14.5h-121zM1529 1913h24q-13 -130 -77.5 -199t-150.5 -69q-71 0 -185 47q-100 43 -142 43q-80 0 -108 -90h-28q5 120 70.5 193.5
t152.5 73.5q63 0 180 -49q98 -40 145 -40q81 0 119 90z" />
    <glyph glyph-name="utilde" unicode="&#x169;" horiz-adv-x="1403" 
d="M643 958l-197 -600q-35 -106 -35 -155q0 -44 19 -65.5t53 -21.5q85 0 207 127.5t205 378.5l104 317h265l-234 -721q-15 -47 -15 -71q0 -18 7 -27t21 -9q80 0 208 233l75 -33q-93 -189 -190.5 -264.5t-204.5 -75.5q-81 0 -123.5 43t-42.5 126q0 39 12 92
q-193 -254 -427 -254q-96 0 -149 54t-53 146q0 83 42 211l122 378q4 11 4 22q0 27 -25 43.5t-86 16.5h-53l26 90zM1225 1425h24q-13 -130 -77.5 -199t-150.5 -69q-71 0 -185 47q-100 43 -142 43q-80 0 -108 -90h-28q5 120 70.5 193.5t152.5 73.5q63 0 180 -49
q98 -40 145 -40q81 0 119 90z" />
    <glyph glyph-name="Umacron" unicode="&#x16a;" horiz-adv-x="1706" 
d="M309 1479h734l-25 -94h-108q-83 0 -103 -73l-208 -774q-28 -104 -28 -171q0 -133 85.5 -211.5t229.5 -78.5q157 0 269.5 97t159.5 284l177 703q10 37 10 73q0 55 -19.5 87t-56.5 48t-119 16l26 94h526l-22 -94q-93 -5 -146 -48t-74 -127l-188 -752
q-43 -171 -124.5 -273.5t-202.5 -158t-290 -55.5q-267 0 -408 112.5t-141 289.5q0 95 29 202l200 727q4 14 4 27q0 27 -20.5 41.5t-70.5 14.5h-121zM886 1849h703l-49 -165h-702z" />
    <glyph glyph-name="umacron" unicode="&#x16b;" horiz-adv-x="1403" 
d="M643 958l-197 -600q-35 -106 -35 -155q0 -44 19 -65.5t53 -21.5q85 0 207 127.5t205 378.5l104 317h265l-234 -721q-15 -47 -15 -71q0 -18 7 -27t21 -9q80 0 208 233l75 -33q-93 -189 -190.5 -264.5t-204.5 -75.5q-81 0 -123.5 43t-42.5 126q0 39 12 92
q-193 -254 -427 -254q-96 0 -149 54t-53 146q0 83 42 211l122 378q4 11 4 22q0 27 -25 43.5t-86 16.5h-53l26 90zM557 1361h703l-49 -165h-702z" />
    <glyph glyph-name="Ubreve" unicode="&#x16c;" horiz-adv-x="1706" 
d="M309 1479h734l-25 -94h-108q-83 0 -103 -73l-208 -774q-28 -104 -28 -171q0 -133 85.5 -211.5t229.5 -78.5q157 0 269.5 97t159.5 284l177 703q10 37 10 73q0 55 -19.5 87t-56.5 48t-119 16l26 94h526l-22 -94q-93 -5 -146 -48t-74 -127l-188 -752
q-43 -171 -124.5 -273.5t-202.5 -158t-290 -55.5q-267 0 -408 112.5t-141 289.5q0 95 29 202l200 727q4 14 4 27q0 27 -20.5 41.5t-70.5 14.5h-121zM953 1974h70q1 -90 54 -143.5t141 -53.5q166 0 279 197h63q-55 -200 -153 -293t-217 -93q-111 0 -178.5 72t-67.5 191
q0 36 9 123z" />
    <glyph glyph-name="ubreve" unicode="&#x16d;" horiz-adv-x="1403" 
d="M643 958l-197 -600q-35 -106 -35 -155q0 -44 19 -65.5t53 -21.5q85 0 207 127.5t205 378.5l104 317h265l-234 -721q-15 -47 -15 -71q0 -18 7 -27t21 -9q80 0 208 233l75 -33q-93 -189 -190.5 -264.5t-204.5 -75.5q-81 0 -123.5 43t-42.5 126q0 39 12 92
q-193 -254 -427 -254q-96 0 -149 54t-53 146q0 83 42 211l122 378q4 11 4 22q0 27 -25 43.5t-86 16.5h-53l26 90zM624 1487h70q1 -90 54 -143.5t141 -53.5q166 0 279 197h63q-55 -200 -153 -293t-217 -93q-111 0 -178.5 72t-67.5 191q0 36 9 123z" />
    <glyph glyph-name="Uogonek" unicode="&#x172;" horiz-adv-x="1706" 
d="M309 1479h734l-25 -94h-108q-83 0 -103 -73l-208 -774q-28 -104 -28 -171q0 -133 85.5 -211.5t229.5 -78.5q157 0 269.5 97t159.5 284l177 703q10 37 10 73q0 55 -19.5 87t-56.5 48t-119 16l26 94h526l-22 -94q-93 -5 -146 -48t-74 -127l-188 -752
q-43 -171 -124.5 -273.5t-202.5 -158t-290 -55.5q-267 0 -408 112.5t-141 289.5q0 95 29 202l200 727q4 14 4 27q0 27 -20.5 41.5t-70.5 14.5h-121zM803 19h83q-49 -68 -49 -123q0 -79 65 -140t157 -61l35 2l20 -56q-101 -55 -190 -55q-111 0 -185.5 68.5t-74.5 162.5
q0 113 139 202z" />
    <glyph glyph-name="uogonek" unicode="&#x173;" horiz-adv-x="1403" 
d="M643 958l-197 -600q-35 -106 -35 -155q0 -44 19 -65.5t53 -21.5q85 0 207 127.5t205 378.5l104 317h265l-234 -721q-15 -47 -15 -71q0 -18 7 -27t21 -9q80 0 208 233l75 -33q-93 -189 -190.5 -264.5t-204.5 -75.5q-81 0 -123.5 43t-42.5 126q0 39 12 92
q-193 -254 -427 -254q-96 0 -149 54t-53 146q0 83 42 211l122 378q4 11 4 22q0 27 -25 43.5t-86 16.5h-53l26 90zM867 19h83q-49 -68 -49 -123q0 -79 65 -140t157 -61l35 2l20 -56q-101 -55 -190 -55q-111 0 -185.5 68.5t-74.5 162.5q0 113 139 202z" />
    <glyph glyph-name="Wcircumflex" unicode="&#x174;" horiz-adv-x="1933" 
d="M204 1479h566l-24 -94h-34q-52 0 -75.5 -21.5t-23.5 -63.5l2 -34l76 -808l420 801q-2 71 -32 98.5t-104 27.5h-54l23 94h642l-23 -94h-71q-60 0 -83 -17.5t-23 -55.5l1 -19l77 -825l409 781q15 30 15 60q0 28 -11.5 45t-34.5 25q-16 6 -77 6l23 94h413l-21 -94
q-67 -2 -103.5 -28t-87.5 -122l-664 -1267h-90l-103 1099l-574 -1099h-94l-133 1319q-5 52 -31 75t-74 23h-42zM1314 1967h213l88 -378h-34l-185 206l-425 -206h-39z" />
    <glyph glyph-name="wcircumflex" unicode="&#x175;" horiz-adv-x="1706" 
d="M786 260q-187 -289 -446 -289q-100 0 -159 55.5t-59 139.5q0 70 23 141l143 441q6 19 6 35q0 31 -29.5 47t-133.5 16l27 93l466 19l-194 -594q-43 -134 -43 -184q0 -40 19.5 -61.5t51.5 -21.5q67 0 145 72q111 103 186 284q36 87 153 486h262l-129 -454
q-43 -153 -43 -251q0 -71 29 -106.5t76 -35.5q62 0 124 54q93 80 162.5 226t69.5 257q0 36 -14 66q-11 22 -50 53q-43 36 -57 60t-14 53q0 46 32.5 77.5t82.5 31.5q60 0 101 -52.5t41 -144.5q0 -160 -78 -356q-89 -223 -215.5 -334.5t-283.5 -111.5q-123 0 -189 63t-66 173z
M1047 1479h213l88 -378h-34l-185 206l-425 -206h-39z" />
    <glyph glyph-name="Ycircumflex" unicode="&#x176;" horiz-adv-x="1442" 
d="M282 1479h623l-23 -95h-85q-53 0 -72.5 -11.5t-19.5 -27.5q0 -14 10 -39l214 -528l319 426q38 51 38 95q0 37 -30 59t-114 26l26 95h483l-26 -95q-68 -8 -108.5 -32t-83.5 -81l-437 -589l-137 -505q-3 -13 -3 -25q0 -28 21 -43.5t67 -15.5h116l-24 -93h-736l29 93h107
q89 0 109 71l132 486l-268 656q-19 47 -41.5 62.5t-67.5 15.5h-39zM1090 1967h213l88 -378h-34l-185 206l-425 -206h-39z" />
    <glyph glyph-name="ycircumflex" unicode="&#x177;" horiz-adv-x="1063" 
d="M675 284q85 123 131.5 239.5t46.5 159.5q0 24 -16 67q-32 79 -32 118q0 55 32 88t84 33q51 0 82 -33t31 -87q0 -103 -108 -325q-148 -304 -332 -543t-327 -328q-107 -67 -205 -67q-89 0 -143 46t-54 114q0 59 38 97t97 38q50 0 81 -35t32 -102q0 -29 7 -39t21 -10
q25 0 73 24t116 91q88 88 153 178l-51 231q-71 322 -95 396q-40 127 -78 164q-19 18 -37 18q-25 0 -48.5 -26t-66.5 -135l-78 33q120 300 293 300q94 0 158 -97q80 -122 195 -608zM678 1479h213l88 -378h-34l-185 206l-425 -206h-39z" />
    <glyph glyph-name="longs" unicode="&#x17f;" horiz-adv-x="725" 
d="M223 -332q-114 -16 -245 -50q-44 -12 -53 -12q-16 0 -16 15q0 11 14 40q129 258 208 578l171 697q59 242 197.5 410t324.5 168q95 0 147.5 -46t52.5 -111q0 -57 -37.5 -96t-92.5 -39q-102 0 -115 130q-7 62 -35 62q-55 0 -97 -132t-82 -322l-213 -878q-59 -244 -129 -414
z" />
    <glyph glyph-name="Aringacute" unicode="&#x1fa;" horiz-adv-x="1518" 
d="M985 1479h135l179 -1275q8 -58 38 -80q42 -31 112 -31h46l-25 -93h-680l23 93h50q79 0 107.5 19.5t28.5 59.5q0 14 -3 32l-37 266h-501l-99 -154q-41 -65 -41 -119q0 -49 32.5 -76.5t99.5 -27.5h41l-23 -93h-531l23 93q69 4 109 32q77 53 116 113zM871 1110l-342 -529
h415zM1021 1884q88 0 149.5 -61.5t61.5 -147.5q0 -87 -62 -148.5t-148 -61.5q-87 0 -148.5 61.5t-61.5 148.5t61.5 148t147.5 61zM1019 1791q-48 0 -82 -34t-34 -82t34 -82.5t82 -34.5t82.5 34.5t34.5 82.5t-34 82t-83 34zM918 1932l-30 26l132 189q68 97 107.5 126t81.5 29
q49 0 83.5 -33t34.5 -77q0 -71 -113 -123z" />
    <glyph glyph-name="aringacute" unicode="&#x1fb;" horiz-adv-x="1366" 
d="M894 795l54 144l256 19l-198 -714q-20 -73 -20 -93q0 -15 6.5 -23t19.5 -8q74 0 192 233l75 -41q-175 -341 -382 -341q-71 0 -110 43.5t-46 129.5q-76 -96 -147.5 -134.5t-151.5 -38.5q-137 0 -226 98.5t-89 269.5q0 164 79.5 314t204.5 233.5t256 83.5q90 0 145 -42
t82 -133zM725 849q-122 0 -219.5 -171t-97.5 -392q0 -103 31 -145.5t89 -42.5q61 0 131 61.5t124 206t54 307.5q0 97 -29.5 136.5t-82.5 39.5zM846 1498q88 0 149.5 -61.5t61.5 -147.5q0 -87 -62 -148.5t-148 -61.5q-87 0 -148.5 61.5t-61.5 148.5t61.5 148t147.5 61z
M844 1405q-48 0 -82 -34t-34 -82t34 -82.5t82 -34.5t82.5 34.5t34.5 82.5t-34 82t-83 34zM739 1547l-30 26l132 189q68 97 107.5 126t81.5 29q49 0 83.5 -33t34.5 -77q0 -71 -113 -123z" />
    <glyph glyph-name="AEacute" unicode="&#x1fc;" horiz-adv-x="1821" 
d="M588 1479h1175l-45 -473h-91q6 80 6 129q0 122 -57.5 185.5t-149.5 63.5h-88q-50 0 -73.5 -16.5t-33.5 -53.5l-143 -509q123 0 190.5 54t104.5 186h93l-161 -634h-93q20 91 20 149q0 91 -44 127q-33 26 -136 29l-140 -498q-10 -35 -10 -56q0 -32 21 -48q26 -21 71 -21
h142q158 0 263 93q129 116 192 329h93l-113 -515h-1159l25 93h53q95 0 118 83l93 329h-367l-192 -277q-38 -56 -38 -83q0 -25 21 -38.5t78 -13.5h29l-21 -93h-444l25 93q55 4 108 34.5t81 69.5l740 1069q34 49 34 71q0 21 -19 34t-64 13h-117zM964 1402l-544 -787h322z
M1152 1593l-30 26l132 189q68 97 107.5 126t81.5 29q49 0 83.5 -33t34.5 -77q0 -71 -113 -123z" />
    <glyph glyph-name="aeacute" unicode="&#x1fd;" horiz-adv-x="1669" 
d="M1061 824q95 95 168 130t148 35q113 0 180.5 -62.5t67.5 -164.5q0 -84 -46 -144q-67 -87 -207.5 -152.5t-381.5 -102.5l-1 -51q0 -110 55.5 -172t145.5 -62q141 0 316 174l59 -50q-218 -231 -474 -231q-138 0 -226 61.5t-126 184.5q-128 -246 -352 -246
q-151 0 -245.5 98.5t-94.5 264.5q0 152 90.5 320.5t213.5 251.5t253 83q86 0 146.5 -46.5t94.5 -140.5l45 156l213 21zM1003 443q126 25 203.5 73.5t117.5 115.5t40 139q0 50 -24 76.5t-62 26.5q-71 0 -151.5 -102.5t-123.5 -328.5zM652 863q-121 0 -221 -197t-100 -398
q0 -91 38.5 -135t101.5 -44q59 0 127 61t125.5 221t57.5 310q0 90 -36.5 136t-92.5 46zM872 1104l-30 26l132 189q68 97 107.5 126t81.5 29q49 0 83.5 -33t34.5 -77q0 -71 -113 -123z" />
    <glyph glyph-name="Oslashacute" unicode="&#x1fe;" horiz-adv-x="1706" 
d="M1540 1334q156 -164 156 -416q0 -223 -106.5 -445t-333 -362t-495.5 -140q-252 0 -403 120l-87 -91h-132l150 158q-149 176 -149 421q0 194 101.5 412.5t327 370.5t504.5 152q240 0 395 -116l78 81h132zM472 350l861 905q-71 163 -260 163q-163 0 -299.5 -129
t-230.5 -434q-75 -242 -75 -432q0 -36 4 -73zM1363 1148l-864 -909q75 -175 272 -175q162 0 296.5 128.5t218 406.5t83.5 458q0 47 -6 91zM1045 1593l-30 26l132 189q68 97 107.5 126t81.5 29q49 0 83.5 -33t34.5 -77q0 -71 -113 -123z" />
    <glyph glyph-name="oslashacute" unicode="&#x1ff;" horiz-adv-x="1176" 
d="M996 855q107 -116 107 -287q0 -233 -165 -415t-431 -182q-169 0 -280 86l-55 -57h-120l113 116q-97 114 -97 277q0 158 81 300t215.5 219t298.5 77q160 0 271 -79l53 54h115zM344 301l477 492q-18 53 -56.5 82.5t-87.5 29.5q-123 0 -205 -162q-104 -206 -128 -442z
M830 682l-482 -499q14 -59 54.5 -91t96.5 -32q65 0 115 44q71 63 138.5 234.5t77.5 343.5zM622 1104l-30 26l132 189q68 97 107.5 126t81.5 29q49 0 83.5 -33t34.5 -77q0 -71 -113 -123z" />
    <glyph glyph-name="tonos" unicode="&#x384;" horiz-adv-x="682" 
d="M558 1112h-36l-12 153q-8 103 -8 118q0 131 140 131q104 0 104 -75q0 -53 -60 -141z" />
    <glyph glyph-name="dieresistonos" unicode="&#x385;" horiz-adv-x="682" 
d="M558 1112h-36l-12 153q-8 103 -8 118q0 131 140 131q105 0 105 -75q0 -53 -61 -141zM435 1290q0 -50 -35 -85.5t-85 -35.5q-49 0 -84.5 35.5t-35.5 84.5q0 53 37.5 87.5t82.5 34.5q50 0 85 -35.5t35 -85.5zM1012 1290q0 -50 -35 -85.5t-85 -35.5t-85 35.5t-35 84.5
q0 52 37 87t83 35q50 0 85 -35.5t35 -85.5z" />
    <glyph glyph-name="Alphatonos" unicode="&#x386;" horiz-adv-x="1518" 
d="M961 1479h135l179 -1275q8 -58 38 -80q42 -31 112 -31h46l-25 -93h-680l23 93h50q79 0 107.5 19.5t28.5 59.5q0 14 -3 32l-37 266h-501l-99 -154q-41 -65 -41 -119q0 -49 32.5 -76.5t99.5 -27.5h41l-23 -93h-531l23 93q69 4 109 32q77 53 116 113zM847 1110l-342 -529
h415zM373 1112h-36l-12 153q-8 103 -8 118q0 131 140 131q104 0 104 -75q0 -53 -60 -141z" />
    <glyph glyph-name="anoteleia" unicode="&#x387;" horiz-adv-x="588" 
d="M575 796q0 -73 -51 -124t-122 -51t-122 51t-51 122q0 76 55.5 126t117.5 50q71 0 122 -51t51 -123z" />
    <glyph glyph-name="Epsilontonos" unicode="&#x388;" horiz-adv-x="1743" 
d="M537 1479h1262l-109 -481h-90q16 88 16 133q0 114 -70 183.5t-178 69.5h-219q-75 0 -99 -89l-133 -487h75q127 0 203 56.5t131 199.5h88l-178 -670h-87q14 84 14 140q0 88 -51.5 135.5t-140.5 47.5h-78l-144 -528q-5 -18 -5 -35q0 -30 22.5 -45.5t79.5 -15.5h153
q205 0 345 100t227 317h91l-159 -510h-1278l27 93h76q80 0 100 74l308 1128q4 16 4 30q0 28 -19.5 43.5t-64.5 15.5h-144zM249 1112h-36l-12 153q-8 103 -8 118q0 131 140 131q104 0 104 -75q0 -53 -60 -141z" />
    <glyph glyph-name="Etatonos" unicode="&#x389;" horiz-adv-x="1993" 
d="M535 1479h722l-24 -95h-90q-88 0 -107 -70l-132 -491h579l130 477q3 12 3 23q0 28 -23 44.5t-77 16.5h-104l23 95h718l-24 -95h-87q-55 0 -82.5 -23t-44.5 -89l-297 -1112q-2 -8 -2 -15q0 -24 17 -35q26 -17 68 -17h121l-25 -93h-710l25 93h103q72 0 95 82l142 527h-579
l-147 -527q-3 -12 -3 -23q0 -28 19.5 -43.5t60.5 -15.5h132l-23 -93h-705l23 93h72q43 0 72 19.5t37 47.5l315 1154q4 14 -2.5 32t-27 28t-54.5 10h-131zM249 1112h-36l-12 153q-8 103 -8 118q0 131 140 131q104 0 104 -75q0 -53 -60 -141z" />
    <glyph glyph-name="Iotatonos" unicode="&#x38a;" horiz-adv-x="1112" 
d="M533 1479h727l-24 -95h-85q-59 0 -84.5 -17.5t-36.5 -58.5l-301 -1129q-4 -16 -4 -28q0 -28 19 -40q29 -18 86 -18h108l-24 -93h-710l25 93h80q86 0 105 74l300 1124q5 19 5 36q0 27 -20.5 42t-71.5 15h-116zM248 1112h-36l-12 153q-8 103 -8 118q0 131 140 131
q104 0 104 -75q0 -53 -60 -141z" />
    <glyph glyph-name="Omicrontonos" unicode="&#x38c;" horiz-adv-x="1765" 
d="M1133 1514q282 0 452 -165.5t170 -430.5q0 -226 -101 -434q-115 -238 -341.5 -375.5t-493.5 -137.5q-311 0 -465 181.5t-154 427.5q0 193 101 411.5t327 370.5t505 152zM1136 1418q-168 0 -304 -130t-230 -435q-74 -240 -74 -433q0 -174 81 -265t221 -91
q163 0 297.5 128.5t218 406.5t83.5 458q0 177 -79.5 269t-213.5 92zM249 1112h-36l-12 153q-8 103 -8 118q0 131 140 131q104 0 104 -75q0 -53 -60 -141z" />
    <glyph glyph-name="Upsilontonos" unicode="&#x38e;" horiz-adv-x="1692" 
d="M532 1479h623l-23 -95h-85q-53 0 -72.5 -11.5t-19.5 -27.5q0 -14 10 -39l214 -528l319 426q38 51 38 95q0 37 -30 59t-114 26l26 95h483l-26 -95q-68 -8 -108.5 -32t-83.5 -81l-437 -589l-137 -505q-3 -13 -3 -25q0 -28 21 -43.5t67 -15.5h116l-24 -93h-736l29 93h107
q89 0 109 71l132 486l-268 656q-19 47 -41.5 62.5t-67.5 15.5h-39zM249 1112h-36l-12 153q-8 103 -8 118q0 131 140 131q104 0 104 -75q0 -53 -60 -141z" />
    <glyph glyph-name="Omegatonos" unicode="&#x38f;" horiz-adv-x="1833" 
d="M760 314q-220 100 -325.5 228t-105.5 316q0 290 243 473t590 183q281 0 464 -131.5t183 -387.5q0 -226 -145 -407.5t-494 -273.5l-16 -75h174q168 0 243.5 56.5t104.5 134.5h90l-123 -430h-660l100 402q148 56 227.5 122t132.5 205t53 303q0 386 -349 386
q-160 0 -276.5 -78t-172.5 -217t-56 -288q0 -148 54.5 -248.5t190.5 -184.5l-59 -402h-700l110 430h90q-3 -33 -3 -57q0 -51 35 -92.5t208 -41.5h178zM247 1112h-36l-12 153q-8 103 -8 118q0 131 140 131q104 0 104 -75q0 -53 -60 -141z" />
    <glyph glyph-name="iotadieresistonos" unicode="&#x390;" horiz-adv-x="797" 
d="M183 939l453 19l-215 -742q-14 -50 -14 -73q0 -18 7 -27.5t20 -9.5q29 0 74 43q75 71 147 201l73 -42q-187 -337 -411 -337q-76 0 -120 45t-44 123q0 54 14 102l149 518q5 14 5 29q0 28 -23 44.5t-79 16.5h-64zM561 1112h-36l-12 153q-8 103 -8 118q0 131 140 131
q105 0 105 -75q0 -53 -61 -141zM438 1290q0 -50 -35 -85.5t-85 -35.5q-49 0 -84.5 35.5t-35.5 84.5q0 53 37.5 87.5t82.5 34.5q50 0 85 -35.5t35 -85.5zM1015 1290q0 -50 -35 -85.5t-85 -35.5t-85 35.5t-35 84.5q0 52 37 87t83 35q50 0 85 -35.5t35 -85.5z" />
    <glyph glyph-name="Alpha" unicode="&#x391;" horiz-adv-x="1518" 
d="M985 1479h135l179 -1275q8 -58 38 -80q42 -31 112 -31h46l-25 -93h-680l23 93h50q79 0 107.5 19.5t28.5 59.5q0 14 -3 32l-37 266h-501l-99 -154q-41 -65 -41 -119q0 -49 32.5 -76.5t99.5 -27.5h41l-23 -93h-531l23 93q69 4 109 32q77 53 116 113zM871 1110l-342 -529
h415z" />
    <glyph glyph-name="Beta" unicode="&#x392;" horiz-adv-x="1554" 
d="M264 1479h858q203 0 311.5 -89t108.5 -229q0 -148 -111.5 -249t-369.5 -134q202 -17 307 -111.5t105 -240.5q0 -132 -81 -233q-59 -75 -202.5 -134t-308.5 -59h-953l23 93h101q88 0 111 86l301 1112q5 19 5 37q0 26 -22 41t-80 15h-125zM649 812h199q90 0 160 31
q94 42 149.5 130t55.5 200q0 123 -77 176q-54 37 -198 37q-84 0 -113 -17t-42 -65zM622 720l-143 -529q-6 -22 -6 -42q0 -28 23 -42t92 -14h169q119 0 200 44t133 140.5t52 203.5q0 111 -74.5 175t-217.5 64h-228z" />
    <glyph glyph-name="Gamma" unicode="&#x393;" horiz-adv-x="1370" 
d="M774 93l-25 -93h-744l22 93h84q80 0 102 81l305 1114q6 25 6 34q0 64 -91 64h-139l25 93h1237l-86 -480h-90q7 56 7 101q0 150 -82.5 218t-211.5 68h-167q-72 0 -99 -98l-300 -1114q-4 -17 -4 -24q0 -57 93 -57h158z" />
    <glyph glyph-name="Delta" unicode="&#x394;" horiz-adv-x="1376" 
d="M831 1479h135l266 -1386l-25 -93h-1279l25 93zM717 1110l-543 -871h703z" />
    <glyph glyph-name="Epsilon" unicode="&#x395;" horiz-adv-x="1518" 
d="M311 1479h1262l-109 -481h-90q16 88 16 133q0 114 -70 183.5t-178 69.5h-219q-75 0 -99 -89l-133 -487h75q127 0 203 56.5t131 199.5h88l-178 -670h-87q14 84 14 140q0 88 -51.5 135.5t-140.5 47.5h-78l-144 -528q-5 -18 -5 -35q0 -30 22.5 -45.5t79.5 -15.5h153
q205 0 345 100t227 317h91l-159 -510h-1278l27 93h76q80 0 100 74l308 1128q4 16 4 30q0 28 -19.5 43.5t-64.5 15.5h-144z" />
    <glyph glyph-name="Zeta" unicode="&#x396;" horiz-adv-x="1442" 
d="M477 1479h1048v-84l-1085 -1302h302q115 0 204.5 40.5t164.5 124.5t162 269l81 -34l-151 -493h-1173v45l1122 1339h-229q-166 0 -285 -89t-246 -344l-84 33z" />
    <glyph glyph-name="Eta" unicode="&#x397;" horiz-adv-x="1782" 
d="M324 1479h722l-24 -95h-90q-88 0 -107 -70l-132 -491h579l130 477q3 12 3 23q0 28 -23 44.5t-77 16.5h-104l23 95h718l-24 -95h-87q-55 0 -82.5 -23t-44.5 -89l-297 -1112q-2 -8 -2 -15q0 -24 17 -35q26 -17 68 -17h121l-25 -93h-710l25 93h103q72 0 95 82l142 527h-579
l-147 -527q-3 -12 -3 -23q0 -28 19.5 -43.5t60.5 -15.5h132l-23 -93h-705l23 93h72q43 0 72 19.5t37 47.5l315 1154q4 14 -2.5 32t-27 28t-54.5 10h-131z" />
    <glyph glyph-name="Theta" unicode="&#x398;" horiz-adv-x="1706" 
d="M1074 1514q285 0 453 -167.5t168 -428.5q0 -201 -91.5 -413.5t-317 -373t-527.5 -160.5q-310 0 -464.5 181t-154.5 430q0 194 103.5 414t329.5 369t501 149zM1073 1418q-284 0 -444.5 -344.5t-160.5 -653.5q0 -168 78.5 -262t223.5 -94q176 0 308.5 140t211.5 411.5
t79 441.5q0 175 -78.5 268t-217.5 93zM609 494l116 491h91q-6 -27 -6 -48q0 -70 131 -70q155 0 201 118h90l-117 -491h-90l3 25q5 26 5 37q0 72 -153 72q-134 0 -181 -134h-90z" />
    <glyph glyph-name="Iota" unicode="&#x399;" horiz-adv-x="909" 
d="M330 1479h727l-24 -95h-85q-59 0 -84.5 -17.5t-36.5 -58.5l-301 -1129q-4 -16 -4 -28q0 -28 19 -40q29 -18 86 -18h108l-24 -93h-710l25 93h80q86 0 105 74l300 1124q5 19 5 36q0 27 -20.5 42t-71.5 15h-116z" />
    <glyph glyph-name="Kappa" unicode="&#x39a;" horiz-adv-x="1593" 
d="M324 1479h695l-27 -95h-79q-52 0 -79 -22t-43 -79l-161 -588l600 518q65 57 65 99q0 32 -27 52t-83 20h-39l24 95h574l-25 -95q-91 -7 -155.5 -36t-157.5 -110l-396 -337l346 -719q16 -34 37.5 -51.5t63.5 -29.5q27 -8 100 -8l-24 -93h-696l25 93h90q51 0 73 16t22 42
q0 20 -9 38l-247 520l-201 -173l-100 -362q-3 -11 -3 -23q0 -27 23 -42.5t80 -15.5h106l-25 -93h-712l24 93h60q60 0 89.5 21t42.5 68l304 1112q5 16 5 31q0 28 -23 43.5t-79 15.5h-81z" />
    <glyph glyph-name="Lambda" unicode="&#x39b;" horiz-adv-x="1518" 
d="M847 1110l-513 -799q-40 -63 -40 -116q0 -102 132 -102h41l-23 -93h-531l23 93q75 1 135.5 51t89.5 94l800 1241h135l179 -1275q11 -78 60 -94.5t90 -16.5h46l-25 -93h-680l23 93h50q136 0 136 79q0 11 -3 32z" />
    <glyph glyph-name="Mu" unicode="&#x39c;" horiz-adv-x="1933" 
d="M299 1479h535l108 -1074l674 1074h486l-26 -95h-60q-112 0 -135 -91l-287 -1117q-3 -13 -3 -25q0 -27 18 -40q23 -18 62 -18h132l-26 -93h-722l22 93h90q100 0 122 83l283 1037l-757 -1213h-119l-125 1204l-234 -862q-13 -48 -13 -89q0 -152 194 -160l-24 -93h-545l25 93
q85 6 142 61q78 77 108 188l259 951q6 19 6 34q0 27 -20.5 42t-69.5 15h-125z" />
    <glyph glyph-name="Nu" unicode="&#x39d;" horiz-adv-x="1745" 
d="M388 1479h442l475 -1031l197 726q12 45 12 73q0 63 -42.5 100.5t-113.5 37.5h-43l25 94h510l-26 -94q-80 -4 -122 -43q-59 -55 -84 -149l-320 -1193h-109l-538 1174l-221 -817q-15 -57 -15 -93q0 -76 52.5 -122.5t152.5 -48.5l-22 -93h-570l23 93q99 4 161 56.5t87 145.5
l257 953q10 35 10 51q0 40 -33.5 63t-118.5 23h-51z" />
    <glyph glyph-name="Xi" unicode="&#x39e;" horiz-adv-x="1458" 
d="M286 998l150 481h1162l-132 -481h-88q0 156 -84.5 199t-230.5 43h-241q-174 0 -275 -54t-173 -188h-88zM445 476l171 527h91q-6 -30 -6 -50q0 -86 144 -86q193 0 254 136h90l-171 -527h-90q7 54 7 72q0 80 -159 80q-177 0 -240 -152h-91zM106 510h90q-3 -22 -3 -35
q0 -102 86.5 -169t271.5 -67h253q361 0 488 271h91l-159 -510h-1245z" />
    <glyph glyph-name="Omicron" unicode="&#x39f;" horiz-adv-x="1706" 
d="M1073 1514q282 0 452 -165.5t170 -430.5q0 -226 -101 -434q-115 -238 -341.5 -375.5t-493.5 -137.5q-311 0 -465 181.5t-154 427.5q0 193 101 411.5t327 370.5t505 152zM1076 1418q-168 0 -304 -130t-230 -435q-74 -240 -74 -433q0 -174 81 -265t221 -91
q163 0 297.5 128.5t218 406.5t83.5 458q0 177 -79.5 269t-213.5 92z" />
    <glyph glyph-name="Pi" unicode="&#x3a0;" horiz-adv-x="1782" 
d="M324 1479h1618l-24 -93h-87q-55 0 -82 -22.5t-45 -91.5l-282 -1049q-17 -63 -17 -84q0 -46 85 -46h121l-25 -93h-710l25 93h103q72 0 95 82l328 1198h-580l-332 -1198q-5 -17 -5 -24q0 -58 82 -58h132l-23 -93h-705l23 93h72q90 0 109 67l297 1089q18 67 18 91
q0 46 -84 46h-131z" />
    <glyph glyph-name="Rho" unicode="&#x3a1;" horiz-adv-x="1518" 
d="M300 1479h772q262 0 383.5 -99t121.5 -274q0 -201 -165.5 -329t-517.5 -128q-93 0 -255 16l-130 -486q-4 -15 -4 -28q0 -29 20.5 -43.5t75.5 -14.5h116l-25 -93h-722l23 93h83q92 0 112 72l308 1132q6 20 6 33q0 26 -24 40t-98 14h-104zM664 753q84 -14 148 -14
q152 0 244 46.5t146 147t54 230.5q0 110 -68 165.5t-231 55.5q-76 0 -105 -19.5t-45 -76.5z" />
    <glyph glyph-name="Sigma" unicode="&#x3a3;" horiz-adv-x="1423" 
d="M959 799l-652 -560h470q306 0 465 288l78 -34l-159 -493h-1171l25 93l686 592l-352 701l25 93h1076l-104 -514h-87q10 90 10 140q0 281 -296 281h-319z" />
    <glyph glyph-name="Tau" unicode="&#x3a4;" horiz-adv-x="1479" 
d="M381 1479h1254l-131 -540h-92q29 135 29 218q0 116 -51.5 171.5t-153.5 55.5q-61 0 -88 -20t-41 -72l-301 -1111q-3 -13 -3 -28q0 -28 22.5 -44t72.5 -16h137l-24 -93h-797l23 93h144q89 0 116 97l299 1102q5 15 5 30q0 31 -21.5 46.5t-72.5 15.5q-101 0 -191 -81
q-127 -115 -247 -364h-87z" />
    <glyph glyph-name="Upsilon" unicode="&#x3a5;" horiz-adv-x="1442" 
d="M282 1479h623l-23 -95h-85q-53 0 -72.5 -11.5t-19.5 -27.5q0 -14 10 -39l214 -528l319 426q38 51 38 95q0 37 -30 59t-114 26l26 95h483l-26 -95q-68 -8 -108.5 -32t-83.5 -81l-437 -589l-137 -505q-3 -13 -3 -25q0 -28 21 -43.5t67 -15.5h116l-24 -93h-736l29 93h107
q89 0 109 71l132 486l-268 656q-19 47 -41.5 62.5t-67.5 15.5h-39z" />
    <glyph glyph-name="Phi" unicode="&#x3a6;" horiz-adv-x="1899" 
d="M1577 1479l-27 -93h-112q-90 0 -127 -150q337 -11 459 -115t122 -289q0 -258 -216 -414.5t-645 -156.5l-18 -64q-10 -34 -10 -47q0 -57 79 -57h146l-27 -93h-758l27 93h90q65 0 94.5 24.5t45.5 79.5l19 64q-568 20 -568 381q0 236 210.5 412.5t636.5 181.5q18 67 18 94
q0 56 -67 56h-156l26 93h758zM973 1147q-280 -16 -394.5 -177.5t-114.5 -353.5q0 -127 60.5 -188.5t221.5 -72.5zM1054 355q282 3 403.5 160.5t121.5 354.5q0 144 -66.5 207.5t-230.5 69.5z" />
    <glyph glyph-name="Chi" unicode="&#x3a7;" horiz-adv-x="1518" 
d="M299 1479h675l-22 -95h-46q-60 0 -84.5 -16.5t-24.5 -42.5q0 -22 9 -43l146 -343l261 275q46 49 46 94q0 36 -24 56t-74 20h-42l20 95h550l-24 -95q-77 -1 -128.5 -25t-111.5 -87l-430 -447l256 -611q21 -48 42 -69q30 -29 66 -43q25 -9 91 -9l-25 -93h-670l26 93h57
q65 0 94.5 19.5t29.5 47.5q0 11 -10 33l-171 413l-292 -314q-49 -53 -49 -104q0 -41 34.5 -67t118.5 -28l-24 -93h-599l24 93q157 12 271 132l472 491l-248 589q-17 41 -51 60t-100 19h-64z" />
    <glyph glyph-name="Psi" unicode="&#x3a8;" horiz-adv-x="1974" 
d="M211 1386l27 93h478l-134 -504q-47 -176 -47 -226q0 -87 90.5 -115.5t218.5 -28.5l192 674q11 37 11 60q0 47 -72 47h-47l26 93h557l-26 -93h-29q-94 0 -119 -88l-199 -693q248 0 337 95.5t138 274.5l136 504h467l-27 -93h-54q-52 0 -83.5 -20t-47.5 -84l-84 -334
q-49 -199 -158 -304t-257.5 -144t-407.5 -39l-61 -216q-19 -70 -19 -89q0 -63 83 -63h116l-26 -93h-744l26 93h116q67 0 96.5 30t56.5 122l62 216q-306 3 -444.5 60.5t-138.5 192.5q0 96 39 234l96 334q11 39 11 54q0 50 -82 50h-73z" />
    <glyph glyph-name="Omega" unicode="&#x3a9;" horiz-adv-x="1749" 
d="M677 314q-220 100 -325.5 228t-105.5 316q0 290 243 473t590 183q281 0 464 -131.5t183 -387.5q0 -226 -145 -407.5t-494 -273.5l-16 -75h174q168 0 243.5 56.5t104.5 134.5h90l-123 -430h-660l100 402q148 56 227.5 122t132.5 205t53 303q0 386 -349 386
q-160 0 -276.5 -78t-172.5 -217t-56 -288q0 -148 54.5 -248.5t190.5 -184.5l-59 -402h-700l110 430h90q-3 -33 -3 -57q0 -51 35 -92.5t208 -41.5h178z" />
    <glyph glyph-name="Iotadieresis" unicode="&#x3aa;" horiz-adv-x="909" 
d="M330 1479h727l-24 -95h-85q-59 0 -84.5 -17.5t-36.5 -58.5l-301 -1129q-4 -16 -4 -28q0 -28 19 -40q29 -18 86 -18h108l-24 -93h-710l25 93h80q86 0 105 74l300 1124q5 19 5 36q0 27 -20.5 42t-71.5 15h-116zM536 1944q55 0 94 -39.5t39 -95.5t-39 -95t-94 -39
q-56 0 -95 39t-39 95q0 55 40 95t94 40zM938 1944q55 0 94 -39.5t39 -95.5q0 -55 -39 -94.5t-94 -39.5t-94.5 39t-39.5 95q0 55 40 95t94 40z" />
    <glyph glyph-name="Upsilondieresis" unicode="&#x3ab;" horiz-adv-x="1442" 
d="M282 1479h623l-23 -95h-85q-53 0 -72.5 -11.5t-19.5 -27.5q0 -14 10 -39l214 -528l319 426q38 51 38 95q0 37 -30 59t-114 26l26 95h483l-26 -95q-68 -8 -108.5 -32t-83.5 -81l-437 -589l-137 -505q-3 -13 -3 -25q0 -28 21 -43.5t67 -15.5h116l-24 -93h-736l29 93h107
q89 0 109 71l132 486l-268 656q-19 47 -41.5 62.5t-67.5 15.5h-39zM892 1944q55 0 94 -39.5t39 -95.5t-39 -95t-94 -39q-56 0 -95 39t-39 95q0 55 40 95t94 40zM1294 1944q55 0 94 -39.5t39 -95.5q0 -55 -39 -94.5t-94 -39.5t-94.5 39t-39.5 95q0 55 40 95t94 40z" />
    <glyph glyph-name="alphatonos" unicode="&#x3ac;" horiz-adv-x="1319" 
d="M1148 970l-189 -726q-20 -78 -20 -93q0 -31 26 -31q74 0 192 233l75 -41q-175 -341 -384 -341q-140 0 -154 173q-131 -173 -296 -173q-140 0 -229 99.5t-89 266.5q0 247 164 440t376 193q179 0 227 -175l213 175h88zM676 849q-122 0 -218.5 -174t-96.5 -390
q0 -187 120 -187q118 0 213.5 175.5t95.5 399.5q0 176 -114 176zM753 1112h-36l-12 153q-8 103 -8 118q0 131 140 131q104 0 104 -75q0 -53 -60 -141z" />
    <glyph glyph-name="epsilontonos" unicode="&#x3ad;" horiz-adv-x="1012" 
d="M637 532l-17 -82h-50q-109 0 -186 -55t-77 -141q0 -74 63.5 -117.5t149.5 -43.5q196 0 372 150l55 -32q-189 -240 -531 -240q-186 0 -283 63.5t-97 171.5q0 234 402 286q-274 31 -274 195q0 127 152.5 214.5t357.5 87.5q156 0 240.5 -65.5t84.5 -178.5q0 -72 -39.5 -117
t-100.5 -45q-53 0 -91.5 32t-38.5 83q0 60 73 111q35 24 35 35q0 20 -42.5 40.5t-112.5 20.5q-110 0 -178.5 -62.5t-68.5 -155.5q0 -81 43.5 -118t109.5 -37h49zM699 1112h-36l-12 153q-8 103 -8 118q0 131 140 131q104 0 104 -75q0 -53 -60 -141z" />
    <glyph glyph-name="etatonos" unicode="&#x3ae;" horiz-adv-x="1311" 
d="M150 846l28 90l437 22l-73 -281q220 293 429 293q101 0 158.5 -64.5t57.5 -150.5q0 -72 -32 -175l-177 -569q-94 -302 -113 -348q-123 -13 -260 -58q-26 -8 -38 -8q-23 0 -23 19q0 12 34 80q74 151 130 322l197 605q22 70 22 123q0 78 -65 78q-104 0 -231.5 -162.5
t-183.5 -351.5l-90 -310l-266 -9l224 772q3 12 3 21q0 62 -110 62h-58zM820 1112h-36l-12 153q-8 103 -8 118q0 131 140 131q104 0 104 -75q0 -53 -60 -141z" />
    <glyph glyph-name="iotatonos" unicode="&#x3af;" horiz-adv-x="797" 
d="M183 939l453 19l-215 -742q-14 -50 -14 -73q0 -18 7 -27.5t20 -9.5q29 0 74 43q75 71 147 201l73 -42q-187 -337 -411 -337q-76 0 -120 45t-44 123q0 54 14 102l149 518q5 14 5 29q0 28 -23 44.5t-79 16.5h-64zM561 1112h-36l-12 153q-8 103 -8 118q0 131 140 131
q104 0 104 -75q0 -53 -60 -141z" />
    <glyph glyph-name="upsilondieresistonos" unicode="&#x3b0;" horiz-adv-x="1182" 
d="M120 846l28 90l435 22l-131 -451q-48 -167 -48 -264q0 -79 43.5 -118.5t96.5 -39.5q78 0 173 69.5t159 205.5t64 253q0 69 -36 141q-33 66 -33 104q0 55 39 93t106 38q142 0 142 -138q0 -188 -204.5 -534t-492.5 -346q-141 0 -228 80.5t-87 222.5q0 78 29 180l86 304
q6 20 6 30q0 58 -98 58h-49zM784 1112h-36l-12 153q-8 103 -8 118q0 131 140 131q105 0 105 -75q0 -53 -61 -141zM661 1290q0 -50 -35 -85.5t-85 -35.5q-49 0 -84.5 35.5t-35.5 84.5q0 53 37.5 87.5t82.5 34.5q50 0 85 -35.5t35 -85.5zM1238 1290q0 -50 -35 -85.5t-85 -35.5
t-85 35.5t-35 84.5q0 52 37 87t83 35q50 0 85 -35.5t35 -85.5z" />
    <glyph glyph-name="alpha" unicode="&#x3b1;" horiz-adv-x="1319" 
d="M1148 970l-189 -726q-20 -78 -20 -93q0 -31 26 -31q74 0 192 233l75 -41q-175 -341 -384 -341q-140 0 -154 173q-131 -173 -296 -173q-140 0 -229 99.5t-89 266.5q0 247 164 440t376 193q179 0 227 -175l213 175h88zM676 849q-122 0 -218.5 -174t-96.5 -390
q0 -187 120 -187q118 0 213.5 175.5t95.5 399.5q0 176 -114 176z" />
    <glyph glyph-name="beta" unicode="&#x3b2;" horiz-adv-x="1182" 
d="M288 60q-40 -161 -129 -397q-122 -13 -259 -58q-27 -8 -39 -8q-22 0 -22 19q0 14 33 80q46 91 99 230t158 542q117 449 195.5 645.5t212 298.5t321.5 102q169 0 272.5 -90.5t103.5 -225.5q0 -141 -115.5 -245.5t-308.5 -123.5q285 -80 285 -349q0 -219 -140 -364.5
t-367 -145.5q-182 0 -300 90zM653 881q129 0 202 71.5t106.5 158.5t33.5 158q0 77 -38 120.5t-98 43.5q-150 0 -256 -283.5t-281 -969.5q75 -122 202 -122q136 0 221 166.5t85 339.5q0 95 -41 160.5t-161 65.5z" />
    <glyph glyph-name="gamma" unicode="&#x3b3;" horiz-adv-x="1094" 
d="M101 650l-65 42q52 144 132.5 220.5t168.5 76.5q153 0 214.5 -238.5t61.5 -453.5q0 -46 -6 -128q165 296 196 373t31 134q0 36 -14 92q-13 54 -13 79q0 58 38 100t104 42q71 0 107.5 -41.5t36.5 -101.5q0 -73 -43 -155.5t-179 -270.5q-157 -216 -210 -327t-144 -425
q-113 -16 -243 -50q-43 -12 -51 -12q-17 0 -17 16q0 8 8 23q81 167 116 301.5t35 299.5q0 189 -39 380.5t-95 191.5q-59 0 -130 -168z" />
    <glyph glyph-name="delta" unicode="&#x3b4;" horiz-adv-x="1176" 
d="M571 978q-276 75 -276 242q0 137 145 215.5t358 78.5q191 0 294.5 -62t103.5 -171q0 -59 -33 -96.5t-89 -37.5q-49 0 -80 27.5t-31 63.5q0 23 23 58q15 22 15 41q0 98 -173 98q-123 0 -184.5 -59.5t-61.5 -144.5q0 -70 42.5 -111.5t156.5 -97.5q126 -61 188.5 -106.5
t98.5 -116.5t36 -185q0 -288 -171 -465.5t-427 -177.5q-201 0 -319.5 121.5t-118.5 302.5q0 200 134.5 376t368.5 207zM677 905q-151 0 -243.5 -247t-92.5 -408q0 -98 46.5 -144t111.5 -46q145 0 238.5 241t93.5 413q0 90 -43.5 140.5t-110.5 50.5z" />
    <glyph glyph-name="epsilon" unicode="&#x3b5;" horiz-adv-x="1012" 
d="M637 532l-17 -82h-50q-109 0 -186 -55t-77 -141q0 -74 63.5 -117.5t149.5 -43.5q196 0 372 150l55 -32q-189 -240 -531 -240q-186 0 -283 63.5t-97 171.5q0 234 402 286q-274 31 -274 195q0 127 152.5 214.5t357.5 87.5q156 0 240.5 -65.5t84.5 -178.5q0 -72 -39.5 -117
t-100.5 -45q-53 0 -91.5 32t-38.5 83q0 60 73 111q35 24 35 35q0 20 -42.5 40.5t-112.5 20.5q-110 0 -178.5 -62.5t-68.5 -155.5q0 -81 43.5 -118t109.5 -37h49z" />
    <glyph glyph-name="zeta" unicode="&#x3b6;" horiz-adv-x="840" 
d="M1081 1485l-11 -86q-270 -220 -492.5 -475t-222.5 -456q0 -82 43.5 -126.5t191.5 -125.5q119 -64 153.5 -116t34.5 -109q0 -129 -126 -225.5t-335 -96.5q-126 0 -252 36t-126 111q0 37 26 64t72 27q57 0 135 -69q51 -45 89 -62.5t101 -17.5q93 0 148 42t55 91
q0 38 -33.5 67t-157.5 97q-180 98 -237 178.5t-57 191.5q0 100 33.5 187t133 201.5t213.5 208.5t359 276h-281q-37 0 -200 -12q-19 -3 -63 -16l91 215h715z" />
    <glyph glyph-name="eta" unicode="&#x3b7;" horiz-adv-x="1311" 
d="M150 846l28 90l437 22l-73 -281q220 293 429 293q101 0 158.5 -64.5t57.5 -150.5q0 -72 -32 -175l-177 -569q-94 -302 -113 -348q-123 -13 -260 -58q-26 -8 -38 -8q-23 0 -23 19q0 12 34 80q74 151 130 322l197 605q22 70 22 123q0 78 -65 78q-104 0 -231.5 -162.5
t-183.5 -351.5l-90 -310l-266 -9l224 772q3 12 3 21q0 62 -110 62h-58z" />
    <glyph glyph-name="theta" unicode="&#x3b8;" horiz-adv-x="1104" 
d="M787 1515q132 0 213.5 -91.5t81.5 -337.5q0 -378 -173.5 -746.5t-457.5 -368.5q-320 0 -320 461q0 303 110.5 581t251 390t294.5 112zM803 823q79 290 79 445q0 157 -103 157q-70 0 -139.5 -90.5t-185.5 -511.5h349zM421 702q-89 -323 -89 -463q0 -178 121 -178
q85 0 145 105.5t173 535.5h-350z" />
    <glyph glyph-name="iota" unicode="&#x3b9;" horiz-adv-x="797" 
d="M183 939l453 19l-215 -742q-14 -50 -14 -73q0 -18 7 -27.5t20 -9.5q29 0 74 43q75 71 147 201l73 -42q-187 -337 -411 -337q-76 0 -120 45t-44 123q0 54 14 102l149 518q5 14 5 29q0 28 -23 44.5t-79 16.5h-64z" />
    </font>
</defs>
</svg>
